<?xml version="1.0" encoding="utf-8" standalone="no"?>
<!DOCTYPE svg PUBLIC "-//W3C//DTD SVG 1.1//EN"
  "http://www.w3.org/Graphics/SVG/1.1/DTD/svg11.dtd">
<!-- Created with matplotlib (http://matplotlib.org/) -->
<svg height="336.278958pt" version="1.1" viewBox="0 0 454.58 336.278958" width="454.58pt" xmlns="http://www.w3.org/2000/svg" xmlns:xlink="http://www.w3.org/1999/xlink">
 <defs>
  <style type="text/css">
*{stroke-linecap:butt;stroke-linejoin:round;}
  </style>
 </defs>
 <g id="figure_1">
  <g id="patch_1">
   <path d="M 0 336.278958 
L 454.58 336.278958 
L 454.58 0 
L 0 0 
z
" style="fill:none;"/>
  </g>
  <g id="axes_1">
   <g id="patch_2">
    <path d="M 58.884387 313.737538 
L 443.88 313.737538 
L 443.88 10.7 
L 58.884387 10.7 
z
" style="fill:none;"/>
   </g>
   <g id="patch_3">
    <path clip-path="url(#p5bcde5bcfc)" d="M 66.288148 307.909893 
L 69.990029 307.909893 
L 69.990029 306.061706 
L 66.288148 306.061706 
z
" style="fill:#444488;stroke:#444488;stroke-linejoin:miter;"/>
   </g>
   <g id="patch_4">
    <path clip-path="url(#p5bcde5bcfc)" d="M 69.990029 307.909893 
L 73.69191 307.909893 
L 73.69191 305.829248 
L 69.990029 305.829248 
z
" style="fill:#444488;stroke:#444488;stroke-linejoin:miter;"/>
   </g>
   <g id="patch_5">
    <path clip-path="url(#p5bcde5bcfc)" d="M 73.69191 307.909893 
L 77.393791 307.909893 
L 77.393791 304.39145 
L 73.69191 304.39145 
z
" style="fill:#444488;stroke:#444488;stroke-linejoin:miter;"/>
   </g>
   <g id="patch_6">
    <path clip-path="url(#p5bcde5bcfc)" d="M 77.393791 307.909893 
L 81.095672 307.909893 
L 81.095672 302.441382 
L 77.393791 302.441382 
z
" style="fill:#444488;stroke:#444488;stroke-linejoin:miter;"/>
   </g>
   <g id="patch_7">
    <path clip-path="url(#p5bcde5bcfc)" d="M 81.095672 307.909893 
L 84.797553 307.909893 
L 84.797553 299.904429 
L 81.095672 299.904429 
z
" style="fill:#444488;stroke:#444488;stroke-linejoin:miter;"/>
   </g>
   <g id="patch_8">
    <path clip-path="url(#p5bcde5bcfc)" d="M 84.797553 307.909893 
L 88.499434 307.909893 
L 88.499434 296.160702 
L 84.797553 296.160702 
z
" style="fill:#444488;stroke:#444488;stroke-linejoin:miter;"/>
   </g>
   <g id="patch_9">
    <path clip-path="url(#p5bcde5bcfc)" d="M 88.499434 307.909893 
L 92.201315 307.909893 
L 92.201315 291.662202 
L 88.499434 291.662202 
z
" style="fill:#444488;stroke:#444488;stroke-linejoin:miter;"/>
   </g>
   <g id="patch_10">
    <path clip-path="url(#p5bcde5bcfc)" d="M 92.201315 307.909893 
L 95.903196 307.909893 
L 95.903196 285.938274 
L 92.201315 285.938274 
z
" style="fill:#444488;stroke:#444488;stroke-linejoin:miter;"/>
   </g>
   <g id="patch_11">
    <path clip-path="url(#p5bcde5bcfc)" d="M 95.903196 307.909893 
L 99.605077 307.909893 
L 99.605077 278.314501 
L 95.903196 278.314501 
z
" style="fill:#444488;stroke:#444488;stroke-linejoin:miter;"/>
   </g>
   <g id="patch_12">
    <path clip-path="url(#p5bcde5bcfc)" d="M 99.605077 307.909893 
L 103.306957 307.909893 
L 103.306957 269.304587 
L 99.605077 269.304587 
z
" style="fill:#444488;stroke:#444488;stroke-linejoin:miter;"/>
   </g>
   <g id="patch_13">
    <path clip-path="url(#p5bcde5bcfc)" d="M 103.306957 307.909893 
L 107.008838 307.909893 
L 107.008838 258.562715 
L 103.306957 258.562715 
z
" style="fill:#444488;stroke:#444488;stroke-linejoin:miter;"/>
   </g>
   <g id="patch_14">
    <path clip-path="url(#p5bcde5bcfc)" d="M 107.008838 307.909893 
L 110.710719 307.909893 
L 110.710719 245.222188 
L 107.008838 245.222188 
z
" style="fill:#444488;stroke:#444488;stroke-linejoin:miter;"/>
   </g>
   <g id="patch_15">
    <path clip-path="url(#p5bcde5bcfc)" d="M 110.710719 307.909893 
L 114.4126 307.909893 
L 114.4126 230.151137 
L 110.710719 230.151137 
z
" style="fill:#444488;stroke:#444488;stroke-linejoin:miter;"/>
   </g>
   <g id="patch_16">
    <path clip-path="url(#p5bcde5bcfc)" d="M 114.4126 307.909893 
L 118.114481 307.909893 
L 118.114481 213.563368 
L 114.4126 213.563368 
z
" style="fill:#444488;stroke:#444488;stroke-linejoin:miter;"/>
   </g>
   <g id="patch_17">
    <path clip-path="url(#p5bcde5bcfc)" d="M 118.114481 307.909893 
L 121.816362 307.909893 
L 121.816362 195.678424 
L 118.114481 195.678424 
z
" style="fill:#444488;stroke:#444488;stroke-linejoin:miter;"/>
   </g>
   <g id="patch_18">
    <path clip-path="url(#p5bcde5bcfc)" d="M 121.816362 307.909893 
L 125.518243 307.909893 
L 125.518243 174.308039 
L 121.816362 174.308039 
z
" style="fill:#444488;stroke:#444488;stroke-linejoin:miter;"/>
   </g>
   <g id="patch_19">
    <path clip-path="url(#p5bcde5bcfc)" d="M 125.518243 307.909893 
L 129.220124 307.909893 
L 129.220124 154.454373 
L 125.518243 154.454373 
z
" style="fill:#444488;stroke:#444488;stroke-linejoin:miter;"/>
   </g>
   <g id="patch_20">
    <path clip-path="url(#p5bcde5bcfc)" d="M 129.220124 307.909893 
L 132.922005 307.909893 
L 132.922005 132.138371 
L 129.220124 132.138371 
z
" style="fill:#444488;stroke:#444488;stroke-linejoin:miter;"/>
   </g>
   <g id="patch_21">
    <path clip-path="url(#p5bcde5bcfc)" d="M 132.922005 307.909893 
L 136.623886 307.909893 
L 136.623886 110.462346 
L 132.922005 110.462346 
z
" style="fill:#444488;stroke:#444488;stroke-linejoin:miter;"/>
   </g>
   <g id="patch_22">
    <path clip-path="url(#p5bcde5bcfc)" d="M 136.623886 307.909893 
L 140.325766 307.909893 
L 140.325766 90.171027 
L 136.623886 90.171027 
z
" style="fill:#444488;stroke:#444488;stroke-linejoin:miter;"/>
   </g>
   <g id="patch_23">
    <path clip-path="url(#p5bcde5bcfc)" d="M 140.325766 307.909893 
L 144.027647 307.909893 
L 144.027647 71.514091 
L 140.325766 71.514091 
z
" style="fill:#444488;stroke:#444488;stroke-linejoin:miter;"/>
   </g>
   <g id="patch_24">
    <path clip-path="url(#p5bcde5bcfc)" d="M 144.027647 307.909893 
L 147.729528 307.909893 
L 147.729528 54.556111 
L 144.027647 54.556111 
z
" style="fill:#444488;stroke:#444488;stroke-linejoin:miter;"/>
   </g>
   <g id="patch_25">
    <path clip-path="url(#p5bcde5bcfc)" d="M 147.729528 307.909893 
L 151.431409 307.909893 
L 151.431409 39.29852 
L 147.729528 39.29852 
z
" style="fill:#444488;stroke:#444488;stroke-linejoin:miter;"/>
   </g>
   <g id="patch_26">
    <path clip-path="url(#p5bcde5bcfc)" d="M 151.431409 307.909893 
L 155.13329 307.909893 
L 155.13329 27.004055 
L 151.431409 27.004055 
z
" style="fill:#444488;stroke:#444488;stroke-linejoin:miter;"/>
   </g>
   <g id="patch_27">
    <path clip-path="url(#p5bcde5bcfc)" d="M 155.13329 307.909893 
L 158.835171 307.909893 
L 158.835171 21.001751 
L 155.13329 21.001751 
z
" style="fill:#444488;stroke:#444488;stroke-linejoin:miter;"/>
   </g>
   <g id="patch_28">
    <path clip-path="url(#p5bcde5bcfc)" d="M 158.835171 307.909893 
L 162.537052 307.909893 
L 162.537052 18.061583 
L 158.835171 18.061583 
z
" style="fill:#444488;stroke:#444488;stroke-linejoin:miter;"/>
   </g>
   <g id="patch_29">
    <path clip-path="url(#p5bcde5bcfc)" d="M 162.537052 307.909893 
L 166.238933 307.909893 
L 166.238933 16.527645 
L 162.537052 16.527645 
z
" style="fill:#444488;stroke:#444488;stroke-linejoin:miter;"/>
   </g>
   <g id="patch_30">
    <path clip-path="url(#p5bcde5bcfc)" d="M 166.238933 307.909893 
L 169.940814 307.909893 
L 169.940814 20.907046 
L 166.238933 20.907046 
z
" style="fill:#444488;stroke:#444488;stroke-linejoin:miter;"/>
   </g>
   <g id="patch_31">
    <path clip-path="url(#p5bcde5bcfc)" d="M 169.940814 307.909893 
L 173.642694 307.909893 
L 173.642694 30.30439 
L 169.940814 30.30439 
z
" style="fill:#444488;stroke:#444488;stroke-linejoin:miter;"/>
   </g>
   <g id="patch_32">
    <path clip-path="url(#p5bcde5bcfc)" d="M 173.642694 307.909893 
L 177.344575 307.909893 
L 177.344575 39.546762 
L 173.642694 39.546762 
z
" style="fill:#444488;stroke:#444488;stroke-linejoin:miter;"/>
   </g>
   <g id="patch_33">
    <path clip-path="url(#p5bcde5bcfc)" d="M 177.344575 307.909893 
L 181.046456 307.909893 
L 181.046456 53.230237 
L 177.344575 53.230237 
z
" style="fill:#444488;stroke:#444488;stroke-linejoin:miter;"/>
   </g>
   <g id="patch_34">
    <path clip-path="url(#p5bcde5bcfc)" d="M 181.046456 307.909893 
L 184.748337 307.909893 
L 184.748337 69.373179 
L 181.046456 69.373179 
z
" style="fill:#444488;stroke:#444488;stroke-linejoin:miter;"/>
   </g>
   <g id="patch_35">
    <path clip-path="url(#p5bcde5bcfc)" d="M 184.748337 307.909893 
L 188.450218 307.909893 
L 188.450218 85.5276 
L 184.748337 85.5276 
z
" style="fill:#444488;stroke:#444488;stroke-linejoin:miter;"/>
   </g>
   <g id="patch_36">
    <path clip-path="url(#p5bcde5bcfc)" d="M 188.450218 307.909893 
L 192.152099 307.909893 
L 192.152099 105.395615 
L 188.450218 105.395615 
z
" style="fill:#444488;stroke:#444488;stroke-linejoin:miter;"/>
   </g>
   <g id="patch_37">
    <path clip-path="url(#p5bcde5bcfc)" d="M 192.152099 307.909893 
L 195.85398 307.909893 
L 195.85398 122.458345 
L 192.152099 122.458345 
z
" style="fill:#444488;stroke:#444488;stroke-linejoin:miter;"/>
   </g>
   <g id="patch_38">
    <path clip-path="url(#p5bcde5bcfc)" d="M 195.85398 307.909893 
L 199.555861 307.909893 
L 199.555861 139.357494 
L 195.85398 139.357494 
z
" style="fill:#444488;stroke:#444488;stroke-linejoin:miter;"/>
   </g>
   <g id="patch_39">
    <path clip-path="url(#p5bcde5bcfc)" d="M 199.555861 307.909893 
L 203.257742 307.909893 
L 203.257742 157.365842 
L 199.555861 157.365842 
z
" style="fill:#444488;stroke:#444488;stroke-linejoin:miter;"/>
   </g>
   <g id="patch_40">
    <path clip-path="url(#p5bcde5bcfc)" d="M 203.257742 307.909893 
L 206.959623 307.909893 
L 206.959623 173.860341 
L 203.257742 173.860341 
z
" style="fill:#444488;stroke:#444488;stroke-linejoin:miter;"/>
   </g>
   <g id="patch_41">
    <path clip-path="url(#p5bcde5bcfc)" d="M 206.959623 307.909893 
L 210.661503 307.909893 
L 210.661503 189.113627 
L 206.959623 189.113627 
z
" style="fill:#444488;stroke:#444488;stroke-linejoin:miter;"/>
   </g>
   <g id="patch_42">
    <path clip-path="url(#p5bcde5bcfc)" d="M 210.661503 307.909893 
L 214.363384 307.909893 
L 214.363384 203.494477 
L 210.661503 203.494477 
z
" style="fill:#444488;stroke:#444488;stroke-linejoin:miter;"/>
   </g>
   <g id="patch_43">
    <path clip-path="url(#p5bcde5bcfc)" d="M 214.363384 307.909893 
L 218.065265 307.909893 
L 218.065265 216.473402 
L 214.363384 216.473402 
z
" style="fill:#444488;stroke:#444488;stroke-linejoin:miter;"/>
   </g>
   <g id="patch_44">
    <path clip-path="url(#p5bcde5bcfc)" d="M 218.065265 307.909893 
L 221.767146 307.909893 
L 221.767146 228.957277 
L 218.065265 228.957277 
z
" style="fill:#444488;stroke:#444488;stroke-linejoin:miter;"/>
   </g>
   <g id="patch_45">
    <path clip-path="url(#p5bcde5bcfc)" d="M 221.767146 307.909893 
L 225.469027 307.909893 
L 225.469027 239.425078 
L 221.767146 239.425078 
z
" style="fill:#444488;stroke:#444488;stroke-linejoin:miter;"/>
   </g>
   <g id="patch_46">
    <path clip-path="url(#p5bcde5bcfc)" d="M 225.469027 307.909893 
L 229.170908 307.909893 
L 229.170908 248.724847 
L 225.469027 248.724847 
z
" style="fill:#444488;stroke:#444488;stroke-linejoin:miter;"/>
   </g>
   <g id="patch_47">
    <path clip-path="url(#p5bcde5bcfc)" d="M 229.170908 307.909893 
L 232.872789 307.909893 
L 232.872789 257.411902 
L 229.170908 257.411902 
z
" style="fill:#444488;stroke:#444488;stroke-linejoin:miter;"/>
   </g>
   <g id="patch_48">
    <path clip-path="url(#p5bcde5bcfc)" d="M 232.872789 307.909893 
L 236.57467 307.909893 
L 236.57467 264.216332 
L 232.872789 264.216332 
z
" style="fill:#444488;stroke:#444488;stroke-linejoin:miter;"/>
   </g>
   <g id="patch_49">
    <path clip-path="url(#p5bcde5bcfc)" d="M 236.57467 307.909893 
L 240.276551 307.909893 
L 240.276551 270.352084 
L 236.57467 270.352084 
z
" style="fill:#444488;stroke:#444488;stroke-linejoin:miter;"/>
   </g>
   <g id="patch_50">
    <path clip-path="url(#p5bcde5bcfc)" d="M 240.276551 307.909893 
L 243.978432 307.909893 
L 243.978432 275.787592 
L 240.276551 275.787592 
z
" style="fill:#444488;stroke:#444488;stroke-linejoin:miter;"/>
   </g>
   <g id="patch_51">
    <path clip-path="url(#p5bcde5bcfc)" d="M 243.978432 307.909893 
L 247.680312 307.909893 
L 247.680312 280.587427 
L 243.978432 280.587427 
z
" style="fill:#444488;stroke:#444488;stroke-linejoin:miter;"/>
   </g>
   <g id="patch_52">
    <path clip-path="url(#p5bcde5bcfc)" d="M 247.680312 307.909893 
L 251.382193 307.909893 
L 251.382193 284.458863 
L 247.680312 284.458863 
z
" style="fill:#444488;stroke:#444488;stroke-linejoin:miter;"/>
   </g>
   <g id="patch_53">
    <path clip-path="url(#p5bcde5bcfc)" d="M 251.382193 307.909893 
L 255.084074 307.909893 
L 255.084074 288.364737 
L 251.382193 288.364737 
z
" style="fill:#444488;stroke:#444488;stroke-linejoin:miter;"/>
   </g>
   <g id="patch_54">
    <path clip-path="url(#p5bcde5bcfc)" d="M 255.084074 307.909893 
L 258.785955 307.909893 
L 258.785955 291.428309 
L 255.084074 291.428309 
z
" style="fill:#444488;stroke:#444488;stroke-linejoin:miter;"/>
   </g>
   <g id="patch_55">
    <path clip-path="url(#p5bcde5bcfc)" d="M 258.785955 307.909893 
L 262.487836 307.909893 
L 262.487836 293.886341 
L 258.785955 293.886341 
z
" style="fill:#444488;stroke:#444488;stroke-linejoin:miter;"/>
   </g>
   <g id="patch_56">
    <path clip-path="url(#p5bcde5bcfc)" d="M 262.487836 307.909893 
L 266.189717 307.909893 
L 266.189717 295.929678 
L 262.487836 295.929678 
z
" style="fill:#444488;stroke:#444488;stroke-linejoin:miter;"/>
   </g>
   <g id="patch_57">
    <path clip-path="url(#p5bcde5bcfc)" d="M 266.189717 307.909893 
L 269.891598 307.909893 
L 269.891598 297.803695 
L 266.189717 297.803695 
z
" style="fill:#444488;stroke:#444488;stroke-linejoin:miter;"/>
   </g>
   <g id="patch_58">
    <path clip-path="url(#p5bcde5bcfc)" d="M 269.891598 307.909893 
L 273.593479 307.909893 
L 273.593479 299.230013 
L 269.891598 299.230013 
z
" style="fill:#444488;stroke:#444488;stroke-linejoin:miter;"/>
   </g>
   <g id="patch_59">
    <path clip-path="url(#p5bcde5bcfc)" d="M 273.593479 307.909893 
L 277.29536 307.909893 
L 277.29536 300.652027 
L 273.593479 300.652027 
z
" style="fill:#444488;stroke:#444488;stroke-linejoin:miter;"/>
   </g>
   <g id="patch_60">
    <path clip-path="url(#p5bcde5bcfc)" d="M 277.29536 307.909893 
L 280.997241 307.909893 
L 280.997241 301.741137 
L 277.29536 301.741137 
z
" style="fill:#444488;stroke:#444488;stroke-linejoin:miter;"/>
   </g>
   <g id="patch_61">
    <path clip-path="url(#p5bcde5bcfc)" d="M 280.997241 307.909893 
L 284.699121 307.909893 
L 284.699121 302.810159 
L 280.997241 302.810159 
z
" style="fill:#444488;stroke:#444488;stroke-linejoin:miter;"/>
   </g>
   <g id="patch_62">
    <path clip-path="url(#p5bcde5bcfc)" d="M 284.699121 307.909893 
L 288.401002 307.909893 
L 288.401002 303.849047 
L 284.699121 303.849047 
z
" style="fill:#444488;stroke:#444488;stroke-linejoin:miter;"/>
   </g>
   <g id="patch_63">
    <path clip-path="url(#p5bcde5bcfc)" d="M 288.401002 307.909893 
L 292.102883 307.909893 
L 292.102883 304.364186 
L 288.401002 304.364186 
z
" style="fill:#444488;stroke:#444488;stroke-linejoin:miter;"/>
   </g>
   <g id="patch_64">
    <path clip-path="url(#p5bcde5bcfc)" d="M 292.102883 307.909893 
L 295.804764 307.909893 
L 295.804764 305.179225 
L 292.102883 305.179225 
z
" style="fill:#444488;stroke:#444488;stroke-linejoin:miter;"/>
   </g>
   <g id="patch_65">
    <path clip-path="url(#p5bcde5bcfc)" d="M 295.804764 307.909893 
L 299.506645 307.909893 
L 299.506645 305.827813 
L 295.804764 305.827813 
z
" style="fill:#444488;stroke:#444488;stroke-linejoin:miter;"/>
   </g>
   <g id="patch_66">
    <path clip-path="url(#p5bcde5bcfc)" d="M 299.506645 307.909893 
L 303.208526 307.909893 
L 303.208526 306.18511 
L 299.506645 306.18511 
z
" style="fill:#444488;stroke:#444488;stroke-linejoin:miter;"/>
   </g>
   <g id="patch_67">
    <path clip-path="url(#p5bcde5bcfc)" d="M 303.208526 307.909893 
L 306.910407 307.909893 
L 306.910407 306.734687 
L 303.208526 306.734687 
z
" style="fill:#444488;stroke:#444488;stroke-linejoin:miter;"/>
   </g>
   <g id="patch_68">
    <path clip-path="url(#p5bcde5bcfc)" d="M 306.910407 307.909893 
L 310.612288 307.909893 
L 310.612288 306.845177 
L 306.910407 306.845177 
z
" style="fill:#444488;stroke:#444488;stroke-linejoin:miter;"/>
   </g>
   <g id="patch_69">
    <path clip-path="url(#p5bcde5bcfc)" d="M 310.612288 307.909893 
L 314.314169 307.909893 
L 314.314169 306.852351 
L 310.612288 306.852351 
z
" style="fill:#444488;stroke:#444488;stroke-linejoin:miter;"/>
   </g>
   <g id="patch_70">
    <path clip-path="url(#p5bcde5bcfc)" d="M 314.314169 307.909893 
L 318.016049 307.909893 
L 318.016049 307.07333 
L 314.314169 307.07333 
z
" style="fill:#444488;stroke:#444488;stroke-linejoin:miter;"/>
   </g>
   <g id="patch_71">
    <path clip-path="url(#p5bcde5bcfc)" d="M 318.016049 307.909893 
L 321.71793 307.909893 
L 321.71793 307.389015 
L 318.016049 307.389015 
z
" style="fill:#444488;stroke:#444488;stroke-linejoin:miter;"/>
   </g>
   <g id="patch_72">
    <path clip-path="url(#p5bcde5bcfc)" d="M 321.71793 307.909893 
L 325.419811 307.909893 
L 325.419811 307.465066 
L 321.71793 307.465066 
z
" style="fill:#444488;stroke:#444488;stroke-linejoin:miter;"/>
   </g>
   <g id="patch_73">
    <path clip-path="url(#p5bcde5bcfc)" d="M 325.419811 307.909893 
L 329.121692 307.909893 
L 329.121692 307.565511 
L 325.419811 307.565511 
z
" style="fill:#444488;stroke:#444488;stroke-linejoin:miter;"/>
   </g>
   <g id="patch_74">
    <path clip-path="url(#p5bcde5bcfc)" d="M 329.121692 307.909893 
L 332.823573 307.909893 
L 332.823573 307.654476 
L 329.121692 307.654476 
z
" style="fill:#444488;stroke:#444488;stroke-linejoin:miter;"/>
   </g>
   <g id="patch_75">
    <path clip-path="url(#p5bcde5bcfc)" d="M 332.823573 307.909893 
L 336.525454 307.909893 
L 336.525454 307.716178 
L 332.823573 307.716178 
z
" style="fill:#444488;stroke:#444488;stroke-linejoin:miter;"/>
   </g>
   <g id="patch_76">
    <path clip-path="url(#p5bcde5bcfc)" d="M 336.525454 307.909893 
L 340.227335 307.909893 
L 340.227335 307.773575 
L 336.525454 307.773575 
z
" style="fill:#444488;stroke:#444488;stroke-linejoin:miter;"/>
   </g>
   <g id="patch_77">
    <path clip-path="url(#p5bcde5bcfc)" d="M 340.227335 307.909893 
L 343.929216 307.909893 
L 343.929216 307.802274 
L 340.227335 307.802274 
z
" style="fill:#444488;stroke:#444488;stroke-linejoin:miter;"/>
   </g>
   <g id="patch_78">
    <path clip-path="url(#p5bcde5bcfc)" d="M 343.929216 307.909893 
L 347.631097 307.909893 
L 347.631097 307.842452 
L 343.929216 307.842452 
z
" style="fill:#444488;stroke:#444488;stroke-linejoin:miter;"/>
   </g>
   <g id="patch_79">
    <path clip-path="url(#p5bcde5bcfc)" d="M 347.631097 307.909893 
L 351.332978 307.909893 
L 351.332978 307.862541 
L 347.631097 307.862541 
z
" style="fill:#444488;stroke:#444488;stroke-linejoin:miter;"/>
   </g>
   <g id="patch_80">
    <path clip-path="url(#p5bcde5bcfc)" d="M 351.332978 307.909893 
L 355.034858 307.909893 
L 355.034858 307.868281 
L 351.332978 307.868281 
z
" style="fill:#444488;stroke:#444488;stroke-linejoin:miter;"/>
   </g>
   <g id="patch_81">
    <path clip-path="url(#p5bcde5bcfc)" d="M 355.034858 307.909893 
L 358.736739 307.909893 
L 358.736739 307.87402 
L 355.034858 307.87402 
z
" style="fill:#444488;stroke:#444488;stroke-linejoin:miter;"/>
   </g>
   <g id="patch_82">
    <path clip-path="url(#p5bcde5bcfc)" d="M 358.736739 307.909893 
L 362.43862 307.909893 
L 362.43862 307.88263 
L 358.736739 307.88263 
z
" style="fill:#444488;stroke:#444488;stroke-linejoin:miter;"/>
   </g>
   <g id="patch_83">
    <path clip-path="url(#p5bcde5bcfc)" d="M 362.43862 307.909893 
L 366.140501 307.909893 
L 366.140501 307.886935 
L 362.43862 307.886935 
z
" style="fill:#444488;stroke:#444488;stroke-linejoin:miter;"/>
   </g>
   <g id="patch_84">
    <path clip-path="url(#p5bcde5bcfc)" d="M 366.140501 307.909893 
L 369.842382 307.909893 
L 369.842382 307.895544 
L 366.140501 307.895544 
z
" style="fill:#444488;stroke:#444488;stroke-linejoin:miter;"/>
   </g>
   <g id="patch_85">
    <path clip-path="url(#p5bcde5bcfc)" d="M 369.842382 307.909893 
L 373.544263 307.909893 
L 373.544263 307.894109 
L 369.842382 307.894109 
z
" style="fill:#444488;stroke:#444488;stroke-linejoin:miter;"/>
   </g>
   <g id="patch_86">
    <path clip-path="url(#p5bcde5bcfc)" d="M 373.544263 307.909893 
L 377.246144 307.909893 
L 377.246144 307.902719 
L 373.544263 307.902719 
z
" style="fill:#444488;stroke:#444488;stroke-linejoin:miter;"/>
   </g>
   <g id="patch_87">
    <path clip-path="url(#p5bcde5bcfc)" d="M 377.246144 307.909893 
L 380.948025 307.909893 
L 380.948025 307.902719 
L 377.246144 307.902719 
z
" style="fill:#444488;stroke:#444488;stroke-linejoin:miter;"/>
   </g>
   <g id="patch_88">
    <path clip-path="url(#p5bcde5bcfc)" d="M 380.948025 307.909893 
L 384.649906 307.909893 
L 384.649906 307.904154 
L 380.948025 307.904154 
z
" style="fill:#444488;stroke:#444488;stroke-linejoin:miter;"/>
   </g>
   <g id="patch_89">
    <path clip-path="url(#p5bcde5bcfc)" d="M 384.649906 307.909893 
L 388.351787 307.909893 
L 388.351787 307.905589 
L 384.649906 307.905589 
z
" style="fill:#444488;stroke:#444488;stroke-linejoin:miter;"/>
   </g>
   <g id="patch_90">
    <path clip-path="url(#p5bcde5bcfc)" d="M 388.351787 307.909893 
L 392.053667 307.909893 
L 392.053667 307.907024 
L 388.351787 307.907024 
z
" style="fill:#444488;stroke:#444488;stroke-linejoin:miter;"/>
   </g>
   <g id="patch_91">
    <path clip-path="url(#p5bcde5bcfc)" d="M 392.053667 307.909893 
L 395.755548 307.909893 
L 395.755548 307.908459 
L 392.053667 307.908459 
z
" style="fill:#444488;stroke:#444488;stroke-linejoin:miter;"/>
   </g>
   <g id="patch_92">
    <path clip-path="url(#p5bcde5bcfc)" d="M 395.755548 307.909893 
L 399.457429 307.909893 
L 399.457429 307.908459 
L 395.755548 307.908459 
z
" style="fill:#444488;stroke:#444488;stroke-linejoin:miter;"/>
   </g>
   <g id="patch_93">
    <path clip-path="url(#p5bcde5bcfc)" d="M 399.457429 307.909893 
L 403.15931 307.909893 
L 403.15931 307.907024 
L 399.457429 307.907024 
z
" style="fill:#444488;stroke:#444488;stroke-linejoin:miter;"/>
   </g>
   <g id="patch_94">
    <path clip-path="url(#p5bcde5bcfc)" d="M 403.15931 307.909893 
L 406.861191 307.909893 
L 406.861191 307.908459 
L 403.15931 307.908459 
z
" style="fill:#444488;stroke:#444488;stroke-linejoin:miter;"/>
   </g>
   <g id="patch_95">
    <path clip-path="url(#p5bcde5bcfc)" d="M 406.861191 307.909893 
L 410.563072 307.909893 
L 410.563072 307.909893 
L 406.861191 307.909893 
z
" style="fill:#444488;stroke:#444488;stroke-linejoin:miter;"/>
   </g>
   <g id="patch_96">
    <path clip-path="url(#p5bcde5bcfc)" d="M 410.563072 307.909893 
L 414.264953 307.909893 
L 414.264953 307.909893 
L 410.563072 307.909893 
z
" style="fill:#444488;stroke:#444488;stroke-linejoin:miter;"/>
   </g>
   <g id="patch_97">
    <path clip-path="url(#p5bcde5bcfc)" d="M 414.264953 307.909893 
L 417.966834 307.909893 
L 417.966834 307.909893 
L 414.264953 307.909893 
z
" style="fill:#444488;stroke:#444488;stroke-linejoin:miter;"/>
   </g>
   <g id="patch_98">
    <path clip-path="url(#p5bcde5bcfc)" d="M 417.966834 307.909893 
L 421.668715 307.909893 
L 421.668715 307.908459 
L 417.966834 307.908459 
z
" style="fill:#444488;stroke:#444488;stroke-linejoin:miter;"/>
   </g>
   <g id="patch_99">
    <path clip-path="url(#p5bcde5bcfc)" d="M 421.668715 307.909893 
L 425.370596 307.909893 
L 425.370596 307.909893 
L 421.668715 307.909893 
z
" style="fill:#444488;stroke:#444488;stroke-linejoin:miter;"/>
   </g>
   <g id="patch_100">
    <path clip-path="url(#p5bcde5bcfc)" d="M 425.370596 307.909893 
L 429.072476 307.909893 
L 429.072476 307.909893 
L 425.370596 307.909893 
z
" style="fill:#444488;stroke:#444488;stroke-linejoin:miter;"/>
   </g>
   <g id="patch_101">
    <path clip-path="url(#p5bcde5bcfc)" d="M 429.072476 307.909893 
L 432.774357 307.909893 
L 432.774357 307.909893 
L 429.072476 307.909893 
z
" style="fill:#444488;stroke:#444488;stroke-linejoin:miter;"/>
   </g>
   <g id="patch_102">
    <path clip-path="url(#p5bcde5bcfc)" d="M 432.774357 307.909893 
L 436.476238 307.909893 
L 436.476238 307.908459 
L 432.774357 307.908459 
z
" style="fill:#444488;stroke:#444488;stroke-linejoin:miter;"/>
   </g>
   <g id="matplotlib.axis_1">
    <g id="xtick_1">
     <g id="line2d_1">
      <defs>
       <path d="M 0 0 
L 0 3.5 
" id="m6208a06d56" style="stroke:#000000;stroke-width:0.8;"/>
      </defs>
      <g>
       <use style="stroke:#000000;stroke-width:0.8;" x="66.288148" xlink:href="#m6208a06d56" y="307.909893"/>
      </g>
     </g>
     <g id="text_1">
      <!-- 1 -->
      <defs>
       <path d="M 28.40625 67 
L 26.5 67 
C 21.09375 61.5625 14.796875 60.78125 8.40625 60.78125 
L 8.40625 55 
C 11.296875 55 16 55 20.703125 57.296875 
L 20.703125 5.765625 
L 8.90625 5.765625 
L 8.90625 0 
L 40.203125 0 
L 40.203125 5.765625 
L 28.40625 5.765625 
z
" id="CMSS17-49"/>
      </defs>
      <g transform="translate(62.386155 325.979482)scale(0.16 -0.16)">
       <use transform="scale(0.996264)" xlink:href="#CMSS17-49"/>
      </g>
     </g>
    </g>
    <g id="xtick_2">
     <g id="line2d_2">
      <g>
       <use style="stroke:#000000;stroke-width:0.8;" x="114.009304" xlink:href="#m6208a06d56" y="307.909893"/>
      </g>
     </g>
     <g id="text_2">
      <!-- 2 -->
      <defs>
       <path d="M 25.796875 21.203125 
C 28.59375 24.078125 32.796875 27.5625 35.703125 31.046875 
C 38.5 34.4375 42.203125 39.234375 42.203125 46.203125 
C 42.203125 57.140625 34.796875 67 22.203125 67 
C 12.296875 67 6.59375 60.828125 3.90625 51.15625 
L 7.796875 45.765625 
C 10 54.84375 13.09375 60.625 20.90625 60.625 
C 29.5 60.625 34.296875 53.640625 34.296875 45.96875 
C 34.296875 36.796875 27.296875 29.703125 22 24.421875 
C 16.09375 18.546875 10.296875 12.5625 4.703125 6.375 
L 4.703125 0 
L 42.203125 0 
L 42.203125 6.765625 
L 25.203125 6.765625 
C 24 6.765625 22.796875 6.765625 21.59375 6.765625 
L 11.59375 6.765625 
L 11.59375 6.859375 
z
" id="CMSS17-50"/>
      </defs>
      <g transform="translate(110.10731 325.979482)scale(0.16 -0.16)">
       <use transform="scale(0.996264)" xlink:href="#CMSS17-50"/>
      </g>
     </g>
    </g>
    <g id="xtick_3">
     <g id="line2d_3">
      <g>
       <use style="stroke:#000000;stroke-width:0.8;" x="161.730459" xlink:href="#m6208a06d56" y="307.909893"/>
      </g>
     </g>
     <g id="text_3">
      <!-- 3 -->
      <defs>
       <path d="M 15.703125 31.640625 
L 22.5 31.640625 
C 31.90625 31.640625 34.59375 23.546875 34.59375 17.90625 
C 34.59375 10.203125 30.203125 4.171875 23 4.171875 
C 17.40625 4.171875 9.5 6.9375 5 14.25 
C 4.296875 10.796875 4.296875 10.59375 3.90625 8.21875 
C 8.59375 1.375 16.203125 -2 23.203125 -2 
C 34.59375 -2 43 7.390625 43 17.78125 
C 43 25.59375 37.5 32.140625 30 34.609375 
C 36 37.875 40.40625 44 40.40625 51.140625 
C 40.40625 59.453125 32.703125 66.078125 23.296875 66.078125 
C 14.703125 66.078125 8 60.8125 5.203125 55.15625 
C 5.90625 54.1875 7.703125 51.3125 8.59375 49.828125 
C 10.796875 55.65625 16.5 60 23.203125 60 
C 28.796875 60 32.5 56.359375 32.5 51.109375 
C 32.5 45.671875 29 39.734375 23.09375 38.359375 
C 22.703125 38.359375 16.5 37.765625 15.703125 37.671875 
z
" id="CMSS17-51"/>
      </defs>
      <g transform="translate(157.828466 325.979482)scale(0.16 -0.16)">
       <use transform="scale(0.996264)" xlink:href="#CMSS17-51"/>
      </g>
     </g>
    </g>
    <g id="xtick_4">
     <g id="line2d_4">
      <g>
       <use style="stroke:#000000;stroke-width:0.8;" x="209.451615" xlink:href="#m6208a06d56" y="307.909893"/>
      </g>
     </g>
     <g id="text_4">
      <!-- 4 -->
      <defs>
       <path d="M 35.203125 17 
L 44.296875 17 
L 44.296875 23.078125 
L 35.203125 23.078125 
L 35.203125 65.5 
L 26.40625 65.5 
L 2.59375 23.078125 
L 2.59375 17 
L 27.296875 17 
L 27.296875 0 
L 35.203125 0 
z
M 10.296875 23.078125 
C 16.09375 33.234375 27.59375 53.734375 27.59375 60.703125 
L 27.59375 23.078125 
z
" id="CMSS17-52"/>
      </defs>
      <g transform="translate(205.549621 325.979482)scale(0.16 -0.16)">
       <use transform="scale(0.996264)" xlink:href="#CMSS17-52"/>
      </g>
     </g>
    </g>
    <g id="xtick_5">
     <g id="line2d_5">
      <g>
       <use style="stroke:#000000;stroke-width:0.8;" x="257.17277" xlink:href="#m6208a06d56" y="307.909893"/>
      </g>
     </g>
     <g id="text_5">
      <!-- 5 -->
      <defs>
       <path d="M 14.59375 58.625 
L 39.09375 58.625 
L 39.09375 65 
L 7.296875 65 
L 7.296875 27.828125 
L 14 27.828125 
C 15.796875 31.96875 19.5 35 24.296875 35 
C 28.796875 35 33.796875 31.078125 33.796875 19.78125 
C 33.796875 7.703125 26.703125 4.171875 21.5 4.171875 
C 15.09375 4.171875 9.203125 8 6.59375 13.296875 
L 3.40625 7.796875 
C 8 0.765625 15.5 -2 21.5 -2 
C 33.09375 -2 42.203125 7.765625 42.203125 19.578125 
C 42.203125 31.71875 34.09375 41.078125 24.40625 41.078125 
C 20.90625 41.078125 17.5 39.890625 14.59375 37.484375 
z
" id="CMSS17-53"/>
      </defs>
      <g transform="translate(253.270777 325.979482)scale(0.16 -0.16)">
       <use transform="scale(0.996264)" xlink:href="#CMSS17-53"/>
      </g>
     </g>
    </g>
    <g id="xtick_6">
     <g id="line2d_6">
      <g>
       <use style="stroke:#000000;stroke-width:0.8;" x="304.893926" xlink:href="#m6208a06d56" y="307.909893"/>
      </g>
     </g>
     <g id="text_6">
      <!-- 6 -->
      <defs>
       <path d="M 39 64.078125 
C 34.796875 65.78125 31.796875 66.078125 29 66.078125 
C 16 66.078125 3.90625 52.625 3.90625 31.34375 
C 3.90625 4.140625 15.40625 -2 23.59375 -2 
C 28.09375 -2 32.59375 -0.609375 36.90625 4.375 
C 41.296875 9.640625 43 14.03125 43 21.703125 
C 43 34.046875 36.90625 45 27.796875 45 
C 21.203125 45 15.5 41.515625 12 37.125 
C 13 50.90625 19.59375 60 29.09375 60 
C 31.703125 60 35.09375 59.625 39 57.96875 
z
M 12.09375 21.390625 
C 12.09375 22.1875 12.09375 22.6875 12.203125 24.1875 
C 12.203125 31.953125 16.703125 38.921875 24 38.921875 
C 28.703125 38.921875 31.09375 36.4375 32.90625 33.359375 
C 35 29.46875 35.09375 25.78125 35.09375 21.6875 
C 35.09375 17.8125 35.09375 13.921875 32.796875 9.953125 
C 30.90625 6.859375 28.40625 4.171875 23.59375 4.171875 
C 14.09375 4.171875 12.5 17.40625 12.09375 21.390625 
z
" id="CMSS17-54"/>
      </defs>
      <g transform="translate(300.991932 325.979482)scale(0.16 -0.16)">
       <use transform="scale(0.996264)" xlink:href="#CMSS17-54"/>
      </g>
     </g>
    </g>
    <g id="xtick_7">
     <g id="line2d_7">
      <g>
       <use style="stroke:#000000;stroke-width:0.8;" x="352.615081" xlink:href="#m6208a06d56" y="307.909893"/>
      </g>
     </g>
     <g id="text_7">
      <!-- 7 -->
      <defs>
       <path d="M 21.703125 59 
C 22.90625 59 24.09375 59 25.296875 59 
L 36.796875 59 
C 22.5 42.359375 14.296875 21.328125 14.296875 -0.5 
L 22.296875 -0.5 
C 22.296875 20.671875 29.296875 42.125 43 59.296875 
L 43 65.765625 
L 3.90625 65.765625 
L 3.90625 59 
z
" id="CMSS17-55"/>
      </defs>
      <g transform="translate(348.713088 325.979482)scale(0.16 -0.16)">
       <use transform="scale(0.996264)" xlink:href="#CMSS17-55"/>
      </g>
     </g>
    </g>
    <g id="xtick_8">
     <g id="line2d_8">
      <g>
       <use style="stroke:#000000;stroke-width:0.8;" x="400.336237" xlink:href="#m6208a06d56" y="307.909893"/>
      </g>
     </g>
     <g id="text_8">
      <!-- 8 -->
      <defs>
       <path d="M 30.203125 34.71875 
C 37.796875 37.1875 41.703125 43.125 41.703125 48.96875 
C 41.703125 58.15625 33.703125 66.078125 23.5 66.078125 
C 12.90625 66.078125 5.203125 57.9375 5.203125 49.125 
C 5.203125 43.4375 9 37.546875 16.703125 35.015625 
C 6.90625 31.203125 3.90625 23.625 3.90625 17.953125 
C 3.90625 6.96875 12.796875 -2 23.40625 -2 
C 34.40625 -2 43 7.109375 43 17.78125 
C 43 24.328125 39.09375 31.25 30.203125 34.71875 
z
M 23.5 38 
C 16.796875 38 12.296875 42.375 12.296875 49 
C 12.296875 55.71875 16.796875 60 23.5 60 
C 29.703125 60 34.59375 56.109375 34.59375 49 
C 34.59375 41.984375 29.796875 38 23.5 38 
z
M 23.5 4.171875 
C 17.796875 4.171875 11.703125 8.078125 11.703125 18.0625 
C 11.703125 28.328125 18.5 31.921875 23.40625 31.921875 
C 28.796875 31.921875 35.203125 28.125 35.203125 18.0625 
C 35.203125 7.671875 28.59375 4.171875 23.5 4.171875 
z
" id="CMSS17-56"/>
      </defs>
      <g transform="translate(396.434243 325.979482)scale(0.16 -0.16)">
       <use transform="scale(0.996264)" xlink:href="#CMSS17-56"/>
      </g>
     </g>
    </g>
    <g id="xtick_9">
     <g id="line2d_9">
      <defs>
       <path d="M 0 0 
L 0 2 
" id="m47823e4311" style="stroke:#000000;stroke-width:0.6;"/>
      </defs>
      <g>
       <use style="stroke:#000000;stroke-width:0.6;" x="75.83238" xlink:href="#m47823e4311" y="307.909893"/>
      </g>
     </g>
    </g>
    <g id="xtick_10">
     <g id="line2d_10">
      <g>
       <use style="stroke:#000000;stroke-width:0.6;" x="85.376611" xlink:href="#m47823e4311" y="307.909893"/>
      </g>
     </g>
    </g>
    <g id="xtick_11">
     <g id="line2d_11">
      <g>
       <use style="stroke:#000000;stroke-width:0.6;" x="94.920842" xlink:href="#m47823e4311" y="307.909893"/>
      </g>
     </g>
    </g>
    <g id="xtick_12">
     <g id="line2d_12">
      <g>
       <use style="stroke:#000000;stroke-width:0.6;" x="104.465073" xlink:href="#m47823e4311" y="307.909893"/>
      </g>
     </g>
    </g>
    <g id="xtick_13">
     <g id="line2d_13">
      <g>
       <use style="stroke:#000000;stroke-width:0.6;" x="123.553535" xlink:href="#m47823e4311" y="307.909893"/>
      </g>
     </g>
    </g>
    <g id="xtick_14">
     <g id="line2d_14">
      <g>
       <use style="stroke:#000000;stroke-width:0.6;" x="133.097766" xlink:href="#m47823e4311" y="307.909893"/>
      </g>
     </g>
    </g>
    <g id="xtick_15">
     <g id="line2d_15">
      <g>
       <use style="stroke:#000000;stroke-width:0.6;" x="142.641997" xlink:href="#m47823e4311" y="307.909893"/>
      </g>
     </g>
    </g>
    <g id="xtick_16">
     <g id="line2d_16">
      <g>
       <use style="stroke:#000000;stroke-width:0.6;" x="152.186228" xlink:href="#m47823e4311" y="307.909893"/>
      </g>
     </g>
    </g>
    <g id="xtick_17">
     <g id="line2d_17">
      <g>
       <use style="stroke:#000000;stroke-width:0.6;" x="171.27469" xlink:href="#m47823e4311" y="307.909893"/>
      </g>
     </g>
    </g>
    <g id="xtick_18">
     <g id="line2d_18">
      <g>
       <use style="stroke:#000000;stroke-width:0.6;" x="180.818922" xlink:href="#m47823e4311" y="307.909893"/>
      </g>
     </g>
    </g>
    <g id="xtick_19">
     <g id="line2d_19">
      <g>
       <use style="stroke:#000000;stroke-width:0.6;" x="190.363153" xlink:href="#m47823e4311" y="307.909893"/>
      </g>
     </g>
    </g>
    <g id="xtick_20">
     <g id="line2d_20">
      <g>
       <use style="stroke:#000000;stroke-width:0.6;" x="199.907384" xlink:href="#m47823e4311" y="307.909893"/>
      </g>
     </g>
    </g>
    <g id="xtick_21">
     <g id="line2d_21">
      <g>
       <use style="stroke:#000000;stroke-width:0.6;" x="218.995846" xlink:href="#m47823e4311" y="307.909893"/>
      </g>
     </g>
    </g>
    <g id="xtick_22">
     <g id="line2d_22">
      <g>
       <use style="stroke:#000000;stroke-width:0.6;" x="228.540077" xlink:href="#m47823e4311" y="307.909893"/>
      </g>
     </g>
    </g>
    <g id="xtick_23">
     <g id="line2d_23">
      <g>
       <use style="stroke:#000000;stroke-width:0.6;" x="238.084308" xlink:href="#m47823e4311" y="307.909893"/>
      </g>
     </g>
    </g>
    <g id="xtick_24">
     <g id="line2d_24">
      <g>
       <use style="stroke:#000000;stroke-width:0.6;" x="247.628539" xlink:href="#m47823e4311" y="307.909893"/>
      </g>
     </g>
    </g>
    <g id="xtick_25">
     <g id="line2d_25">
      <g>
       <use style="stroke:#000000;stroke-width:0.6;" x="266.717001" xlink:href="#m47823e4311" y="307.909893"/>
      </g>
     </g>
    </g>
    <g id="xtick_26">
     <g id="line2d_26">
      <g>
       <use style="stroke:#000000;stroke-width:0.6;" x="276.261232" xlink:href="#m47823e4311" y="307.909893"/>
      </g>
     </g>
    </g>
    <g id="xtick_27">
     <g id="line2d_27">
      <g>
       <use style="stroke:#000000;stroke-width:0.6;" x="285.805464" xlink:href="#m47823e4311" y="307.909893"/>
      </g>
     </g>
    </g>
    <g id="xtick_28">
     <g id="line2d_28">
      <g>
       <use style="stroke:#000000;stroke-width:0.6;" x="295.349695" xlink:href="#m47823e4311" y="307.909893"/>
      </g>
     </g>
    </g>
    <g id="xtick_29">
     <g id="line2d_29">
      <g>
       <use style="stroke:#000000;stroke-width:0.6;" x="314.438157" xlink:href="#m47823e4311" y="307.909893"/>
      </g>
     </g>
    </g>
    <g id="xtick_30">
     <g id="line2d_30">
      <g>
       <use style="stroke:#000000;stroke-width:0.6;" x="323.982388" xlink:href="#m47823e4311" y="307.909893"/>
      </g>
     </g>
    </g>
    <g id="xtick_31">
     <g id="line2d_31">
      <g>
       <use style="stroke:#000000;stroke-width:0.6;" x="333.526619" xlink:href="#m47823e4311" y="307.909893"/>
      </g>
     </g>
    </g>
    <g id="xtick_32">
     <g id="line2d_32">
      <g>
       <use style="stroke:#000000;stroke-width:0.6;" x="343.07085" xlink:href="#m47823e4311" y="307.909893"/>
      </g>
     </g>
    </g>
    <g id="xtick_33">
     <g id="line2d_33">
      <g>
       <use style="stroke:#000000;stroke-width:0.6;" x="362.159312" xlink:href="#m47823e4311" y="307.909893"/>
      </g>
     </g>
    </g>
    <g id="xtick_34">
     <g id="line2d_34">
      <g>
       <use style="stroke:#000000;stroke-width:0.6;" x="371.703543" xlink:href="#m47823e4311" y="307.909893"/>
      </g>
     </g>
    </g>
    <g id="xtick_35">
     <g id="line2d_35">
      <g>
       <use style="stroke:#000000;stroke-width:0.6;" x="381.247775" xlink:href="#m47823e4311" y="307.909893"/>
      </g>
     </g>
    </g>
    <g id="xtick_36">
     <g id="line2d_36">
      <g>
       <use style="stroke:#000000;stroke-width:0.6;" x="390.792006" xlink:href="#m47823e4311" y="307.909893"/>
      </g>
     </g>
    </g>
    <g id="xtick_37">
     <g id="line2d_37">
      <g>
       <use style="stroke:#000000;stroke-width:0.6;" x="409.880468" xlink:href="#m47823e4311" y="307.909893"/>
      </g>
     </g>
    </g>
    <g id="xtick_38">
     <g id="line2d_38">
      <g>
       <use style="stroke:#000000;stroke-width:0.6;" x="419.424699" xlink:href="#m47823e4311" y="307.909893"/>
      </g>
     </g>
    </g>
    <g id="xtick_39">
     <g id="line2d_39">
      <g>
       <use style="stroke:#000000;stroke-width:0.6;" x="428.96893" xlink:href="#m47823e4311" y="307.909893"/>
      </g>
     </g>
    </g>
    <g id="xtick_40">
     <g id="line2d_40">
      <g>
       <use style="stroke:#000000;stroke-width:0.6;" x="438.513161" xlink:href="#m47823e4311" y="307.909893"/>
      </g>
     </g>
    </g>
   </g>
   <g id="matplotlib.axis_2">
    <g id="ytick_1">
     <g id="line2d_41">
      <defs>
       <path d="M 0 0 
L -3.5 0 
" id="m4124b19f35" style="stroke:#000000;stroke-width:0.8;"/>
      </defs>
      <g>
       <use style="stroke:#000000;stroke-width:0.8;" x="48.884387" xlink:href="#m4124b19f35" y="307.909893"/>
      </g>
     </g>
     <g id="text_9">
      <!-- 0 -->
      <defs>
       <path d="M 43.09375 31.9375 
C 43.09375 37.578125 43 48.078125 38.90625 56.1875 
C 34.796875 64 28.203125 66.078125 23.5 66.078125 
C 16.703125 66.078125 10.90625 62.109375 7.90625 55.78125 
C 4.703125 49.15625 3.796875 42.328125 3.796875 31.9375 
C 3.796875 24.828125 4.09375 16.109375 7.703125 8.484375 
C 11.796875 0.078125 18.703125 -2 23.40625 -2 
C 29.59375 -2 35.59375 1.265625 39 8.09375 
C 42.5 15.21875 43.09375 23.03125 43.09375 31.9375 
z
M 23.40625 4.078125 
C 15.796875 4.078125 13.5 12.671875 12.796875 15.546875 
C 11.59375 20.46875 11.40625 25.21875 11.40625 33.03125 
C 11.40625 39.15625 11.40625 46.0625 13.296875 51.515625 
C 15.59375 57.828125 19.59375 60 23.40625 60 
C 30.796875 60 33.203125 52.6875 34 50.125 
C 35.5 44.890625 35.5 38.765625 35.5 33.03125 
C 35.5 23.84375 35.5 4.078125 23.40625 4.078125 
z
" id="CMSS17-48"/>
      </defs>
      <g transform="translate(34.0804 313.444688)scale(0.16 -0.16)">
       <use transform="scale(0.996264)" xlink:href="#CMSS17-48"/>
      </g>
     </g>
    </g>
    <g id="ytick_2">
     <g id="line2d_42">
      <g>
       <use style="stroke:#000000;stroke-width:0.8;" x="48.884387" xlink:href="#m4124b19f35" y="236.163486"/>
      </g>
     </g>
     <g id="text_10">
      <!-- 5e4 -->
      <defs>
       <path d="M 39.09375 21.515625 
C 39.09375 24.84375 38.90625 31.296875 35.703125 36.640625 
C 32.203125 42.390625 26.5 44 22.203125 44 
C 11.796875 44 3 34.1875 3 21.484375 
C 3 9.09375 12.09375 -1 23.59375 -1 
C 28.09375 -1 33.59375 0.296875 38.59375 3.875 
C 38.59375 4.28125 38.40625 6.46875 38.296875 6.5625 
C 38.296875 6.765625 38 9.84375 38 10.25 
C 33.203125 6.359375 27.703125 5.078125 23.703125 5.078125 
C 17.296875 5.078125 10.40625 10.421875 10.09375 21.515625 
z
M 10.90625 27 
C 12.203125 32.5625 16.59375 37.828125 22.203125 37.828125 
C 23.703125 37.828125 30.703125 37.828125 32.5 27 
z
" id="CMSS17-101"/>
      </defs>
      <g transform="translate(19.339535 241.69828)scale(0.16 -0.16)">
       <use transform="scale(0.996264)" xlink:href="#CMSS17-53"/>
       <use transform="translate(46.843624 0)scale(0.996264)" xlink:href="#CMSS17-101"/>
       <use transform="translate(88.482446 0)scale(0.996264)" xlink:href="#CMSS17-52"/>
      </g>
     </g>
    </g>
    <g id="ytick_3">
     <g id="line2d_43">
      <g>
       <use style="stroke:#000000;stroke-width:0.8;" x="48.884387" xlink:href="#m4124b19f35" y="164.417079"/>
      </g>
     </g>
     <g id="text_11">
      <!-- 1e5 -->
      <g transform="translate(19.339535 169.951873)scale(0.16 -0.16)">
       <use transform="scale(0.996264)" xlink:href="#CMSS17-49"/>
       <use transform="translate(46.843624 0)scale(0.996264)" xlink:href="#CMSS17-101"/>
       <use transform="translate(88.482446 0)scale(0.996264)" xlink:href="#CMSS17-53"/>
      </g>
     </g>
    </g>
    <g id="ytick_4">
     <g id="line2d_44">
      <g>
       <use style="stroke:#000000;stroke-width:0.8;" x="48.884387" xlink:href="#m4124b19f35" y="92.670672"/>
      </g>
     </g>
     <g id="text_12">
      <!-- 1.5e5 -->
      <defs>
       <path d="M 17 7.96875 
L 9 7.96875 
L 9 0 
L 17 0 
z
" id="CMSS17-46"/>
      </defs>
      <g transform="translate(7.2 98.205466)scale(0.16 -0.16)">
       <use transform="scale(0.996264)" xlink:href="#CMSS17-49"/>
       <use transform="translate(46.843624 0)scale(0.996264)" xlink:href="#CMSS17-46"/>
       <use transform="translate(72.867828 0)scale(0.996264)" xlink:href="#CMSS17-53"/>
       <use transform="translate(119.711452 0)scale(0.996264)" xlink:href="#CMSS17-101"/>
       <use transform="translate(161.350274 0)scale(0.996264)" xlink:href="#CMSS17-53"/>
      </g>
     </g>
    </g>
    <g id="ytick_5">
     <g id="line2d_45">
      <g>
       <use style="stroke:#000000;stroke-width:0.8;" x="48.884387" xlink:href="#m4124b19f35" y="20.924265"/>
      </g>
     </g>
     <g id="text_13">
      <!-- 2e5 -->
      <g transform="translate(19.339535 26.459059)scale(0.16 -0.16)">
       <use transform="scale(0.996264)" xlink:href="#CMSS17-50"/>
       <use transform="translate(46.843624 0)scale(0.996264)" xlink:href="#CMSS17-101"/>
       <use transform="translate(88.482446 0)scale(0.996264)" xlink:href="#CMSS17-53"/>
      </g>
     </g>
    </g>
    <g id="ytick_6">
     <g id="line2d_46">
      <defs>
       <path d="M 0 0 
L -2 0 
" id="m046ba75514" style="stroke:#000000;stroke-width:0.6;"/>
      </defs>
      <g>
       <use style="stroke:#000000;stroke-width:0.6;" x="48.884387" xlink:href="#m046ba75514" y="293.560612"/>
      </g>
     </g>
    </g>
    <g id="ytick_7">
     <g id="line2d_47">
      <g>
       <use style="stroke:#000000;stroke-width:0.6;" x="48.884387" xlink:href="#m046ba75514" y="279.211331"/>
      </g>
     </g>
    </g>
    <g id="ytick_8">
     <g id="line2d_48">
      <g>
       <use style="stroke:#000000;stroke-width:0.6;" x="48.884387" xlink:href="#m046ba75514" y="264.862049"/>
      </g>
     </g>
    </g>
    <g id="ytick_9">
     <g id="line2d_49">
      <g>
       <use style="stroke:#000000;stroke-width:0.6;" x="48.884387" xlink:href="#m046ba75514" y="250.512768"/>
      </g>
     </g>
    </g>
    <g id="ytick_10">
     <g id="line2d_50">
      <g>
       <use style="stroke:#000000;stroke-width:0.6;" x="48.884387" xlink:href="#m046ba75514" y="221.814205"/>
      </g>
     </g>
    </g>
    <g id="ytick_11">
     <g id="line2d_51">
      <g>
       <use style="stroke:#000000;stroke-width:0.6;" x="48.884387" xlink:href="#m046ba75514" y="207.464923"/>
      </g>
     </g>
    </g>
    <g id="ytick_12">
     <g id="line2d_52">
      <g>
       <use style="stroke:#000000;stroke-width:0.6;" x="48.884387" xlink:href="#m046ba75514" y="193.115642"/>
      </g>
     </g>
    </g>
    <g id="ytick_13">
     <g id="line2d_53">
      <g>
       <use style="stroke:#000000;stroke-width:0.6;" x="48.884387" xlink:href="#m046ba75514" y="178.766361"/>
      </g>
     </g>
    </g>
    <g id="ytick_14">
     <g id="line2d_54">
      <g>
       <use style="stroke:#000000;stroke-width:0.6;" x="48.884387" xlink:href="#m046ba75514" y="150.067798"/>
      </g>
     </g>
    </g>
    <g id="ytick_15">
     <g id="line2d_55">
      <g>
       <use style="stroke:#000000;stroke-width:0.6;" x="48.884387" xlink:href="#m046ba75514" y="135.718516"/>
      </g>
     </g>
    </g>
    <g id="ytick_16">
     <g id="line2d_56">
      <g>
       <use style="stroke:#000000;stroke-width:0.6;" x="48.884387" xlink:href="#m046ba75514" y="121.369235"/>
      </g>
     </g>
    </g>
    <g id="ytick_17">
     <g id="line2d_57">
      <g>
       <use style="stroke:#000000;stroke-width:0.6;" x="48.884387" xlink:href="#m046ba75514" y="107.019953"/>
      </g>
     </g>
    </g>
    <g id="ytick_18">
     <g id="line2d_58">
      <g>
       <use style="stroke:#000000;stroke-width:0.6;" x="48.884387" xlink:href="#m046ba75514" y="78.321391"/>
      </g>
     </g>
    </g>
    <g id="ytick_19">
     <g id="line2d_59">
      <g>
       <use style="stroke:#000000;stroke-width:0.6;" x="48.884387" xlink:href="#m046ba75514" y="63.972109"/>
      </g>
     </g>
    </g>
    <g id="ytick_20">
     <g id="line2d_60">
      <g>
       <use style="stroke:#000000;stroke-width:0.6;" x="48.884387" xlink:href="#m046ba75514" y="49.622828"/>
      </g>
     </g>
    </g>
    <g id="ytick_21">
     <g id="line2d_61">
      <g>
       <use style="stroke:#000000;stroke-width:0.6;" x="48.884387" xlink:href="#m046ba75514" y="35.273546"/>
      </g>
     </g>
    </g>
   </g>
   <g id="patch_103">
    <path d="M 48.884387 313.737538 
L 48.884387 10.7 
" style="fill:none;stroke:#000000;stroke-linecap:square;stroke-linejoin:miter;stroke-width:0.8;"/>
   </g>
   <g id="patch_104">
    <path d="M 58.884387 307.909893 
L 443.88 307.909893 
" style="fill:none;stroke:#000000;stroke-linecap:square;stroke-linejoin:miter;stroke-width:0.8;"/>
   </g>
  </g>
 </g>
 <defs>
  <clipPath id="p5bcde5bcfc">
   <rect height="303.037538" width="384.995613" x="58.884387" y="10.7"/>
  </clipPath>
 </defs>
</svg>
