<?xml version="1.0" encoding="utf-8" standalone="no"?>
<!DOCTYPE svg PUBLIC "-//W3C//DTD SVG 1.1//EN"
  "http://www.w3.org/Graphics/SVG/1.1/DTD/svg11.dtd">
<!-- Created with matplotlib (http://matplotlib.org/) -->
<svg height="336.278958pt" version="1.1" viewBox="0 0 454.58 336.278958" width="454.58pt" xmlns="http://www.w3.org/2000/svg" xmlns:xlink="http://www.w3.org/1999/xlink">
 <defs>
  <style type="text/css">
*{stroke-linecap:butt;stroke-linejoin:round;}
  </style>
 </defs>
 <g id="figure_1">
  <g id="patch_1">
   <path d="M 0 336.278958 
L 454.58 336.278958 
L 454.58 0 
L 0 0 
z
" style="fill:none;"/>
  </g>
  <g id="axes_1">
   <g id="patch_2">
    <path d="M 58.884387 313.737538 
L 443.88 313.737538 
L 443.88 10.7 
L 58.884387 10.7 
z
" style="fill:none;"/>
   </g>
   <g id="patch_3">
    <path clip-path="url(#pe655a54d91)" d="M 66.288148 307.909893 
L 68.756069 307.909893 
L 68.756069 307.905548 
L 66.288148 307.905548 
z
" style="fill:#444488;stroke:#444488;stroke-linejoin:miter;"/>
   </g>
   <g id="patch_4">
    <path clip-path="url(#pe655a54d91)" d="M 68.756069 307.909893 
L 71.22399 307.909893 
L 71.22399 307.909893 
L 68.756069 307.909893 
z
" style="fill:#444488;stroke:#444488;stroke-linejoin:miter;"/>
   </g>
   <g id="patch_5">
    <path clip-path="url(#pe655a54d91)" d="M 71.22399 307.909893 
L 73.69191 307.909893 
L 73.69191 307.909893 
L 71.22399 307.909893 
z
" style="fill:#444488;stroke:#444488;stroke-linejoin:miter;"/>
   </g>
   <g id="patch_6">
    <path clip-path="url(#pe655a54d91)" d="M 73.69191 307.909893 
L 76.159831 307.909893 
L 76.159831 307.901203 
L 73.69191 307.901203 
z
" style="fill:#444488;stroke:#444488;stroke-linejoin:miter;"/>
   </g>
   <g id="patch_7">
    <path clip-path="url(#pe655a54d91)" d="M 76.159831 307.909893 
L 78.627751 307.909893 
L 78.627751 307.898306 
L 76.159831 307.898306 
z
" style="fill:#444488;stroke:#444488;stroke-linejoin:miter;"/>
   </g>
   <g id="patch_8">
    <path clip-path="url(#pe655a54d91)" d="M 78.627751 307.909893 
L 81.095672 307.909893 
L 81.095672 307.909893 
L 78.627751 307.909893 
z
" style="fill:#444488;stroke:#444488;stroke-linejoin:miter;"/>
   </g>
   <g id="patch_9">
    <path clip-path="url(#pe655a54d91)" d="M 81.095672 307.909893 
L 83.563593 307.909893 
L 83.563593 307.9041 
L 81.095672 307.9041 
z
" style="fill:#444488;stroke:#444488;stroke-linejoin:miter;"/>
   </g>
   <g id="patch_10">
    <path clip-path="url(#pe655a54d91)" d="M 83.563593 307.909893 
L 86.031513 307.909893 
L 86.031513 307.905548 
L 83.563593 307.905548 
z
" style="fill:#444488;stroke:#444488;stroke-linejoin:miter;"/>
   </g>
   <g id="patch_11">
    <path clip-path="url(#pe655a54d91)" d="M 86.031513 307.909893 
L 88.499434 307.909893 
L 88.499434 307.9041 
L 86.031513 307.9041 
z
" style="fill:#444488;stroke:#444488;stroke-linejoin:miter;"/>
   </g>
   <g id="patch_12">
    <path clip-path="url(#pe655a54d91)" d="M 88.499434 307.909893 
L 90.967354 307.909893 
L 90.967354 307.901203 
L 88.499434 307.901203 
z
" style="fill:#444488;stroke:#444488;stroke-linejoin:miter;"/>
   </g>
   <g id="patch_13">
    <path clip-path="url(#pe655a54d91)" d="M 90.967354 307.909893 
L 93.435275 307.909893 
L 93.435275 307.901203 
L 90.967354 307.901203 
z
" style="fill:#444488;stroke:#444488;stroke-linejoin:miter;"/>
   </g>
   <g id="patch_14">
    <path clip-path="url(#pe655a54d91)" d="M 93.435275 307.909893 
L 95.903196 307.909893 
L 95.903196 307.909893 
L 93.435275 307.909893 
z
" style="fill:#444488;stroke:#444488;stroke-linejoin:miter;"/>
   </g>
   <g id="patch_15">
    <path clip-path="url(#pe655a54d91)" d="M 95.903196 307.909893 
L 98.371116 307.909893 
L 98.371116 307.896858 
L 95.903196 307.896858 
z
" style="fill:#444488;stroke:#444488;stroke-linejoin:miter;"/>
   </g>
   <g id="patch_16">
    <path clip-path="url(#pe655a54d91)" d="M 98.371116 307.909893 
L 100.839037 307.909893 
L 100.839037 307.909893 
L 98.371116 307.909893 
z
" style="fill:#444488;stroke:#444488;stroke-linejoin:miter;"/>
   </g>
   <g id="patch_17">
    <path clip-path="url(#pe655a54d91)" d="M 100.839037 307.909893 
L 103.306957 307.909893 
L 103.306957 307.892512 
L 100.839037 307.892512 
z
" style="fill:#444488;stroke:#444488;stroke-linejoin:miter;"/>
   </g>
   <g id="patch_18">
    <path clip-path="url(#pe655a54d91)" d="M 103.306957 307.909893 
L 105.774878 307.909893 
L 105.774878 307.898306 
L 103.306957 307.898306 
z
" style="fill:#444488;stroke:#444488;stroke-linejoin:miter;"/>
   </g>
   <g id="patch_19">
    <path clip-path="url(#pe655a54d91)" d="M 105.774878 307.909893 
L 108.242799 307.909893 
L 108.242799 307.893961 
L 105.774878 307.893961 
z
" style="fill:#444488;stroke:#444488;stroke-linejoin:miter;"/>
   </g>
   <g id="patch_20">
    <path clip-path="url(#pe655a54d91)" d="M 108.242799 307.909893 
L 110.710719 307.909893 
L 110.710719 307.896858 
L 108.242799 307.896858 
z
" style="fill:#444488;stroke:#444488;stroke-linejoin:miter;"/>
   </g>
   <g id="patch_21">
    <path clip-path="url(#pe655a54d91)" d="M 110.710719 307.909893 
L 113.17864 307.909893 
L 113.17864 307.895409 
L 110.710719 307.895409 
z
" style="fill:#444488;stroke:#444488;stroke-linejoin:miter;"/>
   </g>
   <g id="patch_22">
    <path clip-path="url(#pe655a54d91)" d="M 113.17864 307.909893 
L 115.64656 307.909893 
L 115.64656 307.893961 
L 113.17864 307.893961 
z
" style="fill:#444488;stroke:#444488;stroke-linejoin:miter;"/>
   </g>
   <g id="patch_23">
    <path clip-path="url(#pe655a54d91)" d="M 115.64656 307.909893 
L 118.114481 307.909893 
L 118.114481 307.892512 
L 115.64656 307.892512 
z
" style="fill:#444488;stroke:#444488;stroke-linejoin:miter;"/>
   </g>
   <g id="patch_24">
    <path clip-path="url(#pe655a54d91)" d="M 118.114481 307.909893 
L 120.582402 307.909893 
L 120.582402 307.891064 
L 118.114481 307.891064 
z
" style="fill:#444488;stroke:#444488;stroke-linejoin:miter;"/>
   </g>
   <g id="patch_25">
    <path clip-path="url(#pe655a54d91)" d="M 120.582402 307.909893 
L 123.050322 307.909893 
L 123.050322 307.886719 
L 120.582402 307.886719 
z
" style="fill:#444488;stroke:#444488;stroke-linejoin:miter;"/>
   </g>
   <g id="patch_26">
    <path clip-path="url(#pe655a54d91)" d="M 123.050322 307.909893 
L 125.518243 307.909893 
L 125.518243 307.893961 
L 123.050322 307.893961 
z
" style="fill:#444488;stroke:#444488;stroke-linejoin:miter;"/>
   </g>
   <g id="patch_27">
    <path clip-path="url(#pe655a54d91)" d="M 125.518243 307.909893 
L 127.986163 307.909893 
L 127.986163 307.886719 
L 125.518243 307.886719 
z
" style="fill:#444488;stroke:#444488;stroke-linejoin:miter;"/>
   </g>
   <g id="patch_28">
    <path clip-path="url(#pe655a54d91)" d="M 127.986163 307.909893 
L 130.454084 307.909893 
L 130.454084 307.882374 
L 127.986163 307.882374 
z
" style="fill:#444488;stroke:#444488;stroke-linejoin:miter;"/>
   </g>
   <g id="patch_29">
    <path clip-path="url(#pe655a54d91)" d="M 130.454084 307.909893 
L 132.922005 307.909893 
L 132.922005 307.880925 
L 130.454084 307.880925 
z
" style="fill:#444488;stroke:#444488;stroke-linejoin:miter;"/>
   </g>
   <g id="patch_30">
    <path clip-path="url(#pe655a54d91)" d="M 132.922005 307.909893 
L 135.389925 307.909893 
L 135.389925 307.880925 
L 132.922005 307.880925 
z
" style="fill:#444488;stroke:#444488;stroke-linejoin:miter;"/>
   </g>
   <g id="patch_31">
    <path clip-path="url(#pe655a54d91)" d="M 135.389925 307.909893 
L 137.857846 307.909893 
L 137.857846 307.893961 
L 135.389925 307.893961 
z
" style="fill:#444488;stroke:#444488;stroke-linejoin:miter;"/>
   </g>
   <g id="patch_32">
    <path clip-path="url(#pe655a54d91)" d="M 137.857846 307.909893 
L 140.325766 307.909893 
L 140.325766 307.870786 
L 137.857846 307.870786 
z
" style="fill:#444488;stroke:#444488;stroke-linejoin:miter;"/>
   </g>
   <g id="patch_33">
    <path clip-path="url(#pe655a54d91)" d="M 140.325766 307.909893 
L 142.793687 307.909893 
L 142.793687 307.864993 
L 140.325766 307.864993 
z
" style="fill:#444488;stroke:#444488;stroke-linejoin:miter;"/>
   </g>
   <g id="patch_34">
    <path clip-path="url(#pe655a54d91)" d="M 142.793687 307.909893 
L 145.261608 307.909893 
L 145.261608 307.872235 
L 142.793687 307.872235 
z
" style="fill:#444488;stroke:#444488;stroke-linejoin:miter;"/>
   </g>
   <g id="patch_35">
    <path clip-path="url(#pe655a54d91)" d="M 145.261608 307.909893 
L 147.729528 307.909893 
L 147.729528 307.856302 
L 145.261608 307.856302 
z
" style="fill:#444488;stroke:#444488;stroke-linejoin:miter;"/>
   </g>
   <g id="patch_36">
    <path clip-path="url(#pe655a54d91)" d="M 147.729528 307.909893 
L 150.197449 307.909893 
L 150.197449 307.859199 
L 147.729528 307.859199 
z
" style="fill:#444488;stroke:#444488;stroke-linejoin:miter;"/>
   </g>
   <g id="patch_37">
    <path clip-path="url(#pe655a54d91)" d="M 150.197449 307.909893 
L 152.665369 307.909893 
L 152.665369 307.851957 
L 150.197449 307.851957 
z
" style="fill:#444488;stroke:#444488;stroke-linejoin:miter;"/>
   </g>
   <g id="patch_38">
    <path clip-path="url(#pe655a54d91)" d="M 152.665369 307.909893 
L 155.13329 307.909893 
L 155.13329 307.841818 
L 152.665369 307.841818 
z
" style="fill:#444488;stroke:#444488;stroke-linejoin:miter;"/>
   </g>
   <g id="patch_39">
    <path clip-path="url(#pe655a54d91)" d="M 155.13329 307.909893 
L 157.601211 307.909893 
L 157.601211 307.841818 
L 155.13329 307.841818 
z
" style="fill:#444488;stroke:#444488;stroke-linejoin:miter;"/>
   </g>
   <g id="patch_40">
    <path clip-path="url(#pe655a54d91)" d="M 157.601211 307.909893 
L 160.069131 307.909893 
L 160.069131 307.84906 
L 157.601211 307.84906 
z
" style="fill:#444488;stroke:#444488;stroke-linejoin:miter;"/>
   </g>
   <g id="patch_41">
    <path clip-path="url(#pe655a54d91)" d="M 160.069131 307.909893 
L 162.537052 307.909893 
L 162.537052 307.825885 
L 160.069131 307.825885 
z
" style="fill:#444488;stroke:#444488;stroke-linejoin:miter;"/>
   </g>
   <g id="patch_42">
    <path clip-path="url(#pe655a54d91)" d="M 162.537052 307.909893 
L 165.004972 307.909893 
L 165.004972 307.818643 
L 162.537052 307.818643 
z
" style="fill:#444488;stroke:#444488;stroke-linejoin:miter;"/>
   </g>
   <g id="patch_43">
    <path clip-path="url(#pe655a54d91)" d="M 165.004972 307.909893 
L 167.472893 307.909893 
L 167.472893 307.809953 
L 165.004972 307.809953 
z
" style="fill:#444488;stroke:#444488;stroke-linejoin:miter;"/>
   </g>
   <g id="patch_44">
    <path clip-path="url(#pe655a54d91)" d="M 167.472893 307.909893 
L 169.940814 307.909893 
L 169.940814 307.796917 
L 167.472893 307.796917 
z
" style="fill:#444488;stroke:#444488;stroke-linejoin:miter;"/>
   </g>
   <g id="patch_45">
    <path clip-path="url(#pe655a54d91)" d="M 169.940814 307.909893 
L 172.408734 307.909893 
L 172.408734 307.817195 
L 169.940814 307.817195 
z
" style="fill:#444488;stroke:#444488;stroke-linejoin:miter;"/>
   </g>
   <g id="patch_46">
    <path clip-path="url(#pe655a54d91)" d="M 172.408734 307.909893 
L 174.876655 307.909893 
L 174.876655 307.782433 
L 172.408734 307.782433 
z
" style="fill:#444488;stroke:#444488;stroke-linejoin:miter;"/>
   </g>
   <g id="patch_47">
    <path clip-path="url(#pe655a54d91)" d="M 174.876655 307.909893 
L 177.344575 307.909893 
L 177.344575 307.805608 
L 174.876655 307.805608 
z
" style="fill:#444488;stroke:#444488;stroke-linejoin:miter;"/>
   </g>
   <g id="patch_48">
    <path clip-path="url(#pe655a54d91)" d="M 177.344575 307.909893 
L 179.812496 307.909893 
L 179.812496 307.788227 
L 177.344575 307.788227 
z
" style="fill:#444488;stroke:#444488;stroke-linejoin:miter;"/>
   </g>
   <g id="patch_49">
    <path clip-path="url(#pe655a54d91)" d="M 179.812496 307.909893 
L 182.280417 307.909893 
L 182.280417 307.782433 
L 179.812496 307.782433 
z
" style="fill:#444488;stroke:#444488;stroke-linejoin:miter;"/>
   </g>
   <g id="patch_50">
    <path clip-path="url(#pe655a54d91)" d="M 182.280417 307.909893 
L 184.748337 307.909893 
L 184.748337 307.701322 
L 182.280417 307.701322 
z
" style="fill:#444488;stroke:#444488;stroke-linejoin:miter;"/>
   </g>
   <g id="patch_51">
    <path clip-path="url(#pe655a54d91)" d="M 184.748337 307.909893 
L 187.216258 307.909893 
L 187.216258 307.736084 
L 184.748337 307.736084 
z
" style="fill:#444488;stroke:#444488;stroke-linejoin:miter;"/>
   </g>
   <g id="patch_52">
    <path clip-path="url(#pe655a54d91)" d="M 187.216258 307.909893 
L 189.684178 307.909893 
L 189.684178 307.705667 
L 187.216258 307.705667 
z
" style="fill:#444488;stroke:#444488;stroke-linejoin:miter;"/>
   </g>
   <g id="patch_53">
    <path clip-path="url(#pe655a54d91)" d="M 189.684178 307.909893 
L 192.152099 307.909893 
L 192.152099 307.73029 
L 189.684178 307.73029 
z
" style="fill:#444488;stroke:#444488;stroke-linejoin:miter;"/>
   </g>
   <g id="patch_54">
    <path clip-path="url(#pe655a54d91)" d="M 192.152099 307.909893 
L 194.62002 307.909893 
L 194.62002 307.595587 
L 192.152099 307.595587 
z
" style="fill:#444488;stroke:#444488;stroke-linejoin:miter;"/>
   </g>
   <g id="patch_55">
    <path clip-path="url(#pe655a54d91)" d="M 194.62002 307.909893 
L 197.08794 307.909893 
L 197.08794 307.663663 
L 194.62002 307.663663 
z
" style="fill:#444488;stroke:#444488;stroke-linejoin:miter;"/>
   </g>
   <g id="patch_56">
    <path clip-path="url(#pe655a54d91)" d="M 197.08794 307.909893 
L 199.555861 307.909893 
L 199.555861 307.663663 
L 197.08794 307.663663 
z
" style="fill:#444488;stroke:#444488;stroke-linejoin:miter;"/>
   </g>
   <g id="patch_57">
    <path clip-path="url(#pe655a54d91)" d="M 199.555861 307.909893 
L 202.023781 307.909893 
L 202.023781 307.61152 
L 199.555861 307.61152 
z
" style="fill:#444488;stroke:#444488;stroke-linejoin:miter;"/>
   </g>
   <g id="patch_58">
    <path clip-path="url(#pe655a54d91)" d="M 202.023781 307.909893 
L 204.491702 307.909893 
L 204.491702 307.555032 
L 202.023781 307.555032 
z
" style="fill:#444488;stroke:#444488;stroke-linejoin:miter;"/>
   </g>
   <g id="patch_59">
    <path clip-path="url(#pe655a54d91)" d="M 204.491702 307.909893 
L 206.959623 307.909893 
L 206.959623 307.563722 
L 204.491702 307.563722 
z
" style="fill:#444488;stroke:#444488;stroke-linejoin:miter;"/>
   </g>
   <g id="patch_60">
    <path clip-path="url(#pe655a54d91)" d="M 206.959623 307.909893 
L 209.427543 307.909893 
L 209.427543 307.52896 
L 206.959623 307.52896 
z
" style="fill:#444488;stroke:#444488;stroke-linejoin:miter;"/>
   </g>
   <g id="patch_61">
    <path clip-path="url(#pe655a54d91)" d="M 209.427543 307.909893 
L 211.895464 307.909893 
L 211.895464 307.462333 
L 209.427543 307.462333 
z
" style="fill:#444488;stroke:#444488;stroke-linejoin:miter;"/>
   </g>
   <g id="patch_62">
    <path clip-path="url(#pe655a54d91)" d="M 211.895464 307.909893 
L 214.363384 307.909893 
L 214.363384 307.440607 
L 211.895464 307.440607 
z
" style="fill:#444488;stroke:#444488;stroke-linejoin:miter;"/>
   </g>
   <g id="patch_63">
    <path clip-path="url(#pe655a54d91)" d="M 214.363384 307.909893 
L 216.831305 307.909893 
L 216.831305 307.450746 
L 214.363384 307.450746 
z
" style="fill:#444488;stroke:#444488;stroke-linejoin:miter;"/>
   </g>
   <g id="patch_64">
    <path clip-path="url(#pe655a54d91)" d="M 216.831305 307.909893 
L 219.299226 307.909893 
L 219.299226 307.301559 
L 216.831305 307.301559 
z
" style="fill:#444488;stroke:#444488;stroke-linejoin:miter;"/>
   </g>
   <g id="patch_65">
    <path clip-path="url(#pe655a54d91)" d="M 219.299226 307.909893 
L 221.767146 307.909893 
L 221.767146 307.2639 
L 219.299226 307.2639 
z
" style="fill:#444488;stroke:#444488;stroke-linejoin:miter;"/>
   </g>
   <g id="patch_66">
    <path clip-path="url(#pe655a54d91)" d="M 221.767146 307.909893 
L 224.235067 307.909893 
L 224.235067 307.30011 
L 221.767146 307.30011 
z
" style="fill:#444488;stroke:#444488;stroke-linejoin:miter;"/>
   </g>
   <g id="patch_67">
    <path clip-path="url(#pe655a54d91)" d="M 224.235067 307.909893 
L 226.702987 307.909893 
L 226.702987 307.198721 
L 224.235067 307.198721 
z
" style="fill:#444488;stroke:#444488;stroke-linejoin:miter;"/>
   </g>
   <g id="patch_68">
    <path clip-path="url(#pe655a54d91)" d="M 226.702987 307.909893 
L 229.170908 307.909893 
L 229.170908 307.072709 
L 226.702987 307.072709 
z
" style="fill:#444488;stroke:#444488;stroke-linejoin:miter;"/>
   </g>
   <g id="patch_69">
    <path clip-path="url(#pe655a54d91)" d="M 229.170908 307.909893 
L 231.638829 307.909893 
L 231.638829 307.082848 
L 229.170908 307.082848 
z
" style="fill:#444488;stroke:#444488;stroke-linejoin:miter;"/>
   </g>
   <g id="patch_70">
    <path clip-path="url(#pe655a54d91)" d="M 231.638829 307.909893 
L 234.106749 307.909893 
L 234.106749 307.146578 
L 231.638829 307.146578 
z
" style="fill:#444488;stroke:#444488;stroke-linejoin:miter;"/>
   </g>
   <g id="patch_71">
    <path clip-path="url(#pe655a54d91)" d="M 234.106749 307.909893 
L 236.57467 307.909893 
L 236.57467 307.02636 
L 234.106749 307.02636 
z
" style="fill:#444488;stroke:#444488;stroke-linejoin:miter;"/>
   </g>
   <g id="patch_72">
    <path clip-path="url(#pe655a54d91)" d="M 236.57467 307.909893 
L 239.04259 307.909893 
L 239.04259 306.884415 
L 236.57467 306.884415 
z
" style="fill:#444488;stroke:#444488;stroke-linejoin:miter;"/>
   </g>
   <g id="patch_73">
    <path clip-path="url(#pe655a54d91)" d="M 239.04259 307.909893 
L 241.510511 307.909893 
L 241.510511 306.701914 
L 239.04259 306.701914 
z
" style="fill:#444488;stroke:#444488;stroke-linejoin:miter;"/>
   </g>
   <g id="patch_74">
    <path clip-path="url(#pe655a54d91)" d="M 241.510511 307.909893 
L 243.978432 307.909893 
L 243.978432 306.749712 
L 241.510511 306.749712 
z
" style="fill:#444488;stroke:#444488;stroke-linejoin:miter;"/>
   </g>
   <g id="patch_75">
    <path clip-path="url(#pe655a54d91)" d="M 243.978432 307.909893 
L 246.446352 307.909893 
L 246.446352 306.67874 
L 243.978432 306.67874 
z
" style="fill:#444488;stroke:#444488;stroke-linejoin:miter;"/>
   </g>
   <g id="patch_76">
    <path clip-path="url(#pe655a54d91)" d="M 246.446352 307.909893 
L 248.914273 307.909893 
L 248.914273 306.488997 
L 246.446352 306.488997 
z
" style="fill:#444488;stroke:#444488;stroke-linejoin:miter;"/>
   </g>
   <g id="patch_77">
    <path clip-path="url(#pe655a54d91)" d="M 248.914273 307.909893 
L 251.382193 307.909893 
L 251.382193 306.483203 
L 248.914273 306.483203 
z
" style="fill:#444488;stroke:#444488;stroke-linejoin:miter;"/>
   </g>
   <g id="patch_78">
    <path clip-path="url(#pe655a54d91)" d="M 251.382193 307.909893 
L 253.850114 307.909893 
L 253.850114 306.145722 
L 251.382193 306.145722 
z
" style="fill:#444488;stroke:#444488;stroke-linejoin:miter;"/>
   </g>
   <g id="patch_79">
    <path clip-path="url(#pe655a54d91)" d="M 253.850114 307.909893 
L 256.318035 307.909893 
L 256.318035 306.084889 
L 253.850114 306.084889 
z
" style="fill:#444488;stroke:#444488;stroke-linejoin:miter;"/>
   </g>
   <g id="patch_80">
    <path clip-path="url(#pe655a54d91)" d="M 256.318035 307.909893 
L 258.785955 307.909893 
L 258.785955 305.893698 
L 256.318035 305.893698 
z
" style="fill:#444488;stroke:#444488;stroke-linejoin:miter;"/>
   </g>
   <g id="patch_81">
    <path clip-path="url(#pe655a54d91)" d="M 258.785955 307.909893 
L 261.253876 307.909893 
L 261.253876 306.155861 
L 258.785955 306.155861 
z
" style="fill:#444488;stroke:#444488;stroke-linejoin:miter;"/>
   </g>
   <g id="patch_82">
    <path clip-path="url(#pe655a54d91)" d="M 261.253876 307.909893 
L 263.721796 307.909893 
L 263.721796 305.592427 
L 261.253876 305.592427 
z
" style="fill:#444488;stroke:#444488;stroke-linejoin:miter;"/>
   </g>
   <g id="patch_83">
    <path clip-path="url(#pe655a54d91)" d="M 263.721796 307.909893 
L 266.189717 307.909893 
L 266.189717 305.493935 
L 263.721796 305.493935 
z
" style="fill:#444488;stroke:#444488;stroke-linejoin:miter;"/>
   </g>
   <g id="patch_84">
    <path clip-path="url(#pe655a54d91)" d="M 266.189717 307.909893 
L 268.657638 307.909893 
L 268.657638 305.547527 
L 266.189717 305.547527 
z
" style="fill:#444488;stroke:#444488;stroke-linejoin:miter;"/>
   </g>
   <g id="patch_85">
    <path clip-path="url(#pe655a54d91)" d="M 268.657638 307.909893 
L 271.125558 307.909893 
L 271.125558 305.115898 
L 268.657638 305.115898 
z
" style="fill:#444488;stroke:#444488;stroke-linejoin:miter;"/>
   </g>
   <g id="patch_86">
    <path clip-path="url(#pe655a54d91)" d="M 271.125558 307.909893 
L 273.593479 307.909893 
L 273.593479 304.933398 
L 271.125558 304.933398 
z
" style="fill:#444488;stroke:#444488;stroke-linejoin:miter;"/>
   </g>
   <g id="patch_87">
    <path clip-path="url(#pe655a54d91)" d="M 273.593479 307.909893 
L 276.061399 307.909893 
L 276.061399 304.923259 
L 273.593479 304.923259 
z
" style="fill:#444488;stroke:#444488;stroke-linejoin:miter;"/>
   </g>
   <g id="patch_88">
    <path clip-path="url(#pe655a54d91)" d="M 276.061399 307.909893 
L 278.52932 307.909893 
L 278.52932 304.335202 
L 276.061399 304.335202 
z
" style="fill:#444488;stroke:#444488;stroke-linejoin:miter;"/>
   </g>
   <g id="patch_89">
    <path clip-path="url(#pe655a54d91)" d="M 278.52932 307.909893 
L 280.997241 307.909893 
L 280.997241 304.35548 
L 278.52932 304.35548 
z
" style="fill:#444488;stroke:#444488;stroke-linejoin:miter;"/>
   </g>
   <g id="patch_90">
    <path clip-path="url(#pe655a54d91)" d="M 280.997241 307.909893 
L 283.465161 307.909893 
L 283.465161 303.645756 
L 280.997241 303.645756 
z
" style="fill:#444488;stroke:#444488;stroke-linejoin:miter;"/>
   </g>
   <g id="patch_91">
    <path clip-path="url(#pe655a54d91)" d="M 283.465161 307.909893 
L 285.933082 307.909893 
L 285.933082 303.567541 
L 283.465161 303.567541 
z
" style="fill:#444488;stroke:#444488;stroke-linejoin:miter;"/>
   </g>
   <g id="patch_92">
    <path clip-path="url(#pe655a54d91)" d="M 285.933082 307.909893 
L 288.401002 307.909893 
L 288.401002 302.936032 
L 285.933082 302.936032 
z
" style="fill:#444488;stroke:#444488;stroke-linejoin:miter;"/>
   </g>
   <g id="patch_93">
    <path clip-path="url(#pe655a54d91)" d="M 288.401002 307.909893 
L 290.868923 307.909893 
L 290.868923 302.798432 
L 288.401002 302.798432 
z
" style="fill:#444488;stroke:#444488;stroke-linejoin:miter;"/>
   </g>
   <g id="patch_94">
    <path clip-path="url(#pe655a54d91)" d="M 290.868923 307.909893 
L 293.336844 307.909893 
L 293.336844 303.060596 
L 290.868923 303.060596 
z
" style="fill:#444488;stroke:#444488;stroke-linejoin:miter;"/>
   </g>
   <g id="patch_95">
    <path clip-path="url(#pe655a54d91)" d="M 293.336844 307.909893 
L 295.804764 307.909893 
L 295.804764 301.956903 
L 293.336844 301.956903 
z
" style="fill:#444488;stroke:#444488;stroke-linejoin:miter;"/>
   </g>
   <g id="patch_96">
    <path clip-path="url(#pe655a54d91)" d="M 295.804764 307.909893 
L 298.272685 307.909893 
L 298.272685 301.998907 
L 295.804764 301.998907 
z
" style="fill:#444488;stroke:#444488;stroke-linejoin:miter;"/>
   </g>
   <g id="patch_97">
    <path clip-path="url(#pe655a54d91)" d="M 298.272685 307.909893 
L 300.740605 307.909893 
L 300.740605 301.387675 
L 298.272685 301.387675 
z
" style="fill:#444488;stroke:#444488;stroke-linejoin:miter;"/>
   </g>
   <g id="patch_98">
    <path clip-path="url(#pe655a54d91)" d="M 300.740605 307.909893 
L 303.208526 307.909893 
L 303.208526 301.108131 
L 300.740605 301.108131 
z
" style="fill:#444488;stroke:#444488;stroke-linejoin:miter;"/>
   </g>
   <g id="patch_99">
    <path clip-path="url(#pe655a54d91)" d="M 303.208526 307.909893 
L 305.676446 307.909893 
L 305.676446 299.903048 
L 303.208526 299.903048 
z
" style="fill:#444488;stroke:#444488;stroke-linejoin:miter;"/>
   </g>
   <g id="patch_100">
    <path clip-path="url(#pe655a54d91)" d="M 305.676446 307.909893 
L 308.144367 307.909893 
L 308.144367 299.830627 
L 305.676446 299.830627 
z
" style="fill:#444488;stroke:#444488;stroke-linejoin:miter;"/>
   </g>
   <g id="patch_101">
    <path clip-path="url(#pe655a54d91)" d="M 308.144367 307.909893 
L 310.612288 307.909893 
L 310.612288 299.303404 
L 308.144367 299.303404 
z
" style="fill:#444488;stroke:#444488;stroke-linejoin:miter;"/>
   </g>
   <g id="patch_102">
    <path clip-path="url(#pe655a54d91)" d="M 310.612288 307.909893 
L 313.080208 307.909893 
L 313.080208 298.150465 
L 310.612288 298.150465 
z
" style="fill:#444488;stroke:#444488;stroke-linejoin:miter;"/>
   </g>
   <g id="patch_103">
    <path clip-path="url(#pe655a54d91)" d="M 313.080208 307.909893 
L 315.548129 307.909893 
L 315.548129 297.556614 
L 313.080208 297.556614 
z
" style="fill:#444488;stroke:#444488;stroke-linejoin:miter;"/>
   </g>
   <g id="patch_104">
    <path clip-path="url(#pe655a54d91)" d="M 315.548129 307.909893 
L 318.016049 307.909893 
L 318.016049 297.488538 
L 315.548129 297.488538 
z
" style="fill:#444488;stroke:#444488;stroke-linejoin:miter;"/>
   </g>
   <g id="patch_105">
    <path clip-path="url(#pe655a54d91)" d="M 318.016049 307.909893 
L 320.48397 307.909893 
L 320.48397 296.03288 
L 318.016049 296.03288 
z
" style="fill:#444488;stroke:#444488;stroke-linejoin:miter;"/>
   </g>
   <g id="patch_106">
    <path clip-path="url(#pe655a54d91)" d="M 320.48397 307.909893 
L 322.951891 307.909893 
L 322.951891 294.632261 
L 320.48397 294.632261 
z
" style="fill:#444488;stroke:#444488;stroke-linejoin:miter;"/>
   </g>
   <g id="patch_107">
    <path clip-path="url(#pe655a54d91)" d="M 322.951891 307.909893 
L 325.419811 307.909893 
L 325.419811 294.567083 
L 322.951891 294.567083 
z
" style="fill:#444488;stroke:#444488;stroke-linejoin:miter;"/>
   </g>
   <g id="patch_108">
    <path clip-path="url(#pe655a54d91)" d="M 325.419811 307.909893 
L 327.887732 307.909893 
L 327.887732 293.382278 
L 325.419811 293.382278 
z
" style="fill:#444488;stroke:#444488;stroke-linejoin:miter;"/>
   </g>
   <g id="patch_109">
    <path clip-path="url(#pe655a54d91)" d="M 327.887732 307.909893 
L 330.355652 307.909893 
L 330.355652 292.69428 
L 327.887732 292.69428 
z
" style="fill:#444488;stroke:#444488;stroke-linejoin:miter;"/>
   </g>
   <g id="patch_110">
    <path clip-path="url(#pe655a54d91)" d="M 330.355652 307.909893 
L 332.823573 307.909893 
L 332.823573 291.379118 
L 330.355652 291.379118 
z
" style="fill:#444488;stroke:#444488;stroke-linejoin:miter;"/>
   </g>
   <g id="patch_111">
    <path clip-path="url(#pe655a54d91)" d="M 332.823573 307.909893 
L 335.291494 307.909893 
L 335.291494 290.321775 
L 332.823573 290.321775 
z
" style="fill:#444488;stroke:#444488;stroke-linejoin:miter;"/>
   </g>
   <g id="patch_112">
    <path clip-path="url(#pe655a54d91)" d="M 335.291494 307.909893 
L 337.759414 307.909893 
L 337.759414 288.128872 
L 335.291494 288.128872 
z
" style="fill:#444488;stroke:#444488;stroke-linejoin:miter;"/>
   </g>
   <g id="patch_113">
    <path clip-path="url(#pe655a54d91)" d="M 337.759414 307.909893 
L 340.227335 307.909893 
L 340.227335 287.436529 
L 337.759414 287.436529 
z
" style="fill:#444488;stroke:#444488;stroke-linejoin:miter;"/>
   </g>
   <g id="patch_114">
    <path clip-path="url(#pe655a54d91)" d="M 340.227335 307.909893 
L 342.695255 307.909893 
L 342.695255 285.886724 
L 340.227335 285.886724 
z
" style="fill:#444488;stroke:#444488;stroke-linejoin:miter;"/>
   </g>
   <g id="patch_115">
    <path clip-path="url(#pe655a54d91)" d="M 342.695255 307.909893 
L 345.163176 307.909893 
L 345.163176 283.997989 
L 342.695255 283.997989 
z
" style="fill:#444488;stroke:#444488;stroke-linejoin:miter;"/>
   </g>
   <g id="patch_116">
    <path clip-path="url(#pe655a54d91)" d="M 345.163176 307.909893 
L 347.631097 307.909893 
L 347.631097 282.593025 
L 345.163176 282.593025 
z
" style="fill:#444488;stroke:#444488;stroke-linejoin:miter;"/>
   </g>
   <g id="patch_117">
    <path clip-path="url(#pe655a54d91)" d="M 347.631097 307.909893 
L 350.099017 307.909893 
L 350.099017 280.720223 
L 347.631097 280.720223 
z
" style="fill:#444488;stroke:#444488;stroke-linejoin:miter;"/>
   </g>
   <g id="patch_118">
    <path clip-path="url(#pe655a54d91)" d="M 350.099017 307.909893 
L 352.566938 307.909893 
L 352.566938 278.767758 
L 350.099017 278.767758 
z
" style="fill:#444488;stroke:#444488;stroke-linejoin:miter;"/>
   </g>
   <g id="patch_119">
    <path clip-path="url(#pe655a54d91)" d="M 352.566938 307.909893 
L 355.034858 307.909893 
L 355.034858 276.38801 
L 352.566938 276.38801 
z
" style="fill:#444488;stroke:#444488;stroke-linejoin:miter;"/>
   </g>
   <g id="patch_120">
    <path clip-path="url(#pe655a54d91)" d="M 355.034858 307.909893 
L 357.502779 307.909893 
L 357.502779 275.164098 
L 355.034858 275.164098 
z
" style="fill:#444488;stroke:#444488;stroke-linejoin:miter;"/>
   </g>
   <g id="patch_121">
    <path clip-path="url(#pe655a54d91)" d="M 357.502779 307.909893 
L 359.9707 307.909893 
L 359.9707 271.753078 
L 357.502779 271.753078 
z
" style="fill:#444488;stroke:#444488;stroke-linejoin:miter;"/>
   </g>
   <g id="patch_122">
    <path clip-path="url(#pe655a54d91)" d="M 359.9707 307.909893 
L 362.43862 307.909893 
L 362.43862 270.417638 
L 359.9707 270.417638 
z
" style="fill:#444488;stroke:#444488;stroke-linejoin:miter;"/>
   </g>
   <g id="patch_123">
    <path clip-path="url(#pe655a54d91)" d="M 362.43862 307.909893 
L 364.906541 307.909893 
L 364.906541 266.640168 
L 362.43862 266.640168 
z
" style="fill:#444488;stroke:#444488;stroke-linejoin:miter;"/>
   </g>
   <g id="patch_124">
    <path clip-path="url(#pe655a54d91)" d="M 364.906541 307.909893 
L 367.374461 307.909893 
L 367.374461 263.930182 
L 364.906541 263.930182 
z
" style="fill:#444488;stroke:#444488;stroke-linejoin:miter;"/>
   </g>
   <g id="patch_125">
    <path clip-path="url(#pe655a54d91)" d="M 367.374461 307.909893 
L 369.842382 307.909893 
L 369.842382 260.537991 
L 367.374461 260.537991 
z
" style="fill:#444488;stroke:#444488;stroke-linejoin:miter;"/>
   </g>
   <g id="patch_126">
    <path clip-path="url(#pe655a54d91)" d="M 369.842382 307.909893 
L 372.310303 307.909893 
L 372.310303 257.287744 
L 369.842382 257.287744 
z
" style="fill:#444488;stroke:#444488;stroke-linejoin:miter;"/>
   </g>
   <g id="patch_127">
    <path clip-path="url(#pe655a54d91)" d="M 372.310303 307.909893 
L 374.778223 307.909893 
L 374.778223 254.535754 
L 372.310303 254.535754 
z
" style="fill:#444488;stroke:#444488;stroke-linejoin:miter;"/>
   </g>
   <g id="patch_128">
    <path clip-path="url(#pe655a54d91)" d="M 374.778223 307.909893 
L 377.246144 307.909893 
L 377.246144 249.182407 
L 374.778223 249.182407 
z
" style="fill:#444488;stroke:#444488;stroke-linejoin:miter;"/>
   </g>
   <g id="patch_129">
    <path clip-path="url(#pe655a54d91)" d="M 377.246144 307.909893 
L 379.714064 307.909893 
L 379.714064 244.815432 
L 377.246144 244.815432 
z
" style="fill:#444488;stroke:#444488;stroke-linejoin:miter;"/>
   </g>
   <g id="patch_130">
    <path clip-path="url(#pe655a54d91)" d="M 379.714064 307.909893 
L 382.181985 307.909893 
L 382.181985 241.543459 
L 379.714064 241.543459 
z
" style="fill:#444488;stroke:#444488;stroke-linejoin:miter;"/>
   </g>
   <g id="patch_131">
    <path clip-path="url(#pe655a54d91)" d="M 382.181985 307.909893 
L 384.649906 307.909893 
L 384.649906 237.24456 
L 382.181985 237.24456 
z
" style="fill:#444488;stroke:#444488;stroke-linejoin:miter;"/>
   </g>
   <g id="patch_132">
    <path clip-path="url(#pe655a54d91)" d="M 384.649906 307.909893 
L 387.117826 307.909893 
L 387.117826 232.356155 
L 384.649906 232.356155 
z
" style="fill:#444488;stroke:#444488;stroke-linejoin:miter;"/>
   </g>
   <g id="patch_133">
    <path clip-path="url(#pe655a54d91)" d="M 387.117826 307.909893 
L 389.585747 307.909893 
L 389.585747 226.463998 
L 387.117826 226.463998 
z
" style="fill:#444488;stroke:#444488;stroke-linejoin:miter;"/>
   </g>
   <g id="patch_134">
    <path clip-path="url(#pe655a54d91)" d="M 389.585747 307.909893 
L 392.053667 307.909893 
L 392.053667 221.261286 
L 389.585747 221.261286 
z
" style="fill:#444488;stroke:#444488;stroke-linejoin:miter;"/>
   </g>
   <g id="patch_135">
    <path clip-path="url(#pe655a54d91)" d="M 392.053667 307.909893 
L 394.521588 307.909893 
L 394.521588 213.744006 
L 392.053667 213.744006 
z
" style="fill:#444488;stroke:#444488;stroke-linejoin:miter;"/>
   </g>
   <g id="patch_136">
    <path clip-path="url(#pe655a54d91)" d="M 394.521588 307.909893 
L 396.989509 307.909893 
L 396.989509 209.271296 
L 394.521588 209.271296 
z
" style="fill:#444488;stroke:#444488;stroke-linejoin:miter;"/>
   </g>
   <g id="patch_137">
    <path clip-path="url(#pe655a54d91)" d="M 396.989509 307.909893 
L 399.457429 307.909893 
L 399.457429 202.120465 
L 396.989509 202.120465 
z
" style="fill:#444488;stroke:#444488;stroke-linejoin:miter;"/>
   </g>
   <g id="patch_138">
    <path clip-path="url(#pe655a54d91)" d="M 399.457429 307.909893 
L 401.92535 307.909893 
L 401.92535 194.598839 
L 399.457429 194.598839 
z
" style="fill:#444488;stroke:#444488;stroke-linejoin:miter;"/>
   </g>
   <g id="patch_139">
    <path clip-path="url(#pe655a54d91)" d="M 401.92535 307.909893 
L 404.39327 307.909893 
L 404.39327 185.505682 
L 401.92535 185.505682 
z
" style="fill:#444488;stroke:#444488;stroke-linejoin:miter;"/>
   </g>
   <g id="patch_140">
    <path clip-path="url(#pe655a54d91)" d="M 404.39327 307.909893 
L 406.861191 307.909893 
L 406.861191 177.094729 
L 404.39327 177.094729 
z
" style="fill:#444488;stroke:#444488;stroke-linejoin:miter;"/>
   </g>
   <g id="patch_141">
    <path clip-path="url(#pe655a54d91)" d="M 406.861191 307.909893 
L 409.329112 307.909893 
L 409.329112 168.069647 
L 406.861191 168.069647 
z
" style="fill:#444488;stroke:#444488;stroke-linejoin:miter;"/>
   </g>
   <g id="patch_142">
    <path clip-path="url(#pe655a54d91)" d="M 409.329112 307.909893 
L 411.797032 307.909893 
L 411.797032 159.941135 
L 409.329112 159.941135 
z
" style="fill:#444488;stroke:#444488;stroke-linejoin:miter;"/>
   </g>
   <g id="patch_143">
    <path clip-path="url(#pe655a54d91)" d="M 411.797032 307.909893 
L 414.264953 307.909893 
L 414.264953 148.123506 
L 411.797032 148.123506 
z
" style="fill:#444488;stroke:#444488;stroke-linejoin:miter;"/>
   </g>
   <g id="patch_144">
    <path clip-path="url(#pe655a54d91)" d="M 414.264953 307.909893 
L 416.732873 307.909893 
L 416.732873 140.588845 
L 414.264953 140.588845 
z
" style="fill:#444488;stroke:#444488;stroke-linejoin:miter;"/>
   </g>
   <g id="patch_145">
    <path clip-path="url(#pe655a54d91)" d="M 416.732873 307.909893 
L 419.200794 307.909893 
L 419.200794 125.361644 
L 416.732873 125.361644 
z
" style="fill:#444488;stroke:#444488;stroke-linejoin:miter;"/>
   </g>
   <g id="patch_146">
    <path clip-path="url(#pe655a54d91)" d="M 419.200794 307.909893 
L 421.668715 307.909893 
L 421.668715 113.604849 
L 419.200794 113.604849 
z
" style="fill:#444488;stroke:#444488;stroke-linejoin:miter;"/>
   </g>
   <g id="patch_147">
    <path clip-path="url(#pe655a54d91)" d="M 421.668715 307.909893 
L 424.136635 307.909893 
L 424.136635 98.563046 
L 421.668715 98.563046 
z
" style="fill:#444488;stroke:#444488;stroke-linejoin:miter;"/>
   </g>
   <g id="patch_148">
    <path clip-path="url(#pe655a54d91)" d="M 424.136635 307.909893 
L 426.604556 307.909893 
L 426.604556 85.350593 
L 424.136635 85.350593 
z
" style="fill:#444488;stroke:#444488;stroke-linejoin:miter;"/>
   </g>
   <g id="patch_149">
    <path clip-path="url(#pe655a54d91)" d="M 426.604556 307.909893 
L 429.072476 307.909893 
L 429.072476 70.375417 
L 426.604556 70.375417 
z
" style="fill:#444488;stroke:#444488;stroke-linejoin:miter;"/>
   </g>
   <g id="patch_150">
    <path clip-path="url(#pe655a54d91)" d="M 429.072476 307.909893 
L 431.540397 307.909893 
L 431.540397 56.241771 
L 429.072476 56.241771 
z
" style="fill:#444488;stroke:#444488;stroke-linejoin:miter;"/>
   </g>
   <g id="patch_151">
    <path clip-path="url(#pe655a54d91)" d="M 431.540397 307.909893 
L 434.008318 307.909893 
L 434.008318 39.347443 
L 431.540397 39.347443 
z
" style="fill:#444488;stroke:#444488;stroke-linejoin:miter;"/>
   </g>
   <g id="patch_152">
    <path clip-path="url(#pe655a54d91)" d="M 434.008318 307.909893 
L 436.476238 307.909893 
L 436.476238 16.527645 
L 434.008318 16.527645 
z
" style="fill:#444488;stroke:#444488;stroke-linejoin:miter;"/>
   </g>
   <g id="matplotlib.axis_1">
    <g id="xtick_1">
     <g id="line2d_1">
      <defs>
       <path d="M 0 0 
L 0 3.5 
" id="m19a2de2ba5" style="stroke:#000000;stroke-width:0.8;"/>
      </defs>
      <g>
       <use style="stroke:#000000;stroke-width:0.8;" x="121.589754" xlink:href="#m19a2de2ba5" y="307.909893"/>
      </g>
     </g>
     <g id="text_1">
      <!-- 4 -->
      <defs>
       <path d="M 35.203125 17 
L 44.296875 17 
L 44.296875 23.078125 
L 35.203125 23.078125 
L 35.203125 65.5 
L 26.40625 65.5 
L 2.59375 23.078125 
L 2.59375 17 
L 27.296875 17 
L 27.296875 0 
L 35.203125 0 
z
M 10.296875 23.078125 
C 16.09375 33.234375 27.59375 53.734375 27.59375 60.703125 
L 27.59375 23.078125 
z
" id="CMSS17-52"/>
      </defs>
      <g transform="translate(117.687761 325.979482)scale(0.16 -0.16)">
       <use transform="scale(0.996264)" xlink:href="#CMSS17-52"/>
      </g>
     </g>
    </g>
    <g id="xtick_2">
     <g id="line2d_2">
      <g>
       <use style="stroke:#000000;stroke-width:0.8;" x="190.625948" xlink:href="#m19a2de2ba5" y="307.909893"/>
      </g>
     </g>
     <g id="text_2">
      <!-- 6 -->
      <defs>
       <path d="M 39 64.078125 
C 34.796875 65.78125 31.796875 66.078125 29 66.078125 
C 16 66.078125 3.90625 52.625 3.90625 31.34375 
C 3.90625 4.140625 15.40625 -2 23.59375 -2 
C 28.09375 -2 32.59375 -0.609375 36.90625 4.375 
C 41.296875 9.640625 43 14.03125 43 21.703125 
C 43 34.046875 36.90625 45 27.796875 45 
C 21.203125 45 15.5 41.515625 12 37.125 
C 13 50.90625 19.59375 60 29.09375 60 
C 31.703125 60 35.09375 59.625 39 57.96875 
z
M 12.09375 21.390625 
C 12.09375 22.1875 12.09375 22.6875 12.203125 24.1875 
C 12.203125 31.953125 16.703125 38.921875 24 38.921875 
C 28.703125 38.921875 31.09375 36.4375 32.90625 33.359375 
C 35 29.46875 35.09375 25.78125 35.09375 21.6875 
C 35.09375 17.8125 35.09375 13.921875 32.796875 9.953125 
C 30.90625 6.859375 28.40625 4.171875 23.59375 4.171875 
C 14.09375 4.171875 12.5 17.40625 12.09375 21.390625 
z
" id="CMSS17-54"/>
      </defs>
      <g transform="translate(186.723955 325.979482)scale(0.16 -0.16)">
       <use transform="scale(0.996264)" xlink:href="#CMSS17-54"/>
      </g>
     </g>
    </g>
    <g id="xtick_3">
     <g id="line2d_3">
      <g>
       <use style="stroke:#000000;stroke-width:0.8;" x="259.662142" xlink:href="#m19a2de2ba5" y="307.909893"/>
      </g>
     </g>
     <g id="text_3">
      <!-- 8 -->
      <defs>
       <path d="M 30.203125 34.71875 
C 37.796875 37.1875 41.703125 43.125 41.703125 48.96875 
C 41.703125 58.15625 33.703125 66.078125 23.5 66.078125 
C 12.90625 66.078125 5.203125 57.9375 5.203125 49.125 
C 5.203125 43.4375 9 37.546875 16.703125 35.015625 
C 6.90625 31.203125 3.90625 23.625 3.90625 17.953125 
C 3.90625 6.96875 12.796875 -2 23.40625 -2 
C 34.40625 -2 43 7.109375 43 17.78125 
C 43 24.328125 39.09375 31.25 30.203125 34.71875 
z
M 23.5 38 
C 16.796875 38 12.296875 42.375 12.296875 49 
C 12.296875 55.71875 16.796875 60 23.5 60 
C 29.703125 60 34.59375 56.109375 34.59375 49 
C 34.59375 41.984375 29.796875 38 23.5 38 
z
M 23.5 4.171875 
C 17.796875 4.171875 11.703125 8.078125 11.703125 18.0625 
C 11.703125 28.328125 18.5 31.921875 23.40625 31.921875 
C 28.796875 31.921875 35.203125 28.125 35.203125 18.0625 
C 35.203125 7.671875 28.59375 4.171875 23.5 4.171875 
z
" id="CMSS17-56"/>
      </defs>
      <g transform="translate(255.760148 325.979482)scale(0.16 -0.16)">
       <use transform="scale(0.996264)" xlink:href="#CMSS17-56"/>
      </g>
     </g>
    </g>
    <g id="xtick_4">
     <g id="line2d_4">
      <g>
       <use style="stroke:#000000;stroke-width:0.8;" x="328.698335" xlink:href="#m19a2de2ba5" y="307.909893"/>
      </g>
     </g>
     <g id="text_4">
      <!-- 10 -->
      <defs>
       <path d="M 28.40625 67 
L 26.5 67 
C 21.09375 61.5625 14.796875 60.78125 8.40625 60.78125 
L 8.40625 55 
C 11.296875 55 16 55 20.703125 57.296875 
L 20.703125 5.765625 
L 8.90625 5.765625 
L 8.90625 0 
L 40.203125 0 
L 40.203125 5.765625 
L 28.40625 5.765625 
z
" id="CMSS17-49"/>
       <path d="M 43.09375 31.9375 
C 43.09375 37.578125 43 48.078125 38.90625 56.1875 
C 34.796875 64 28.203125 66.078125 23.5 66.078125 
C 16.703125 66.078125 10.90625 62.109375 7.90625 55.78125 
C 4.703125 49.15625 3.796875 42.328125 3.796875 31.9375 
C 3.796875 24.828125 4.09375 16.109375 7.703125 8.484375 
C 11.796875 0.078125 18.703125 -2 23.40625 -2 
C 29.59375 -2 35.59375 1.265625 39 8.09375 
C 42.5 15.21875 43.09375 23.03125 43.09375 31.9375 
z
M 23.40625 4.078125 
C 15.796875 4.078125 13.5 12.671875 12.796875 15.546875 
C 11.59375 20.46875 11.40625 25.21875 11.40625 33.03125 
C 11.40625 39.15625 11.40625 46.0625 13.296875 51.515625 
C 15.59375 57.828125 19.59375 60 23.40625 60 
C 30.796875 60 33.203125 52.6875 34 50.125 
C 35.5 44.890625 35.5 38.765625 35.5 33.03125 
C 35.5 23.84375 35.5 4.078125 23.40625 4.078125 
z
" id="CMSS17-48"/>
      </defs>
      <g transform="translate(320.894348 325.979482)scale(0.16 -0.16)">
       <use transform="scale(0.996264)" xlink:href="#CMSS17-49"/>
       <use transform="translate(46.843624 0)scale(0.996264)" xlink:href="#CMSS17-48"/>
      </g>
     </g>
    </g>
    <g id="xtick_5">
     <g id="line2d_5">
      <g>
       <use style="stroke:#000000;stroke-width:0.8;" x="397.734529" xlink:href="#m19a2de2ba5" y="307.909893"/>
      </g>
     </g>
     <g id="text_5">
      <!-- 12 -->
      <defs>
       <path d="M 25.796875 21.203125 
C 28.59375 24.078125 32.796875 27.5625 35.703125 31.046875 
C 38.5 34.4375 42.203125 39.234375 42.203125 46.203125 
C 42.203125 57.140625 34.796875 67 22.203125 67 
C 12.296875 67 6.59375 60.828125 3.90625 51.15625 
L 7.796875 45.765625 
C 10 54.84375 13.09375 60.625 20.90625 60.625 
C 29.5 60.625 34.296875 53.640625 34.296875 45.96875 
C 34.296875 36.796875 27.296875 29.703125 22 24.421875 
C 16.09375 18.546875 10.296875 12.5625 4.703125 6.375 
L 4.703125 0 
L 42.203125 0 
L 42.203125 6.765625 
L 25.203125 6.765625 
C 24 6.765625 22.796875 6.765625 21.59375 6.765625 
L 11.59375 6.765625 
L 11.59375 6.859375 
z
" id="CMSS17-50"/>
      </defs>
      <g transform="translate(389.930542 325.979482)scale(0.16 -0.16)">
       <use transform="scale(0.996264)" xlink:href="#CMSS17-49"/>
       <use transform="translate(46.843624 0)scale(0.996264)" xlink:href="#CMSS17-50"/>
      </g>
     </g>
    </g>
    <g id="xtick_6">
     <g id="line2d_6">
      <defs>
       <path d="M 0 0 
L 0 2 
" id="ma2a85ff64e" style="stroke:#000000;stroke-width:0.6;"/>
      </defs>
      <g>
       <use style="stroke:#000000;stroke-width:0.6;" x="69.812609" xlink:href="#ma2a85ff64e" y="307.909893"/>
      </g>
     </g>
    </g>
    <g id="xtick_7">
     <g id="line2d_7">
      <g>
       <use style="stroke:#000000;stroke-width:0.6;" x="87.071658" xlink:href="#ma2a85ff64e" y="307.909893"/>
      </g>
     </g>
    </g>
    <g id="xtick_8">
     <g id="line2d_8">
      <g>
       <use style="stroke:#000000;stroke-width:0.6;" x="104.330706" xlink:href="#ma2a85ff64e" y="307.909893"/>
      </g>
     </g>
    </g>
    <g id="xtick_9">
     <g id="line2d_9">
      <g>
       <use style="stroke:#000000;stroke-width:0.6;" x="138.848803" xlink:href="#ma2a85ff64e" y="307.909893"/>
      </g>
     </g>
    </g>
    <g id="xtick_10">
     <g id="line2d_10">
      <g>
       <use style="stroke:#000000;stroke-width:0.6;" x="156.107851" xlink:href="#ma2a85ff64e" y="307.909893"/>
      </g>
     </g>
    </g>
    <g id="xtick_11">
     <g id="line2d_11">
      <g>
       <use style="stroke:#000000;stroke-width:0.6;" x="173.3669" xlink:href="#ma2a85ff64e" y="307.909893"/>
      </g>
     </g>
    </g>
    <g id="xtick_12">
     <g id="line2d_12">
      <g>
       <use style="stroke:#000000;stroke-width:0.6;" x="207.884996" xlink:href="#ma2a85ff64e" y="307.909893"/>
      </g>
     </g>
    </g>
    <g id="xtick_13">
     <g id="line2d_13">
      <g>
       <use style="stroke:#000000;stroke-width:0.6;" x="225.144045" xlink:href="#ma2a85ff64e" y="307.909893"/>
      </g>
     </g>
    </g>
    <g id="xtick_14">
     <g id="line2d_14">
      <g>
       <use style="stroke:#000000;stroke-width:0.6;" x="242.403093" xlink:href="#ma2a85ff64e" y="307.909893"/>
      </g>
     </g>
    </g>
    <g id="xtick_15">
     <g id="line2d_15">
      <g>
       <use style="stroke:#000000;stroke-width:0.6;" x="276.92119" xlink:href="#ma2a85ff64e" y="307.909893"/>
      </g>
     </g>
    </g>
    <g id="xtick_16">
     <g id="line2d_16">
      <g>
       <use style="stroke:#000000;stroke-width:0.6;" x="294.180238" xlink:href="#ma2a85ff64e" y="307.909893"/>
      </g>
     </g>
    </g>
    <g id="xtick_17">
     <g id="line2d_17">
      <g>
       <use style="stroke:#000000;stroke-width:0.6;" x="311.439287" xlink:href="#ma2a85ff64e" y="307.909893"/>
      </g>
     </g>
    </g>
    <g id="xtick_18">
     <g id="line2d_18">
      <g>
       <use style="stroke:#000000;stroke-width:0.6;" x="345.957383" xlink:href="#ma2a85ff64e" y="307.909893"/>
      </g>
     </g>
    </g>
    <g id="xtick_19">
     <g id="line2d_19">
      <g>
       <use style="stroke:#000000;stroke-width:0.6;" x="363.216432" xlink:href="#ma2a85ff64e" y="307.909893"/>
      </g>
     </g>
    </g>
    <g id="xtick_20">
     <g id="line2d_20">
      <g>
       <use style="stroke:#000000;stroke-width:0.6;" x="380.47548" xlink:href="#ma2a85ff64e" y="307.909893"/>
      </g>
     </g>
    </g>
    <g id="xtick_21">
     <g id="line2d_21">
      <g>
       <use style="stroke:#000000;stroke-width:0.6;" x="414.993577" xlink:href="#ma2a85ff64e" y="307.909893"/>
      </g>
     </g>
    </g>
    <g id="xtick_22">
     <g id="line2d_22">
      <g>
       <use style="stroke:#000000;stroke-width:0.6;" x="432.252625" xlink:href="#ma2a85ff64e" y="307.909893"/>
      </g>
     </g>
    </g>
   </g>
   <g id="matplotlib.axis_2">
    <g id="ytick_1">
     <g id="line2d_23">
      <defs>
       <path d="M 0 0 
L -3.5 0 
" id="m9bfd66cd3e" style="stroke:#000000;stroke-width:0.8;"/>
      </defs>
      <g>
       <use style="stroke:#000000;stroke-width:0.8;" x="48.884387" xlink:href="#m9bfd66cd3e" y="307.909893"/>
      </g>
     </g>
     <g id="text_6">
      <!-- 0 -->
      <g transform="translate(34.0804 313.444688)scale(0.16 -0.16)">
       <use transform="scale(0.996264)" xlink:href="#CMSS17-48"/>
      </g>
     </g>
    </g>
    <g id="ytick_2">
     <g id="line2d_24">
      <g>
       <use style="stroke:#000000;stroke-width:0.8;" x="48.884387" xlink:href="#m9bfd66cd3e" y="235.489079"/>
      </g>
     </g>
     <g id="text_7">
      <!-- 5e4 -->
      <defs>
       <path d="M 14.59375 58.625 
L 39.09375 58.625 
L 39.09375 65 
L 7.296875 65 
L 7.296875 27.828125 
L 14 27.828125 
C 15.796875 31.96875 19.5 35 24.296875 35 
C 28.796875 35 33.796875 31.078125 33.796875 19.78125 
C 33.796875 7.703125 26.703125 4.171875 21.5 4.171875 
C 15.09375 4.171875 9.203125 8 6.59375 13.296875 
L 3.40625 7.796875 
C 8 0.765625 15.5 -2 21.5 -2 
C 33.09375 -2 42.203125 7.765625 42.203125 19.578125 
C 42.203125 31.71875 34.09375 41.078125 24.40625 41.078125 
C 20.90625 41.078125 17.5 39.890625 14.59375 37.484375 
z
" id="CMSS17-53"/>
       <path d="M 39.09375 21.515625 
C 39.09375 24.84375 38.90625 31.296875 35.703125 36.640625 
C 32.203125 42.390625 26.5 44 22.203125 44 
C 11.796875 44 3 34.1875 3 21.484375 
C 3 9.09375 12.09375 -1 23.59375 -1 
C 28.09375 -1 33.59375 0.296875 38.59375 3.875 
C 38.59375 4.28125 38.40625 6.46875 38.296875 6.5625 
C 38.296875 6.765625 38 9.84375 38 10.25 
C 33.203125 6.359375 27.703125 5.078125 23.703125 5.078125 
C 17.296875 5.078125 10.40625 10.421875 10.09375 21.515625 
z
M 10.90625 27 
C 12.203125 32.5625 16.59375 37.828125 22.203125 37.828125 
C 23.703125 37.828125 30.703125 37.828125 32.5 27 
z
" id="CMSS17-101"/>
      </defs>
      <g transform="translate(19.339535 241.023874)scale(0.16 -0.16)">
       <use transform="scale(0.996264)" xlink:href="#CMSS17-53"/>
       <use transform="translate(46.843624 0)scale(0.996264)" xlink:href="#CMSS17-101"/>
       <use transform="translate(88.482446 0)scale(0.996264)" xlink:href="#CMSS17-52"/>
      </g>
     </g>
    </g>
    <g id="ytick_3">
     <g id="line2d_25">
      <g>
       <use style="stroke:#000000;stroke-width:0.8;" x="48.884387" xlink:href="#m9bfd66cd3e" y="163.068265"/>
      </g>
     </g>
     <g id="text_8">
      <!-- 1e5 -->
      <g transform="translate(19.339535 168.60306)scale(0.16 -0.16)">
       <use transform="scale(0.996264)" xlink:href="#CMSS17-49"/>
       <use transform="translate(46.843624 0)scale(0.996264)" xlink:href="#CMSS17-101"/>
       <use transform="translate(88.482446 0)scale(0.996264)" xlink:href="#CMSS17-53"/>
      </g>
     </g>
    </g>
    <g id="ytick_4">
     <g id="line2d_26">
      <g>
       <use style="stroke:#000000;stroke-width:0.8;" x="48.884387" xlink:href="#m9bfd66cd3e" y="90.647451"/>
      </g>
     </g>
     <g id="text_9">
      <!-- 1.5e5 -->
      <defs>
       <path d="M 17 7.96875 
L 9 7.96875 
L 9 0 
L 17 0 
z
" id="CMSS17-46"/>
      </defs>
      <g transform="translate(7.2 96.182245)scale(0.16 -0.16)">
       <use transform="scale(0.996264)" xlink:href="#CMSS17-49"/>
       <use transform="translate(46.843624 0)scale(0.996264)" xlink:href="#CMSS17-46"/>
       <use transform="translate(72.867828 0)scale(0.996264)" xlink:href="#CMSS17-53"/>
       <use transform="translate(119.711452 0)scale(0.996264)" xlink:href="#CMSS17-101"/>
       <use transform="translate(161.350274 0)scale(0.996264)" xlink:href="#CMSS17-53"/>
      </g>
     </g>
    </g>
    <g id="ytick_5">
     <g id="line2d_27">
      <g>
       <use style="stroke:#000000;stroke-width:0.8;" x="48.884387" xlink:href="#m9bfd66cd3e" y="18.226637"/>
      </g>
     </g>
     <g id="text_10">
      <!-- 2e5 -->
      <g transform="translate(19.339535 23.761431)scale(0.16 -0.16)">
       <use transform="scale(0.996264)" xlink:href="#CMSS17-50"/>
       <use transform="translate(46.843624 0)scale(0.996264)" xlink:href="#CMSS17-101"/>
       <use transform="translate(88.482446 0)scale(0.996264)" xlink:href="#CMSS17-53"/>
      </g>
     </g>
    </g>
    <g id="ytick_6">
     <g id="line2d_28">
      <defs>
       <path d="M 0 0 
L -2 0 
" id="m19e7e2af7f" style="stroke:#000000;stroke-width:0.6;"/>
      </defs>
      <g>
       <use style="stroke:#000000;stroke-width:0.6;" x="48.884387" xlink:href="#m19e7e2af7f" y="293.425731"/>
      </g>
     </g>
    </g>
    <g id="ytick_7">
     <g id="line2d_29">
      <g>
       <use style="stroke:#000000;stroke-width:0.6;" x="48.884387" xlink:href="#m19e7e2af7f" y="278.941568"/>
      </g>
     </g>
    </g>
    <g id="ytick_8">
     <g id="line2d_30">
      <g>
       <use style="stroke:#000000;stroke-width:0.6;" x="48.884387" xlink:href="#m19e7e2af7f" y="264.457405"/>
      </g>
     </g>
    </g>
    <g id="ytick_9">
     <g id="line2d_31">
      <g>
       <use style="stroke:#000000;stroke-width:0.6;" x="48.884387" xlink:href="#m19e7e2af7f" y="249.973242"/>
      </g>
     </g>
    </g>
    <g id="ytick_10">
     <g id="line2d_32">
      <g>
       <use style="stroke:#000000;stroke-width:0.6;" x="48.884387" xlink:href="#m19e7e2af7f" y="221.004917"/>
      </g>
     </g>
    </g>
    <g id="ytick_11">
     <g id="line2d_33">
      <g>
       <use style="stroke:#000000;stroke-width:0.6;" x="48.884387" xlink:href="#m19e7e2af7f" y="206.520754"/>
      </g>
     </g>
    </g>
    <g id="ytick_12">
     <g id="line2d_34">
      <g>
       <use style="stroke:#000000;stroke-width:0.6;" x="48.884387" xlink:href="#m19e7e2af7f" y="192.036591"/>
      </g>
     </g>
    </g>
    <g id="ytick_13">
     <g id="line2d_35">
      <g>
       <use style="stroke:#000000;stroke-width:0.6;" x="48.884387" xlink:href="#m19e7e2af7f" y="177.552428"/>
      </g>
     </g>
    </g>
    <g id="ytick_14">
     <g id="line2d_36">
      <g>
       <use style="stroke:#000000;stroke-width:0.6;" x="48.884387" xlink:href="#m19e7e2af7f" y="148.584103"/>
      </g>
     </g>
    </g>
    <g id="ytick_15">
     <g id="line2d_37">
      <g>
       <use style="stroke:#000000;stroke-width:0.6;" x="48.884387" xlink:href="#m19e7e2af7f" y="134.09994"/>
      </g>
     </g>
    </g>
    <g id="ytick_16">
     <g id="line2d_38">
      <g>
       <use style="stroke:#000000;stroke-width:0.6;" x="48.884387" xlink:href="#m19e7e2af7f" y="119.615777"/>
      </g>
     </g>
    </g>
    <g id="ytick_17">
     <g id="line2d_39">
      <g>
       <use style="stroke:#000000;stroke-width:0.6;" x="48.884387" xlink:href="#m19e7e2af7f" y="105.131614"/>
      </g>
     </g>
    </g>
    <g id="ytick_18">
     <g id="line2d_40">
      <g>
       <use style="stroke:#000000;stroke-width:0.6;" x="48.884387" xlink:href="#m19e7e2af7f" y="76.163289"/>
      </g>
     </g>
    </g>
    <g id="ytick_19">
     <g id="line2d_41">
      <g>
       <use style="stroke:#000000;stroke-width:0.6;" x="48.884387" xlink:href="#m19e7e2af7f" y="61.679126"/>
      </g>
     </g>
    </g>
    <g id="ytick_20">
     <g id="line2d_42">
      <g>
       <use style="stroke:#000000;stroke-width:0.6;" x="48.884387" xlink:href="#m19e7e2af7f" y="47.194963"/>
      </g>
     </g>
    </g>
    <g id="ytick_21">
     <g id="line2d_43">
      <g>
       <use style="stroke:#000000;stroke-width:0.6;" x="48.884387" xlink:href="#m19e7e2af7f" y="32.7108"/>
      </g>
     </g>
    </g>
   </g>
   <g id="patch_153">
    <path d="M 48.884387 313.737538 
L 48.884387 10.7 
" style="fill:none;stroke:#000000;stroke-linecap:square;stroke-linejoin:miter;stroke-width:0.8;"/>
   </g>
   <g id="patch_154">
    <path d="M 58.884387 307.909893 
L 443.88 307.909893 
" style="fill:none;stroke:#000000;stroke-linecap:square;stroke-linejoin:miter;stroke-width:0.8;"/>
   </g>
  </g>
 </g>
 <defs>
  <clipPath id="pe655a54d91">
   <rect height="303.037538" width="384.995613" x="58.884387" y="10.7"/>
  </clipPath>
 </defs>
</svg>
