<?xml version="1.0" encoding="utf-8" standalone="no"?>
<!DOCTYPE svg PUBLIC "-//W3C//DTD SVG 1.1//EN"
  "http://www.w3.org/Graphics/SVG/1.1/DTD/svg11.dtd">
<!-- Created with matplotlib (http://matplotlib.org/) -->
<svg height="336.622154pt" version="1.1" viewBox="0 0 454.58 336.622154" width="454.58pt" xmlns="http://www.w3.org/2000/svg" xmlns:xlink="http://www.w3.org/1999/xlink">
 <defs>
  <style type="text/css">
*{stroke-linecap:butt;stroke-linejoin:round;}
  </style>
 </defs>
 <g id="figure_1">
  <g id="patch_1">
   <path d="M 0 336.622154 
L 454.58 336.622154 
L 454.58 0 
L 0 0 
z
" style="fill:none;"/>
  </g>
  <g id="axes_1">
   <g id="patch_2">
    <path d="M 46.744851 325.922154 
L 443.88 325.922154 
L 443.88 10.7 
L 46.744851 10.7 
z
" style="fill:none;"/>
   </g>
   <g id="patch_3">
    <path clip-path="url(#p5603cec09f)" d="M 54.382066 305.426941 
L 56.927804 305.426941 
L 56.927804 305.418281 
L 54.382066 305.418281 
z
" style="fill:#444488;stroke:#444488;stroke-linejoin:miter;"/>
   </g>
   <g id="patch_4">
    <path clip-path="url(#p5603cec09f)" d="M 56.927804 305.426941 
L 59.473542 305.426941 
L 59.473542 305.386527 
L 56.927804 305.386527 
z
" style="fill:#444488;stroke:#444488;stroke-linejoin:miter;"/>
   </g>
   <g id="patch_5">
    <path clip-path="url(#p5603cec09f)" d="M 59.473542 305.426941 
L 62.01928 305.426941 
L 62.01928 305.426941 
L 59.473542 305.426941 
z
" style="fill:#444488;stroke:#444488;stroke-linejoin:miter;"/>
   </g>
   <g id="patch_6">
    <path clip-path="url(#p5603cec09f)" d="M 62.01928 305.426941 
L 64.565018 305.426941 
L 64.565018 305.398074 
L 62.01928 305.398074 
z
" style="fill:#444488;stroke:#444488;stroke-linejoin:miter;"/>
   </g>
   <g id="patch_7">
    <path clip-path="url(#p5603cec09f)" d="M 64.565018 305.426941 
L 67.110756 305.426941 
L 67.110756 305.409621 
L 64.565018 305.409621 
z
" style="fill:#444488;stroke:#444488;stroke-linejoin:miter;"/>
   </g>
   <g id="patch_8">
    <path clip-path="url(#p5603cec09f)" d="M 67.110756 305.426941 
L 69.656495 305.426941 
L 69.656495 305.377868 
L 67.110756 305.377868 
z
" style="fill:#444488;stroke:#444488;stroke-linejoin:miter;"/>
   </g>
   <g id="patch_9">
    <path clip-path="url(#p5603cec09f)" d="M 69.656495 305.426941 
L 72.202233 305.426941 
L 72.202233 305.383641 
L 69.656495 305.383641 
z
" style="fill:#444488;stroke:#444488;stroke-linejoin:miter;"/>
   </g>
   <g id="patch_10">
    <path clip-path="url(#p5603cec09f)" d="M 72.202233 305.426941 
L 74.747971 305.426941 
L 74.747971 305.386527 
L 72.202233 305.386527 
z
" style="fill:#444488;stroke:#444488;stroke-linejoin:miter;"/>
   </g>
   <g id="patch_11">
    <path clip-path="url(#p5603cec09f)" d="M 74.747971 305.426941 
L 77.293709 305.426941 
L 77.293709 305.346114 
L 74.747971 305.346114 
z
" style="fill:#444488;stroke:#444488;stroke-linejoin:miter;"/>
   </g>
   <g id="patch_12">
    <path clip-path="url(#p5603cec09f)" d="M 77.293709 305.426941 
L 79.839447 305.426941 
L 79.839447 305.374981 
L 77.293709 305.374981 
z
" style="fill:#444488;stroke:#444488;stroke-linejoin:miter;"/>
   </g>
   <g id="patch_13">
    <path clip-path="url(#p5603cec09f)" d="M 79.839447 305.426941 
L 82.385185 305.426941 
L 82.385185 305.328794 
L 79.839447 305.328794 
z
" style="fill:#444488;stroke:#444488;stroke-linejoin:miter;"/>
   </g>
   <g id="patch_14">
    <path clip-path="url(#p5603cec09f)" d="M 82.385185 305.426941 
L 84.930923 305.426941 
L 84.930923 305.323021 
L 82.385185 305.323021 
z
" style="fill:#444488;stroke:#444488;stroke-linejoin:miter;"/>
   </g>
   <g id="patch_15">
    <path clip-path="url(#p5603cec09f)" d="M 84.930923 305.426941 
L 87.476661 305.426941 
L 87.476661 305.282608 
L 84.930923 305.282608 
z
" style="fill:#444488;stroke:#444488;stroke-linejoin:miter;"/>
   </g>
   <g id="patch_16">
    <path clip-path="url(#p5603cec09f)" d="M 87.476661 305.426941 
L 90.0224 305.426941 
L 90.0224 305.314361 
L 87.476661 305.314361 
z
" style="fill:#444488;stroke:#444488;stroke-linejoin:miter;"/>
   </g>
   <g id="patch_17">
    <path clip-path="url(#p5603cec09f)" d="M 90.0224 305.426941 
L 92.568138 305.426941 
L 92.568138 305.285495 
L 90.0224 305.285495 
z
" style="fill:#444488;stroke:#444488;stroke-linejoin:miter;"/>
   </g>
   <g id="patch_18">
    <path clip-path="url(#p5603cec09f)" d="M 92.568138 305.426941 
L 95.113876 305.426941 
L 95.113876 305.213328 
L 92.568138 305.213328 
z
" style="fill:#444488;stroke:#444488;stroke-linejoin:miter;"/>
   </g>
   <g id="patch_19">
    <path clip-path="url(#p5603cec09f)" d="M 95.113876 305.426941 
L 97.659614 305.426941 
L 97.659614 305.138276 
L 95.113876 305.138276 
z
" style="fill:#444488;stroke:#444488;stroke-linejoin:miter;"/>
   </g>
   <g id="patch_20">
    <path clip-path="url(#p5603cec09f)" d="M 97.659614 305.426941 
L 100.205352 305.426941 
L 100.205352 305.164255 
L 97.659614 305.164255 
z
" style="fill:#444488;stroke:#444488;stroke-linejoin:miter;"/>
   </g>
   <g id="patch_21">
    <path clip-path="url(#p5603cec09f)" d="M 100.205352 305.426941 
L 102.75109 305.426941 
L 102.75109 305.178689 
L 100.205352 305.178689 
z
" style="fill:#444488;stroke:#444488;stroke-linejoin:miter;"/>
   </g>
   <g id="patch_22">
    <path clip-path="url(#p5603cec09f)" d="M 102.75109 305.426941 
L 105.296828 305.426941 
L 105.296828 304.947757 
L 102.75109 304.947757 
z
" style="fill:#444488;stroke:#444488;stroke-linejoin:miter;"/>
   </g>
   <g id="patch_23">
    <path clip-path="url(#p5603cec09f)" d="M 105.296828 305.426941 
L 107.842567 305.426941 
L 107.842567 304.956417 
L 105.296828 304.956417 
z
" style="fill:#444488;stroke:#444488;stroke-linejoin:miter;"/>
   </g>
   <g id="patch_24">
    <path clip-path="url(#p5603cec09f)" d="M 107.842567 305.426941 
L 110.388305 305.426941 
L 110.388305 304.921777 
L 107.842567 304.921777 
z
" style="fill:#444488;stroke:#444488;stroke-linejoin:miter;"/>
   </g>
   <g id="patch_25">
    <path clip-path="url(#p5603cec09f)" d="M 110.388305 305.426941 
L 112.934043 305.426941 
L 112.934043 304.765898 
L 110.388305 304.765898 
z
" style="fill:#444488;stroke:#444488;stroke-linejoin:miter;"/>
   </g>
   <g id="patch_26">
    <path clip-path="url(#p5603cec09f)" d="M 112.934043 305.426941 
L 115.479781 305.426941 
L 115.479781 304.644658 
L 112.934043 304.644658 
z
" style="fill:#444488;stroke:#444488;stroke-linejoin:miter;"/>
   </g>
   <g id="patch_27">
    <path clip-path="url(#p5603cec09f)" d="M 115.479781 305.426941 
L 118.025519 305.426941 
L 118.025519 304.526306 
L 115.479781 304.526306 
z
" style="fill:#444488;stroke:#444488;stroke-linejoin:miter;"/>
   </g>
   <g id="patch_28">
    <path clip-path="url(#p5603cec09f)" d="M 118.025519 305.426941 
L 120.571257 305.426941 
L 120.571257 304.494553 
L 118.025519 304.494553 
z
" style="fill:#444488;stroke:#444488;stroke-linejoin:miter;"/>
   </g>
   <g id="patch_29">
    <path clip-path="url(#p5603cec09f)" d="M 120.571257 305.426941 
L 123.116995 305.426941 
L 123.116995 304.168361 
L 120.571257 304.168361 
z
" style="fill:#444488;stroke:#444488;stroke-linejoin:miter;"/>
   </g>
   <g id="patch_30">
    <path clip-path="url(#p5603cec09f)" d="M 123.116995 305.426941 
L 125.662733 305.426941 
L 125.662733 303.87681 
L 123.116995 303.87681 
z
" style="fill:#444488;stroke:#444488;stroke-linejoin:miter;"/>
   </g>
   <g id="patch_31">
    <path clip-path="url(#p5603cec09f)" d="M 125.662733 305.426941 
L 128.208472 305.426941 
L 128.208472 303.977842 
L 125.662733 303.977842 
z
" style="fill:#444488;stroke:#444488;stroke-linejoin:miter;"/>
   </g>
   <g id="patch_32">
    <path clip-path="url(#p5603cec09f)" d="M 128.208472 305.426941 
L 130.75421 305.426941 
L 130.75421 303.524638 
L 128.208472 303.524638 
z
" style="fill:#444488;stroke:#444488;stroke-linejoin:miter;"/>
   </g>
   <g id="patch_33">
    <path clip-path="url(#p5603cec09f)" d="M 130.75421 305.426941 
L 133.299948 305.426941 
L 133.299948 303.397626 
L 130.75421 303.397626 
z
" style="fill:#444488;stroke:#444488;stroke-linejoin:miter;"/>
   </g>
   <g id="patch_34">
    <path clip-path="url(#p5603cec09f)" d="M 133.299948 305.426941 
L 135.845686 305.426941 
L 135.845686 302.866482 
L 133.299948 302.866482 
z
" style="fill:#444488;stroke:#444488;stroke-linejoin:miter;"/>
   </g>
   <g id="patch_35">
    <path clip-path="url(#p5603cec09f)" d="M 135.845686 305.426941 
L 138.391424 305.426941 
L 138.391424 302.621117 
L 135.845686 302.621117 
z
" style="fill:#444488;stroke:#444488;stroke-linejoin:miter;"/>
   </g>
   <g id="patch_36">
    <path clip-path="url(#p5603cec09f)" d="M 138.391424 305.426941 
L 140.937162 305.426941 
L 140.937162 301.928321 
L 138.391424 301.928321 
z
" style="fill:#444488;stroke:#444488;stroke-linejoin:miter;"/>
   </g>
   <g id="patch_37">
    <path clip-path="url(#p5603cec09f)" d="M 140.937162 305.426941 
L 143.4829 305.426941 
L 143.4829 301.899455 
L 140.937162 301.899455 
z
" style="fill:#444488;stroke:#444488;stroke-linejoin:miter;"/>
   </g>
   <g id="patch_38">
    <path clip-path="url(#p5603cec09f)" d="M 143.4829 305.426941 
L 146.028639 305.426941 
L 146.028639 301.180679 
L 143.4829 301.180679 
z
" style="fill:#444488;stroke:#444488;stroke-linejoin:miter;"/>
   </g>
   <g id="patch_39">
    <path clip-path="url(#p5603cec09f)" d="M 146.028639 305.426941 
L 148.574377 305.426941 
L 148.574377 301.348104 
L 146.028639 301.348104 
z
" style="fill:#444488;stroke:#444488;stroke-linejoin:miter;"/>
   </g>
   <g id="patch_40">
    <path clip-path="url(#p5603cec09f)" d="M 148.574377 305.426941 
L 151.120115 305.426941 
L 151.120115 299.621888 
L 148.574377 299.621888 
z
" style="fill:#444488;stroke:#444488;stroke-linejoin:miter;"/>
   </g>
   <g id="patch_41">
    <path clip-path="url(#p5603cec09f)" d="M 151.120115 305.426941 
L 153.665853 305.426941 
L 153.665853 300.280044 
L 151.120115 300.280044 
z
" style="fill:#444488;stroke:#444488;stroke-linejoin:miter;"/>
   </g>
   <g id="patch_42">
    <path clip-path="url(#p5603cec09f)" d="M 153.665853 305.426941 
L 156.211591 305.426941 
L 156.211591 299.636321 
L 153.665853 299.636321 
z
" style="fill:#444488;stroke:#444488;stroke-linejoin:miter;"/>
   </g>
   <g id="patch_43">
    <path clip-path="url(#p5603cec09f)" d="M 156.211591 305.426941 
L 158.757329 305.426941 
L 158.757329 297.858145 
L 156.211591 297.858145 
z
" style="fill:#444488;stroke:#444488;stroke-linejoin:miter;"/>
   </g>
   <g id="patch_44">
    <path clip-path="url(#p5603cec09f)" d="M 158.757329 305.426941 
L 161.303067 305.426941 
L 161.303067 297.202875 
L 158.757329 297.202875 
z
" style="fill:#444488;stroke:#444488;stroke-linejoin:miter;"/>
   </g>
   <g id="patch_45">
    <path clip-path="url(#p5603cec09f)" d="M 161.303067 305.426941 
L 163.848805 305.426941 
L 163.848805 297.930311 
L 161.303067 297.930311 
z
" style="fill:#444488;stroke:#444488;stroke-linejoin:miter;"/>
   </g>
   <g id="patch_46">
    <path clip-path="url(#p5603cec09f)" d="M 163.848805 305.426941 
L 166.394544 305.426941 
L 166.394544 294.775203 
L 163.848805 294.775203 
z
" style="fill:#444488;stroke:#444488;stroke-linejoin:miter;"/>
   </g>
   <g id="patch_47">
    <path clip-path="url(#p5603cec09f)" d="M 166.394544 305.426941 
L 168.940282 305.426941 
L 168.940282 295.442019 
L 166.394544 295.442019 
z
" style="fill:#444488;stroke:#444488;stroke-linejoin:miter;"/>
   </g>
   <g id="patch_48">
    <path clip-path="url(#p5603cec09f)" d="M 168.940282 305.426941 
L 171.48602 305.426941 
L 171.48602 293.851475 
L 168.940282 293.851475 
z
" style="fill:#444488;stroke:#444488;stroke-linejoin:miter;"/>
   </g>
   <g id="patch_49">
    <path clip-path="url(#p5603cec09f)" d="M 171.48602 305.426941 
L 174.031758 305.426941 
L 174.031758 293.251052 
L 171.48602 293.251052 
z
" style="fill:#444488;stroke:#444488;stroke-linejoin:miter;"/>
   </g>
   <g id="patch_50">
    <path clip-path="url(#p5603cec09f)" d="M 174.031758 305.426941 
L 176.577496 305.426941 
L 176.577496 290.145017 
L 174.031758 290.145017 
z
" style="fill:#444488;stroke:#444488;stroke-linejoin:miter;"/>
   </g>
   <g id="patch_51">
    <path clip-path="url(#p5603cec09f)" d="M 176.577496 305.426941 
L 179.123234 305.426941 
L 179.123234 288.744992 
L 176.577496 288.744992 
z
" style="fill:#444488;stroke:#444488;stroke-linejoin:miter;"/>
   </g>
   <g id="patch_52">
    <path clip-path="url(#p5603cec09f)" d="M 179.123234 305.426941 
L 181.668972 305.426941 
L 181.668972 287.601878 
L 179.123234 287.601878 
z
" style="fill:#444488;stroke:#444488;stroke-linejoin:miter;"/>
   </g>
   <g id="patch_53">
    <path clip-path="url(#p5603cec09f)" d="M 181.668972 305.426941 
L 184.21471 305.426941 
L 184.21471 287.29012 
L 181.668972 287.29012 
z
" style="fill:#444488;stroke:#444488;stroke-linejoin:miter;"/>
   </g>
   <g id="patch_54">
    <path clip-path="url(#p5603cec09f)" d="M 184.21471 305.426941 
L 186.760449 305.426941 
L 186.760449 284.888428 
L 184.21471 284.888428 
z
" style="fill:#444488;stroke:#444488;stroke-linejoin:miter;"/>
   </g>
   <g id="patch_55">
    <path clip-path="url(#p5603cec09f)" d="M 186.760449 305.426941 
L 189.306187 305.426941 
L 189.306187 281.274342 
L 186.760449 281.274342 
z
" style="fill:#444488;stroke:#444488;stroke-linejoin:miter;"/>
   </g>
   <g id="patch_56">
    <path clip-path="url(#p5603cec09f)" d="M 189.306187 305.426941 
L 191.851925 305.426941 
L 191.851925 281.236816 
L 189.306187 281.236816 
z
" style="fill:#444488;stroke:#444488;stroke-linejoin:miter;"/>
   </g>
   <g id="patch_57">
    <path clip-path="url(#p5603cec09f)" d="M 191.851925 305.426941 
L 194.397663 305.426941 
L 194.397663 279.28544 
L 191.851925 279.28544 
z
" style="fill:#444488;stroke:#444488;stroke-linejoin:miter;"/>
   </g>
   <g id="patch_58">
    <path clip-path="url(#p5603cec09f)" d="M 194.397663 305.426941 
L 196.943401 305.426941 
L 196.943401 275.397123 
L 194.397663 275.397123 
z
" style="fill:#444488;stroke:#444488;stroke-linejoin:miter;"/>
   </g>
   <g id="patch_59">
    <path clip-path="url(#p5603cec09f)" d="M 196.943401 305.426941 
L 199.489139 305.426941 
L 199.489139 273.901839 
L 196.943401 273.901839 
z
" style="fill:#444488;stroke:#444488;stroke-linejoin:miter;"/>
   </g>
   <g id="patch_60">
    <path clip-path="url(#p5603cec09f)" d="M 199.489139 305.426941 
L 202.034877 305.426941 
L 202.034877 272.218922 
L 199.489139 272.218922 
z
" style="fill:#444488;stroke:#444488;stroke-linejoin:miter;"/>
   </g>
   <g id="patch_61">
    <path clip-path="url(#p5603cec09f)" d="M 202.034877 305.426941 
L 204.580616 305.426941 
L 204.580616 267.834101 
L 202.034877 267.834101 
z
" style="fill:#444488;stroke:#444488;stroke-linejoin:miter;"/>
   </g>
   <g id="patch_62">
    <path clip-path="url(#p5603cec09f)" d="M 204.580616 305.426941 
L 207.126354 305.426941 
L 207.126354 265.221683 
L 204.580616 265.221683 
z
" style="fill:#444488;stroke:#444488;stroke-linejoin:miter;"/>
   </g>
   <g id="patch_63">
    <path clip-path="url(#p5603cec09f)" d="M 207.126354 305.426941 
L 209.672092 305.426941 
L 209.672092 263.99197 
L 207.126354 263.99197 
z
" style="fill:#444488;stroke:#444488;stroke-linejoin:miter;"/>
   </g>
   <g id="patch_64">
    <path clip-path="url(#p5603cec09f)" d="M 209.672092 305.426941 
L 212.21783 305.426941 
L 212.21783 255.770791 
L 209.672092 255.770791 
z
" style="fill:#444488;stroke:#444488;stroke-linejoin:miter;"/>
   </g>
   <g id="patch_65">
    <path clip-path="url(#p5603cec09f)" d="M 212.21783 305.426941 
L 214.763568 305.426941 
L 214.763568 254.009935 
L 212.21783 254.009935 
z
" style="fill:#444488;stroke:#444488;stroke-linejoin:miter;"/>
   </g>
   <g id="patch_66">
    <path clip-path="url(#p5603cec09f)" d="M 214.763568 305.426941 
L 217.309306 305.426941 
L 217.309306 250.79998 
L 214.763568 250.79998 
z
" style="fill:#444488;stroke:#444488;stroke-linejoin:miter;"/>
   </g>
   <g id="patch_67">
    <path clip-path="url(#p5603cec09f)" d="M 217.309306 305.426941 
L 219.855044 305.426941 
L 219.855044 245.953296 
L 217.309306 245.953296 
z
" style="fill:#444488;stroke:#444488;stroke-linejoin:miter;"/>
   </g>
   <g id="patch_68">
    <path clip-path="url(#p5603cec09f)" d="M 219.855044 305.426941 
L 222.400782 305.426941 
L 222.400782 247.532293 
L 219.855044 247.532293 
z
" style="fill:#444488;stroke:#444488;stroke-linejoin:miter;"/>
   </g>
   <g id="patch_69">
    <path clip-path="url(#p5603cec09f)" d="M 222.400782 305.426941 
L 224.946521 305.426941 
L 224.946521 239.132142 
L 222.400782 239.132142 
z
" style="fill:#444488;stroke:#444488;stroke-linejoin:miter;"/>
   </g>
   <g id="patch_70">
    <path clip-path="url(#p5603cec09f)" d="M 224.946521 305.426941 
L 227.492259 305.426941 
L 227.492259 235.746102 
L 224.946521 235.746102 
z
" style="fill:#444488;stroke:#444488;stroke-linejoin:miter;"/>
   </g>
   <g id="patch_71">
    <path clip-path="url(#p5603cec09f)" d="M 227.492259 305.426941 
L 230.037997 305.426941 
L 230.037997 230.206621 
L 227.492259 230.206621 
z
" style="fill:#444488;stroke:#444488;stroke-linejoin:miter;"/>
   </g>
   <g id="patch_72">
    <path clip-path="url(#p5603cec09f)" d="M 230.037997 305.426941 
L 232.583735 305.426941 
L 232.583735 227.418117 
L 230.037997 227.418117 
z
" style="fill:#444488;stroke:#444488;stroke-linejoin:miter;"/>
   </g>
   <g id="patch_73">
    <path clip-path="url(#p5603cec09f)" d="M 232.583735 305.426941 
L 235.129473 305.426941 
L 235.129473 223.102576 
L 232.583735 223.102576 
z
" style="fill:#444488;stroke:#444488;stroke-linejoin:miter;"/>
   </g>
   <g id="patch_74">
    <path clip-path="url(#p5603cec09f)" d="M 235.129473 305.426941 
L 237.675211 305.426941 
L 237.675211 215.07769 
L 235.129473 215.07769 
z
" style="fill:#444488;stroke:#444488;stroke-linejoin:miter;"/>
   </g>
   <g id="patch_75">
    <path clip-path="url(#p5603cec09f)" d="M 237.675211 305.426941 
L 240.220949 305.426941 
L 240.220949 210.326264 
L 237.675211 210.326264 
z
" style="fill:#444488;stroke:#444488;stroke-linejoin:miter;"/>
   </g>
   <g id="patch_76">
    <path clip-path="url(#p5603cec09f)" d="M 240.220949 305.426941 
L 242.766688 305.426941 
L 242.766688 203.56573 
L 240.220949 203.56573 
z
" style="fill:#444488;stroke:#444488;stroke-linejoin:miter;"/>
   </g>
   <g id="patch_77">
    <path clip-path="url(#p5603cec09f)" d="M 242.766688 305.426941 
L 245.312426 305.426941 
L 245.312426 206.319594 
L 242.766688 206.319594 
z
" style="fill:#444488;stroke:#444488;stroke-linejoin:miter;"/>
   </g>
   <g id="patch_78">
    <path clip-path="url(#p5603cec09f)" d="M 245.312426 305.426941 
L 247.858164 305.426941 
L 247.858164 193.647202 
L 245.312426 193.647202 
z
" style="fill:#444488;stroke:#444488;stroke-linejoin:miter;"/>
   </g>
   <g id="patch_79">
    <path clip-path="url(#p5603cec09f)" d="M 247.858164 305.426941 
L 250.403902 305.426941 
L 250.403902 187.048321 
L 247.858164 187.048321 
z
" style="fill:#444488;stroke:#444488;stroke-linejoin:miter;"/>
   </g>
   <g id="patch_80">
    <path clip-path="url(#p5603cec09f)" d="M 250.403902 305.426941 
L 252.94964 305.426941 
L 252.94964 190.959731 
L 250.403902 190.959731 
z
" style="fill:#444488;stroke:#444488;stroke-linejoin:miter;"/>
   </g>
   <g id="patch_81">
    <path clip-path="url(#p5603cec09f)" d="M 252.94964 305.426941 
L 255.495378 305.426941 
L 255.495378 162.817782 
L 252.94964 162.817782 
z
" style="fill:#444488;stroke:#444488;stroke-linejoin:miter;"/>
   </g>
   <g id="patch_82">
    <path clip-path="url(#p5603cec09f)" d="M 255.495378 305.426941 
L 258.041116 305.426941 
L 258.041116 182.871338 
L 255.495378 182.871338 
z
" style="fill:#444488;stroke:#444488;stroke-linejoin:miter;"/>
   </g>
   <g id="patch_83">
    <path clip-path="url(#p5603cec09f)" d="M 258.041116 305.426941 
L 260.586854 305.426941 
L 260.586854 173.997777 
L 258.041116 173.997777 
z
" style="fill:#444488;stroke:#444488;stroke-linejoin:miter;"/>
   </g>
   <g id="patch_84">
    <path clip-path="url(#p5603cec09f)" d="M 260.586854 305.426941 
L 263.132593 305.426941 
L 263.132593 159.584735 
L 260.586854 159.584735 
z
" style="fill:#444488;stroke:#444488;stroke-linejoin:miter;"/>
   </g>
   <g id="patch_85">
    <path clip-path="url(#p5603cec09f)" d="M 263.132593 305.426941 
L 265.678331 305.426941 
L 265.678331 169.849661 
L 263.132593 169.849661 
z
" style="fill:#444488;stroke:#444488;stroke-linejoin:miter;"/>
   </g>
   <g id="patch_86">
    <path clip-path="url(#p5603cec09f)" d="M 265.678331 305.426941 
L 268.224069 305.426941 
L 268.224069 140.734912 
L 265.678331 140.734912 
z
" style="fill:#444488;stroke:#444488;stroke-linejoin:miter;"/>
   </g>
   <g id="patch_87">
    <path clip-path="url(#p5603cec09f)" d="M 268.224069 305.426941 
L 270.769807 305.426941 
L 270.769807 144.089199 
L 268.224069 144.089199 
z
" style="fill:#444488;stroke:#444488;stroke-linejoin:miter;"/>
   </g>
   <g id="patch_88">
    <path clip-path="url(#p5603cec09f)" d="M 270.769807 305.426941 
L 273.315545 305.426941 
L 273.315545 149.409294 
L 270.769807 149.409294 
z
" style="fill:#444488;stroke:#444488;stroke-linejoin:miter;"/>
   </g>
   <g id="patch_89">
    <path clip-path="url(#p5603cec09f)" d="M 273.315545 305.426941 
L 275.861283 305.426941 
L 275.861283 109.357029 
L 273.315545 109.357029 
z
" style="fill:#444488;stroke:#444488;stroke-linejoin:miter;"/>
   </g>
   <g id="patch_90">
    <path clip-path="url(#p5603cec09f)" d="M 275.861283 305.426941 
L 278.407021 305.426941 
L 278.407021 130.674937 
L 275.861283 130.674937 
z
" style="fill:#444488;stroke:#444488;stroke-linejoin:miter;"/>
   </g>
   <g id="patch_91">
    <path clip-path="url(#p5603cec09f)" d="M 278.407021 305.426941 
L 280.95276 305.426941 
L 280.95276 129.557804 
L 278.407021 129.557804 
z
" style="fill:#444488;stroke:#444488;stroke-linejoin:miter;"/>
   </g>
   <g id="patch_92">
    <path clip-path="url(#p5603cec09f)" d="M 280.95276 305.426941 
L 283.498498 305.426941 
L 283.498498 109.801573 
L 280.95276 109.801573 
z
" style="fill:#444488;stroke:#444488;stroke-linejoin:miter;"/>
   </g>
   <g id="patch_93">
    <path clip-path="url(#p5603cec09f)" d="M 283.498498 305.426941 
L 286.044236 305.426941 
L 286.044236 124.939164 
L 283.498498 124.939164 
z
" style="fill:#444488;stroke:#444488;stroke-linejoin:miter;"/>
   </g>
   <g id="patch_94">
    <path clip-path="url(#p5603cec09f)" d="M 286.044236 305.426941 
L 288.589974 305.426941 
L 288.589974 94.9411 
L 286.044236 94.9411 
z
" style="fill:#444488;stroke:#444488;stroke-linejoin:miter;"/>
   </g>
   <g id="patch_95">
    <path clip-path="url(#p5603cec09f)" d="M 288.589974 305.426941 
L 291.135712 305.426941 
L 291.135712 87.992934 
L 288.589974 87.992934 
z
" style="fill:#444488;stroke:#444488;stroke-linejoin:miter;"/>
   </g>
   <g id="patch_96">
    <path clip-path="url(#p5603cec09f)" d="M 291.135712 305.426941 
L 293.68145 305.426941 
L 293.68145 102.671548 
L 291.135712 102.671548 
z
" style="fill:#444488;stroke:#444488;stroke-linejoin:miter;"/>
   </g>
   <g id="patch_97">
    <path clip-path="url(#p5603cec09f)" d="M 293.68145 305.426941 
L 296.227188 305.426941 
L 296.227188 86.673735 
L 293.68145 86.673735 
z
" style="fill:#444488;stroke:#444488;stroke-linejoin:miter;"/>
   </g>
   <g id="patch_98">
    <path clip-path="url(#p5603cec09f)" d="M 296.227188 305.426941 
L 298.772926 305.426941 
L 298.772926 99.773352 
L 296.227188 99.773352 
z
" style="fill:#444488;stroke:#444488;stroke-linejoin:miter;"/>
   </g>
   <g id="patch_99">
    <path clip-path="url(#p5603cec09f)" d="M 298.772926 305.426941 
L 301.318665 305.426941 
L 301.318665 91.638773 
L 298.772926 91.638773 
z
" style="fill:#444488;stroke:#444488;stroke-linejoin:miter;"/>
   </g>
   <g id="patch_100">
    <path clip-path="url(#p5603cec09f)" d="M 301.318665 305.426941 
L 303.864403 305.426941 
L 303.864403 83.51574 
L 301.318665 83.51574 
z
" style="fill:#444488;stroke:#444488;stroke-linejoin:miter;"/>
   </g>
   <g id="patch_101">
    <path clip-path="url(#p5603cec09f)" d="M 303.864403 305.426941 
L 306.410141 305.426941 
L 306.410141 74.746098 
L 303.864403 74.746098 
z
" style="fill:#444488;stroke:#444488;stroke-linejoin:miter;"/>
   </g>
   <g id="patch_102">
    <path clip-path="url(#p5603cec09f)" d="M 306.410141 305.426941 
L 308.955879 305.426941 
L 308.955879 60.477388 
L 306.410141 60.477388 
z
" style="fill:#444488;stroke:#444488;stroke-linejoin:miter;"/>
   </g>
   <g id="patch_103">
    <path clip-path="url(#p5603cec09f)" d="M 308.955879 305.426941 
L 311.501617 305.426941 
L 311.501617 90.91711 
L 308.955879 90.91711 
z
" style="fill:#444488;stroke:#444488;stroke-linejoin:miter;"/>
   </g>
   <g id="patch_104">
    <path clip-path="url(#p5603cec09f)" d="M 311.501617 305.426941 
L 314.047355 305.426941 
L 314.047355 49.586059 
L 311.501617 49.586059 
z
" style="fill:#444488;stroke:#444488;stroke-linejoin:miter;"/>
   </g>
   <g id="patch_105">
    <path clip-path="url(#p5603cec09f)" d="M 314.047355 305.426941 
L 316.593093 305.426941 
L 316.593093 46.716729 
L 314.047355 46.716729 
z
" style="fill:#444488;stroke:#444488;stroke-linejoin:miter;"/>
   </g>
   <g id="patch_106">
    <path clip-path="url(#p5603cec09f)" d="M 316.593093 305.426941 
L 319.138832 305.426941 
L 319.138832 77.606768 
L 316.593093 77.606768 
z
" style="fill:#444488;stroke:#444488;stroke-linejoin:miter;"/>
   </g>
   <g id="patch_107">
    <path clip-path="url(#p5603cec09f)" d="M 319.138832 305.426941 
L 321.68457 305.426941 
L 321.68457 101.037704 
L 319.138832 101.037704 
z
" style="fill:#444488;stroke:#444488;stroke-linejoin:miter;"/>
   </g>
   <g id="patch_108">
    <path clip-path="url(#p5603cec09f)" d="M 321.68457 305.426941 
L 324.230308 305.426941 
L 324.230308 53.257877 
L 321.68457 53.257877 
z
" style="fill:#444488;stroke:#444488;stroke-linejoin:miter;"/>
   </g>
   <g id="patch_109">
    <path clip-path="url(#p5603cec09f)" d="M 324.230308 305.426941 
L 326.776046 305.426941 
L 326.776046 64.530245 
L 324.230308 64.530245 
z
" style="fill:#444488;stroke:#444488;stroke-linejoin:miter;"/>
   </g>
   <g id="patch_110">
    <path clip-path="url(#p5603cec09f)" d="M 326.776046 305.426941 
L 329.321784 305.426941 
L 329.321784 80.626204 
L 326.776046 80.626204 
z
" style="fill:#444488;stroke:#444488;stroke-linejoin:miter;"/>
   </g>
   <g id="patch_111">
    <path clip-path="url(#p5603cec09f)" d="M 329.321784 305.426941 
L 331.867522 305.426941 
L 331.867522 19.224277 
L 329.321784 19.224277 
z
" style="fill:#444488;stroke:#444488;stroke-linejoin:miter;"/>
   </g>
   <g id="patch_112">
    <path clip-path="url(#p5603cec09f)" d="M 331.867522 305.426941 
L 334.41326 305.426941 
L 334.41326 98.073115 
L 331.867522 98.073115 
z
" style="fill:#444488;stroke:#444488;stroke-linejoin:miter;"/>
   </g>
   <g id="patch_113">
    <path clip-path="url(#p5603cec09f)" d="M 334.41326 305.426941 
L 336.958998 305.426941 
L 336.958998 124.330081 
L 334.41326 124.330081 
z
" style="fill:#444488;stroke:#444488;stroke-linejoin:miter;"/>
   </g>
   <g id="patch_114">
    <path clip-path="url(#p5603cec09f)" d="M 336.958998 305.426941 
L 339.504737 305.426941 
L 339.504737 19.20407 
L 336.958998 19.20407 
z
" style="fill:#444488;stroke:#444488;stroke-linejoin:miter;"/>
   </g>
   <g id="patch_115">
    <path clip-path="url(#p5603cec09f)" d="M 339.504737 305.426941 
L 342.050475 305.426941 
L 342.050475 90.048229 
L 339.504737 90.048229 
z
" style="fill:#444488;stroke:#444488;stroke-linejoin:miter;"/>
   </g>
   <g id="patch_116">
    <path clip-path="url(#p5603cec09f)" d="M 342.050475 305.426941 
L 344.596213 305.426941 
L 344.596213 82.144582 
L 342.050475 82.144582 
z
" style="fill:#444488;stroke:#444488;stroke-linejoin:miter;"/>
   </g>
   <g id="patch_117">
    <path clip-path="url(#p5603cec09f)" d="M 344.596213 305.426941 
L 347.141951 305.426941 
L 347.141951 76.062411 
L 344.596213 76.062411 
z
" style="fill:#444488;stroke:#444488;stroke-linejoin:miter;"/>
   </g>
   <g id="patch_118">
    <path clip-path="url(#p5603cec09f)" d="M 347.141951 305.426941 
L 349.687689 305.426941 
L 349.687689 94.129951 
L 347.141951 94.129951 
z
" style="fill:#444488;stroke:#444488;stroke-linejoin:miter;"/>
   </g>
   <g id="patch_119">
    <path clip-path="url(#p5603cec09f)" d="M 349.687689 305.426941 
L 352.233427 305.426941 
L 352.233427 35.952412 
L 349.687689 35.952412 
z
" style="fill:#444488;stroke:#444488;stroke-linejoin:miter;"/>
   </g>
   <g id="patch_120">
    <path clip-path="url(#p5603cec09f)" d="M 352.233427 305.426941 
L 354.779165 305.426941 
L 354.779165 109.307956 
L 352.233427 109.307956 
z
" style="fill:#444488;stroke:#444488;stroke-linejoin:miter;"/>
   </g>
   <g id="patch_121">
    <path clip-path="url(#p5603cec09f)" d="M 354.779165 305.426941 
L 357.324903 305.426941 
L 357.324903 169.48883 
L 354.779165 169.48883 
z
" style="fill:#444488;stroke:#444488;stroke-linejoin:miter;"/>
   </g>
   <g id="patch_122">
    <path clip-path="url(#p5603cec09f)" d="M 357.324903 305.426941 
L 359.870642 305.426941 
L 359.870642 112.292752 
L 357.324903 112.292752 
z
" style="fill:#444488;stroke:#444488;stroke-linejoin:miter;"/>
   </g>
   <g id="patch_123">
    <path clip-path="url(#p5603cec09f)" d="M 359.870642 305.426941 
L 362.41638 305.426941 
L 362.41638 92.16703 
L 359.870642 92.16703 
z
" style="fill:#444488;stroke:#444488;stroke-linejoin:miter;"/>
   </g>
   <g id="patch_124">
    <path clip-path="url(#p5603cec09f)" d="M 362.41638 305.426941 
L 364.962118 305.426941 
L 364.962118 127.343744 
L 362.41638 127.343744 
z
" style="fill:#444488;stroke:#444488;stroke-linejoin:miter;"/>
   </g>
   <g id="patch_125">
    <path clip-path="url(#p5603cec09f)" d="M 364.962118 305.426941 
L 367.507856 305.426941 
L 367.507856 20.081612 
L 364.962118 20.081612 
z
" style="fill:#444488;stroke:#444488;stroke-linejoin:miter;"/>
   </g>
   <g id="patch_126">
    <path clip-path="url(#p5603cec09f)" d="M 367.507856 305.426941 
L 370.053594 305.426941 
L 370.053594 195.73425 
L 367.507856 195.73425 
z
" style="fill:#444488;stroke:#444488;stroke-linejoin:miter;"/>
   </g>
   <g id="patch_127">
    <path clip-path="url(#p5603cec09f)" d="M 370.053594 305.426941 
L 372.599332 305.426941 
L 372.599332 161.088679 
L 370.053594 161.088679 
z
" style="fill:#444488;stroke:#444488;stroke-linejoin:miter;"/>
   </g>
   <g id="patch_128">
    <path clip-path="url(#p5603cec09f)" d="M 372.599332 305.426941 
L 375.14507 305.426941 
L 375.14507 200.72238 
L 372.599332 200.72238 
z
" style="fill:#444488;stroke:#444488;stroke-linejoin:miter;"/>
   </g>
   <g id="patch_129">
    <path clip-path="url(#p5603cec09f)" d="M 375.14507 305.426941 
L 377.690809 305.426941 
L 377.690809 96.56051 
L 375.14507 96.56051 
z
" style="fill:#444488;stroke:#444488;stroke-linejoin:miter;"/>
   </g>
   <g id="patch_130">
    <path clip-path="url(#p5603cec09f)" d="M 377.690809 305.426941 
L 380.236547 305.426941 
L 380.236547 159.835873 
L 377.690809 159.835873 
z
" style="fill:#444488;stroke:#444488;stroke-linejoin:miter;"/>
   </g>
   <g id="patch_131">
    <path clip-path="url(#p5603cec09f)" d="M 380.236547 305.426941 
L 382.782285 305.426941 
L 382.782285 260.880161 
L 380.236547 260.880161 
z
" style="fill:#444488;stroke:#444488;stroke-linejoin:miter;"/>
   </g>
   <g id="patch_132">
    <path clip-path="url(#p5603cec09f)" d="M 382.782285 305.426941 
L 385.328023 305.426941 
L 385.328023 101.548641 
L 382.782285 101.548641 
z
" style="fill:#444488;stroke:#444488;stroke-linejoin:miter;"/>
   </g>
   <g id="patch_133">
    <path clip-path="url(#p5603cec09f)" d="M 385.328023 305.426941 
L 387.873761 305.426941 
L 387.873761 140.553053 
L 385.328023 140.553053 
z
" style="fill:#444488;stroke:#444488;stroke-linejoin:miter;"/>
   </g>
   <g id="patch_134">
    <path clip-path="url(#p5603cec09f)" d="M 387.873761 305.426941 
L 390.419499 305.426941 
L 390.419499 252.682076 
L 387.873761 252.682076 
z
" style="fill:#444488;stroke:#444488;stroke-linejoin:miter;"/>
   </g>
   <g id="patch_135">
    <path clip-path="url(#p5603cec09f)" d="M 390.419499 305.426941 
L 392.965237 305.426941 
L 392.965237 225.027971 
L 390.419499 225.027971 
z
" style="fill:#444488;stroke:#444488;stroke-linejoin:miter;"/>
   </g>
   <g id="patch_136">
    <path clip-path="url(#p5603cec09f)" d="M 392.965237 305.426941 
L 395.510975 305.426941 
L 395.510975 173.016316 
L 392.965237 173.016316 
z
" style="fill:#444488;stroke:#444488;stroke-linejoin:miter;"/>
   </g>
   <g id="patch_137">
    <path clip-path="url(#p5603cec09f)" d="M 395.510975 305.426941 
L 398.056714 305.426941 
L 398.056714 271.757058 
L 395.510975 271.757058 
z
" style="fill:#444488;stroke:#444488;stroke-linejoin:miter;"/>
   </g>
   <g id="patch_138">
    <path clip-path="url(#p5603cec09f)" d="M 398.056714 305.426941 
L 400.602452 305.426941 
L 400.602452 139.84871 
L 398.056714 139.84871 
z
" style="fill:#444488;stroke:#444488;stroke-linejoin:miter;"/>
   </g>
   <g id="patch_139">
    <path clip-path="url(#p5603cec09f)" d="M 400.602452 305.426941 
L 403.14819 305.426941 
L 403.14819 284.111919 
L 400.602452 284.111919 
z
" style="fill:#444488;stroke:#444488;stroke-linejoin:miter;"/>
   </g>
   <g id="patch_140">
    <path clip-path="url(#p5603cec09f)" d="M 403.14819 305.426941 
L 405.693928 305.426941 
L 405.693928 229.808263 
L 403.14819 229.808263 
z
" style="fill:#444488;stroke:#444488;stroke-linejoin:miter;"/>
   </g>
   <g id="patch_141">
    <path clip-path="url(#p5603cec09f)" d="M 405.693928 305.426941 
L 408.239666 305.426941 
L 408.239666 289.03077 
L 405.693928 289.03077 
z
" style="fill:#444488;stroke:#444488;stroke-linejoin:miter;"/>
   </g>
   <g id="patch_142">
    <path clip-path="url(#p5603cec09f)" d="M 408.239666 305.426941 
L 410.785404 305.426941 
L 410.785404 261.457491 
L 408.239666 261.457491 
z
" style="fill:#444488;stroke:#444488;stroke-linejoin:miter;"/>
   </g>
   <g id="patch_143">
    <path clip-path="url(#p5603cec09f)" d="M 410.785404 305.426941 
L 413.331142 305.426941 
L 413.331142 286.467425 
L 410.785404 286.467425 
z
" style="fill:#444488;stroke:#444488;stroke-linejoin:miter;"/>
   </g>
   <g id="patch_144">
    <path clip-path="url(#p5603cec09f)" d="M 413.331142 305.426941 
L 415.876881 305.426941 
L 415.876881 99.297054 
L 413.331142 99.297054 
z
" style="fill:#444488;stroke:#444488;stroke-linejoin:miter;"/>
   </g>
   <g id="patch_145">
    <path clip-path="url(#p5603cec09f)" d="M 415.876881 305.426941 
L 418.422619 305.426941 
L 418.422619 305.426941 
L 415.876881 305.426941 
z
" style="fill:#444488;stroke:#444488;stroke-linejoin:miter;"/>
   </g>
   <g id="patch_146">
    <path clip-path="url(#p5603cec09f)" d="M 418.422619 305.426941 
L 420.968357 305.426941 
L 420.968357 270.740957 
L 418.422619 270.740957 
z
" style="fill:#444488;stroke:#444488;stroke-linejoin:miter;"/>
   </g>
   <g id="patch_147">
    <path clip-path="url(#p5603cec09f)" d="M 420.968357 305.426941 
L 423.514095 305.426941 
L 423.514095 305.426941 
L 420.968357 305.426941 
z
" style="fill:#444488;stroke:#444488;stroke-linejoin:miter;"/>
   </g>
   <g id="patch_148">
    <path clip-path="url(#p5603cec09f)" d="M 423.514095 305.426941 
L 426.059833 305.426941 
L 426.059833 257.739487 
L 423.514095 257.739487 
z
" style="fill:#444488;stroke:#444488;stroke-linejoin:miter;"/>
   </g>
   <g id="patch_149">
    <path clip-path="url(#p5603cec09f)" d="M 426.059833 305.426941 
L 428.605571 305.426941 
L 428.605571 305.426941 
L 426.059833 305.426941 
z
" style="fill:#444488;stroke:#444488;stroke-linejoin:miter;"/>
   </g>
   <g id="patch_150">
    <path clip-path="url(#p5603cec09f)" d="M 428.605571 305.426941 
L 431.151309 305.426941 
L 431.151309 305.426941 
L 428.605571 305.426941 
z
" style="fill:#444488;stroke:#444488;stroke-linejoin:miter;"/>
   </g>
   <g id="patch_151">
    <path clip-path="url(#p5603cec09f)" d="M 431.151309 305.426941 
L 433.697047 305.426941 
L 433.697047 305.426941 
L 431.151309 305.426941 
z
" style="fill:#444488;stroke:#444488;stroke-linejoin:miter;"/>
   </g>
   <g id="patch_152">
    <path clip-path="url(#p5603cec09f)" d="M 433.697047 305.426941 
L 436.242786 305.426941 
L 436.242786 264.390328 
L 433.697047 264.390328 
z
" style="fill:#444488;stroke:#444488;stroke-linejoin:miter;"/>
   </g>
   <g id="matplotlib.axis_1">
    <g id="xtick_1">
     <g id="line2d_1">
      <defs>
       <path d="M 0 0 
L 0 3.5 
" id="md8d5302da3" style="stroke:#000000;stroke-width:0.8;"/>
      </defs>
      <g>
       <use style="stroke:#000000;stroke-width:0.8;" x="93.080203" xlink:href="#md8d5302da3" y="305.426941"/>
      </g>
     </g>
     <g id="text_1">
      <!-- 5 -->
      <defs>
       <path d="M 14.59375 58.625 
L 39.09375 58.625 
L 39.09375 65 
L 7.296875 65 
L 7.296875 27.828125 
L 14 27.828125 
C 15.796875 31.96875 19.5 35 24.296875 35 
C 28.796875 35 33.796875 31.078125 33.796875 19.78125 
C 33.796875 7.703125 26.703125 4.171875 21.5 4.171875 
C 15.09375 4.171875 9.203125 8 6.59375 13.296875 
L 3.40625 7.796875 
C 8 0.765625 15.5 -2 21.5 -2 
C 33.09375 -2 42.203125 7.765625 42.203125 19.578125 
C 42.203125 31.71875 34.09375 41.078125 24.40625 41.078125 
C 20.90625 41.078125 17.5 39.890625 14.59375 37.484375 
z
" id="CMSS17-53"/>
      </defs>
      <g transform="translate(89.17821 323.496529)scale(0.16 -0.16)">
       <use transform="scale(0.996264)" xlink:href="#CMSS17-53"/>
      </g>
     </g>
    </g>
    <g id="xtick_2">
     <g id="line2d_2">
      <g>
       <use style="stroke:#000000;stroke-width:0.8;" x="167.439503" xlink:href="#md8d5302da3" y="305.426941"/>
      </g>
     </g>
     <g id="text_2">
      <!-- 10 -->
      <defs>
       <path d="M 28.40625 67 
L 26.5 67 
C 21.09375 61.5625 14.796875 60.78125 8.40625 60.78125 
L 8.40625 55 
C 11.296875 55 16 55 20.703125 57.296875 
L 20.703125 5.765625 
L 8.90625 5.765625 
L 8.90625 0 
L 40.203125 0 
L 40.203125 5.765625 
L 28.40625 5.765625 
z
" id="CMSS17-49"/>
       <path d="M 43.09375 31.9375 
C 43.09375 37.578125 43 48.078125 38.90625 56.1875 
C 34.796875 64 28.203125 66.078125 23.5 66.078125 
C 16.703125 66.078125 10.90625 62.109375 7.90625 55.78125 
C 4.703125 49.15625 3.796875 42.328125 3.796875 31.9375 
C 3.796875 24.828125 4.09375 16.109375 7.703125 8.484375 
C 11.796875 0.078125 18.703125 -2 23.40625 -2 
C 29.59375 -2 35.59375 1.265625 39 8.09375 
C 42.5 15.21875 43.09375 23.03125 43.09375 31.9375 
z
M 23.40625 4.078125 
C 15.796875 4.078125 13.5 12.671875 12.796875 15.546875 
C 11.59375 20.46875 11.40625 25.21875 11.40625 33.03125 
C 11.40625 39.15625 11.40625 46.0625 13.296875 51.515625 
C 15.59375 57.828125 19.59375 60 23.40625 60 
C 30.796875 60 33.203125 52.6875 34 50.125 
C 35.5 44.890625 35.5 38.765625 35.5 33.03125 
C 35.5 23.84375 35.5 4.078125 23.40625 4.078125 
z
" id="CMSS17-48"/>
      </defs>
      <g transform="translate(159.635516 323.496529)scale(0.16 -0.16)">
       <use transform="scale(0.996264)" xlink:href="#CMSS17-49"/>
       <use transform="translate(46.843624 0)scale(0.996264)" xlink:href="#CMSS17-48"/>
      </g>
     </g>
    </g>
    <g id="xtick_3">
     <g id="line2d_3">
      <g>
       <use style="stroke:#000000;stroke-width:0.8;" x="241.798803" xlink:href="#md8d5302da3" y="305.426941"/>
      </g>
     </g>
     <g id="text_3">
      <!-- 15 -->
      <g transform="translate(233.994816 323.496529)scale(0.16 -0.16)">
       <use transform="scale(0.996264)" xlink:href="#CMSS17-49"/>
       <use transform="translate(46.843624 0)scale(0.996264)" xlink:href="#CMSS17-53"/>
      </g>
     </g>
    </g>
    <g id="xtick_4">
     <g id="line2d_4">
      <g>
       <use style="stroke:#000000;stroke-width:0.8;" x="316.158104" xlink:href="#md8d5302da3" y="305.426941"/>
      </g>
     </g>
     <g id="text_4">
      <!-- 20 -->
      <defs>
       <path d="M 25.796875 21.203125 
C 28.59375 24.078125 32.796875 27.5625 35.703125 31.046875 
C 38.5 34.4375 42.203125 39.234375 42.203125 46.203125 
C 42.203125 57.140625 34.796875 67 22.203125 67 
C 12.296875 67 6.59375 60.828125 3.90625 51.15625 
L 7.796875 45.765625 
C 10 54.84375 13.09375 60.625 20.90625 60.625 
C 29.5 60.625 34.296875 53.640625 34.296875 45.96875 
C 34.296875 36.796875 27.296875 29.703125 22 24.421875 
C 16.09375 18.546875 10.296875 12.5625 4.703125 6.375 
L 4.703125 0 
L 42.203125 0 
L 42.203125 6.765625 
L 25.203125 6.765625 
C 24 6.765625 22.796875 6.765625 21.59375 6.765625 
L 11.59375 6.765625 
L 11.59375 6.859375 
z
" id="CMSS17-50"/>
      </defs>
      <g transform="translate(308.354117 323.496529)scale(0.16 -0.16)">
       <use transform="scale(0.996264)" xlink:href="#CMSS17-50"/>
       <use transform="translate(46.843624 0)scale(0.996264)" xlink:href="#CMSS17-48"/>
      </g>
     </g>
    </g>
    <g id="xtick_5">
     <g id="line2d_5">
      <g>
       <use style="stroke:#000000;stroke-width:0.8;" x="390.517404" xlink:href="#md8d5302da3" y="305.426941"/>
      </g>
     </g>
     <g id="text_5">
      <!-- 25 -->
      <g transform="translate(382.713417 323.496529)scale(0.16 -0.16)">
       <use transform="scale(0.996264)" xlink:href="#CMSS17-50"/>
       <use transform="translate(46.843624 0)scale(0.996264)" xlink:href="#CMSS17-53"/>
      </g>
     </g>
    </g>
    <g id="xtick_6">
     <g id="line2d_6">
      <defs>
       <path d="M 0 0 
L 0 2 
" id="me5c4d7d0ef" style="stroke:#000000;stroke-width:0.6;"/>
      </defs>
      <g>
       <use style="stroke:#000000;stroke-width:0.6;" x="48.464623" xlink:href="#me5c4d7d0ef" y="305.426941"/>
      </g>
     </g>
    </g>
    <g id="xtick_7">
     <g id="line2d_7">
      <g>
       <use style="stroke:#000000;stroke-width:0.6;" x="63.336483" xlink:href="#me5c4d7d0ef" y="305.426941"/>
      </g>
     </g>
    </g>
    <g id="xtick_8">
     <g id="line2d_8">
      <g>
       <use style="stroke:#000000;stroke-width:0.6;" x="78.208343" xlink:href="#me5c4d7d0ef" y="305.426941"/>
      </g>
     </g>
    </g>
    <g id="xtick_9">
     <g id="line2d_9">
      <g>
       <use style="stroke:#000000;stroke-width:0.6;" x="107.952063" xlink:href="#me5c4d7d0ef" y="305.426941"/>
      </g>
     </g>
    </g>
    <g id="xtick_10">
     <g id="line2d_10">
      <g>
       <use style="stroke:#000000;stroke-width:0.6;" x="122.823923" xlink:href="#me5c4d7d0ef" y="305.426941"/>
      </g>
     </g>
    </g>
    <g id="xtick_11">
     <g id="line2d_11">
      <g>
       <use style="stroke:#000000;stroke-width:0.6;" x="137.695783" xlink:href="#me5c4d7d0ef" y="305.426941"/>
      </g>
     </g>
    </g>
    <g id="xtick_12">
     <g id="line2d_12">
      <g>
       <use style="stroke:#000000;stroke-width:0.6;" x="152.567643" xlink:href="#me5c4d7d0ef" y="305.426941"/>
      </g>
     </g>
    </g>
    <g id="xtick_13">
     <g id="line2d_13">
      <g>
       <use style="stroke:#000000;stroke-width:0.6;" x="182.311363" xlink:href="#me5c4d7d0ef" y="305.426941"/>
      </g>
     </g>
    </g>
    <g id="xtick_14">
     <g id="line2d_14">
      <g>
       <use style="stroke:#000000;stroke-width:0.6;" x="197.183223" xlink:href="#me5c4d7d0ef" y="305.426941"/>
      </g>
     </g>
    </g>
    <g id="xtick_15">
     <g id="line2d_15">
      <g>
       <use style="stroke:#000000;stroke-width:0.6;" x="212.055083" xlink:href="#me5c4d7d0ef" y="305.426941"/>
      </g>
     </g>
    </g>
    <g id="xtick_16">
     <g id="line2d_16">
      <g>
       <use style="stroke:#000000;stroke-width:0.6;" x="226.926943" xlink:href="#me5c4d7d0ef" y="305.426941"/>
      </g>
     </g>
    </g>
    <g id="xtick_17">
     <g id="line2d_17">
      <g>
       <use style="stroke:#000000;stroke-width:0.6;" x="256.670663" xlink:href="#me5c4d7d0ef" y="305.426941"/>
      </g>
     </g>
    </g>
    <g id="xtick_18">
     <g id="line2d_18">
      <g>
       <use style="stroke:#000000;stroke-width:0.6;" x="271.542523" xlink:href="#me5c4d7d0ef" y="305.426941"/>
      </g>
     </g>
    </g>
    <g id="xtick_19">
     <g id="line2d_19">
      <g>
       <use style="stroke:#000000;stroke-width:0.6;" x="286.414384" xlink:href="#me5c4d7d0ef" y="305.426941"/>
      </g>
     </g>
    </g>
    <g id="xtick_20">
     <g id="line2d_20">
      <g>
       <use style="stroke:#000000;stroke-width:0.6;" x="301.286244" xlink:href="#me5c4d7d0ef" y="305.426941"/>
      </g>
     </g>
    </g>
    <g id="xtick_21">
     <g id="line2d_21">
      <g>
       <use style="stroke:#000000;stroke-width:0.6;" x="331.029964" xlink:href="#me5c4d7d0ef" y="305.426941"/>
      </g>
     </g>
    </g>
    <g id="xtick_22">
     <g id="line2d_22">
      <g>
       <use style="stroke:#000000;stroke-width:0.6;" x="345.901824" xlink:href="#me5c4d7d0ef" y="305.426941"/>
      </g>
     </g>
    </g>
    <g id="xtick_23">
     <g id="line2d_23">
      <g>
       <use style="stroke:#000000;stroke-width:0.6;" x="360.773684" xlink:href="#me5c4d7d0ef" y="305.426941"/>
      </g>
     </g>
    </g>
    <g id="xtick_24">
     <g id="line2d_24">
      <g>
       <use style="stroke:#000000;stroke-width:0.6;" x="375.645544" xlink:href="#me5c4d7d0ef" y="305.426941"/>
      </g>
     </g>
    </g>
    <g id="xtick_25">
     <g id="line2d_25">
      <g>
       <use style="stroke:#000000;stroke-width:0.6;" x="405.389264" xlink:href="#me5c4d7d0ef" y="305.426941"/>
      </g>
     </g>
    </g>
    <g id="xtick_26">
     <g id="line2d_26">
      <g>
       <use style="stroke:#000000;stroke-width:0.6;" x="420.261124" xlink:href="#me5c4d7d0ef" y="305.426941"/>
      </g>
     </g>
    </g>
    <g id="xtick_27">
     <g id="line2d_27">
      <g>
       <use style="stroke:#000000;stroke-width:0.6;" x="435.132984" xlink:href="#me5c4d7d0ef" y="305.426941"/>
      </g>
     </g>
    </g>
   </g>
   <g id="matplotlib.axis_2">
    <g id="ytick_1">
     <g id="line2d_28">
      <defs>
       <path d="M 0 0 
L -3.5 0 
" id="m879f44f4da" style="stroke:#000000;stroke-width:0.8;"/>
      </defs>
      <g>
       <use style="stroke:#000000;stroke-width:0.8;" x="36.744851" xlink:href="#m879f44f4da" y="305.426941"/>
      </g>
     </g>
     <g id="text_6">
      <!-- 0 -->
      <g transform="translate(21.940864 310.961735)scale(0.16 -0.16)">
       <use transform="scale(0.996264)" xlink:href="#CMSS17-48"/>
      </g>
     </g>
    </g>
    <g id="ytick_2">
     <g id="line2d_29">
      <g>
       <use style="stroke:#000000;stroke-width:0.8;" x="36.744851" xlink:href="#m879f44f4da" y="247.693945"/>
      </g>
     </g>
     <g id="text_7">
      <!-- 2e4 -->
      <defs>
       <path d="M 39.09375 21.515625 
C 39.09375 24.84375 38.90625 31.296875 35.703125 36.640625 
C 32.203125 42.390625 26.5 44 22.203125 44 
C 11.796875 44 3 34.1875 3 21.484375 
C 3 9.09375 12.09375 -1 23.59375 -1 
C 28.09375 -1 33.59375 0.296875 38.59375 3.875 
C 38.59375 4.28125 38.40625 6.46875 38.296875 6.5625 
C 38.296875 6.765625 38 9.84375 38 10.25 
C 33.203125 6.359375 27.703125 5.078125 23.703125 5.078125 
C 17.296875 5.078125 10.40625 10.421875 10.09375 21.515625 
z
M 10.90625 27 
C 12.203125 32.5625 16.59375 37.828125 22.203125 37.828125 
C 23.703125 37.828125 30.703125 37.828125 32.5 27 
z
" id="CMSS17-101"/>
       <path d="M 35.203125 17 
L 44.296875 17 
L 44.296875 23.078125 
L 35.203125 23.078125 
L 35.203125 65.5 
L 26.40625 65.5 
L 2.59375 23.078125 
L 2.59375 17 
L 27.296875 17 
L 27.296875 0 
L 35.203125 0 
z
M 10.296875 23.078125 
C 16.09375 33.234375 27.59375 53.734375 27.59375 60.703125 
L 27.59375 23.078125 
z
" id="CMSS17-52"/>
      </defs>
      <g transform="translate(7.2 253.228739)scale(0.16 -0.16)">
       <use transform="scale(0.996264)" xlink:href="#CMSS17-50"/>
       <use transform="translate(46.843624 0)scale(0.996264)" xlink:href="#CMSS17-101"/>
       <use transform="translate(88.482446 0)scale(0.996264)" xlink:href="#CMSS17-52"/>
      </g>
     </g>
    </g>
    <g id="ytick_3">
     <g id="line2d_30">
      <g>
       <use style="stroke:#000000;stroke-width:0.8;" x="36.744851" xlink:href="#m879f44f4da" y="189.96095"/>
      </g>
     </g>
     <g id="text_8">
      <!-- 4e4 -->
      <g transform="translate(7.2 195.495744)scale(0.16 -0.16)">
       <use transform="scale(0.996264)" xlink:href="#CMSS17-52"/>
       <use transform="translate(46.843624 0)scale(0.996264)" xlink:href="#CMSS17-101"/>
       <use transform="translate(88.482446 0)scale(0.996264)" xlink:href="#CMSS17-52"/>
      </g>
     </g>
    </g>
    <g id="ytick_4">
     <g id="line2d_31">
      <g>
       <use style="stroke:#000000;stroke-width:0.8;" x="36.744851" xlink:href="#m879f44f4da" y="132.227955"/>
      </g>
     </g>
     <g id="text_9">
      <!-- 6e4 -->
      <defs>
       <path d="M 39 64.078125 
C 34.796875 65.78125 31.796875 66.078125 29 66.078125 
C 16 66.078125 3.90625 52.625 3.90625 31.34375 
C 3.90625 4.140625 15.40625 -2 23.59375 -2 
C 28.09375 -2 32.59375 -0.609375 36.90625 4.375 
C 41.296875 9.640625 43 14.03125 43 21.703125 
C 43 34.046875 36.90625 45 27.796875 45 
C 21.203125 45 15.5 41.515625 12 37.125 
C 13 50.90625 19.59375 60 29.09375 60 
C 31.703125 60 35.09375 59.625 39 57.96875 
z
M 12.09375 21.390625 
C 12.09375 22.1875 12.09375 22.6875 12.203125 24.1875 
C 12.203125 31.953125 16.703125 38.921875 24 38.921875 
C 28.703125 38.921875 31.09375 36.4375 32.90625 33.359375 
C 35 29.46875 35.09375 25.78125 35.09375 21.6875 
C 35.09375 17.8125 35.09375 13.921875 32.796875 9.953125 
C 30.90625 6.859375 28.40625 4.171875 23.59375 4.171875 
C 14.09375 4.171875 12.5 17.40625 12.09375 21.390625 
z
" id="CMSS17-54"/>
      </defs>
      <g transform="translate(7.2 137.762749)scale(0.16 -0.16)">
       <use transform="scale(0.996264)" xlink:href="#CMSS17-54"/>
       <use transform="translate(46.843624 0)scale(0.996264)" xlink:href="#CMSS17-101"/>
       <use transform="translate(88.482446 0)scale(0.996264)" xlink:href="#CMSS17-52"/>
      </g>
     </g>
    </g>
    <g id="ytick_5">
     <g id="line2d_32">
      <g>
       <use style="stroke:#000000;stroke-width:0.8;" x="36.744851" xlink:href="#m879f44f4da" y="74.49496"/>
      </g>
     </g>
     <g id="text_10">
      <!-- 8e4 -->
      <defs>
       <path d="M 30.203125 34.71875 
C 37.796875 37.1875 41.703125 43.125 41.703125 48.96875 
C 41.703125 58.15625 33.703125 66.078125 23.5 66.078125 
C 12.90625 66.078125 5.203125 57.9375 5.203125 49.125 
C 5.203125 43.4375 9 37.546875 16.703125 35.015625 
C 6.90625 31.203125 3.90625 23.625 3.90625 17.953125 
C 3.90625 6.96875 12.796875 -2 23.40625 -2 
C 34.40625 -2 43 7.109375 43 17.78125 
C 43 24.328125 39.09375 31.25 30.203125 34.71875 
z
M 23.5 38 
C 16.796875 38 12.296875 42.375 12.296875 49 
C 12.296875 55.71875 16.796875 60 23.5 60 
C 29.703125 60 34.59375 56.109375 34.59375 49 
C 34.59375 41.984375 29.796875 38 23.5 38 
z
M 23.5 4.171875 
C 17.796875 4.171875 11.703125 8.078125 11.703125 18.0625 
C 11.703125 28.328125 18.5 31.921875 23.40625 31.921875 
C 28.796875 31.921875 35.203125 28.125 35.203125 18.0625 
C 35.203125 7.671875 28.59375 4.171875 23.5 4.171875 
z
" id="CMSS17-56"/>
      </defs>
      <g transform="translate(7.2 80.029754)scale(0.16 -0.16)">
       <use transform="scale(0.996264)" xlink:href="#CMSS17-56"/>
       <use transform="translate(46.843624 0)scale(0.996264)" xlink:href="#CMSS17-101"/>
       <use transform="translate(88.482446 0)scale(0.996264)" xlink:href="#CMSS17-52"/>
      </g>
     </g>
    </g>
    <g id="ytick_6">
     <g id="line2d_33">
      <g>
       <use style="stroke:#000000;stroke-width:0.8;" x="36.744851" xlink:href="#m879f44f4da" y="16.761964"/>
      </g>
     </g>
     <g id="text_11">
      <!-- 1e5 -->
      <g transform="translate(7.2 22.296759)scale(0.16 -0.16)">
       <use transform="scale(0.996264)" xlink:href="#CMSS17-49"/>
       <use transform="translate(46.843624 0)scale(0.996264)" xlink:href="#CMSS17-101"/>
       <use transform="translate(88.482446 0)scale(0.996264)" xlink:href="#CMSS17-53"/>
      </g>
     </g>
    </g>
    <g id="ytick_7">
     <g id="line2d_34">
      <defs>
       <path d="M 0 0 
L -2 0 
" id="m1224f328c5" style="stroke:#000000;stroke-width:0.6;"/>
      </defs>
      <g>
       <use style="stroke:#000000;stroke-width:0.6;" x="36.744851" xlink:href="#m1224f328c5" y="319.860189"/>
      </g>
     </g>
    </g>
    <g id="ytick_8">
     <g id="line2d_35">
      <g>
       <use style="stroke:#000000;stroke-width:0.6;" x="36.744851" xlink:href="#m1224f328c5" y="290.993692"/>
      </g>
     </g>
    </g>
    <g id="ytick_9">
     <g id="line2d_36">
      <g>
       <use style="stroke:#000000;stroke-width:0.6;" x="36.744851" xlink:href="#m1224f328c5" y="276.560443"/>
      </g>
     </g>
    </g>
    <g id="ytick_10">
     <g id="line2d_37">
      <g>
       <use style="stroke:#000000;stroke-width:0.6;" x="36.744851" xlink:href="#m1224f328c5" y="262.127194"/>
      </g>
     </g>
    </g>
    <g id="ytick_11">
     <g id="line2d_38">
      <g>
       <use style="stroke:#000000;stroke-width:0.6;" x="36.744851" xlink:href="#m1224f328c5" y="233.260697"/>
      </g>
     </g>
    </g>
    <g id="ytick_12">
     <g id="line2d_39">
      <g>
       <use style="stroke:#000000;stroke-width:0.6;" x="36.744851" xlink:href="#m1224f328c5" y="218.827448"/>
      </g>
     </g>
    </g>
    <g id="ytick_13">
     <g id="line2d_40">
      <g>
       <use style="stroke:#000000;stroke-width:0.6;" x="36.744851" xlink:href="#m1224f328c5" y="204.394199"/>
      </g>
     </g>
    </g>
    <g id="ytick_14">
     <g id="line2d_41">
      <g>
       <use style="stroke:#000000;stroke-width:0.6;" x="36.744851" xlink:href="#m1224f328c5" y="175.527701"/>
      </g>
     </g>
    </g>
    <g id="ytick_15">
     <g id="line2d_42">
      <g>
       <use style="stroke:#000000;stroke-width:0.6;" x="36.744851" xlink:href="#m1224f328c5" y="161.094453"/>
      </g>
     </g>
    </g>
    <g id="ytick_16">
     <g id="line2d_43">
      <g>
       <use style="stroke:#000000;stroke-width:0.6;" x="36.744851" xlink:href="#m1224f328c5" y="146.661204"/>
      </g>
     </g>
    </g>
    <g id="ytick_17">
     <g id="line2d_44">
      <g>
       <use style="stroke:#000000;stroke-width:0.6;" x="36.744851" xlink:href="#m1224f328c5" y="117.794706"/>
      </g>
     </g>
    </g>
    <g id="ytick_18">
     <g id="line2d_45">
      <g>
       <use style="stroke:#000000;stroke-width:0.6;" x="36.744851" xlink:href="#m1224f328c5" y="103.361457"/>
      </g>
     </g>
    </g>
    <g id="ytick_19">
     <g id="line2d_46">
      <g>
       <use style="stroke:#000000;stroke-width:0.6;" x="36.744851" xlink:href="#m1224f328c5" y="88.928209"/>
      </g>
     </g>
    </g>
    <g id="ytick_20">
     <g id="line2d_47">
      <g>
       <use style="stroke:#000000;stroke-width:0.6;" x="36.744851" xlink:href="#m1224f328c5" y="60.061711"/>
      </g>
     </g>
    </g>
    <g id="ytick_21">
     <g id="line2d_48">
      <g>
       <use style="stroke:#000000;stroke-width:0.6;" x="36.744851" xlink:href="#m1224f328c5" y="45.628462"/>
      </g>
     </g>
    </g>
    <g id="ytick_22">
     <g id="line2d_49">
      <g>
       <use style="stroke:#000000;stroke-width:0.6;" x="36.744851" xlink:href="#m1224f328c5" y="31.195213"/>
      </g>
     </g>
    </g>
   </g>
   <g id="line2d_50">
    <path clip-path="url(#p5603cec09f)" d="M 213.874854 319.860189 
L 213.874854 16.761964 
" style="fill:none;stroke:#666666;stroke-dasharray:3.7,1.6;stroke-dashoffset:0;"/>
   </g>
   <g id="patch_153">
    <path d="M 36.744851 325.922154 
L 36.744851 10.7 
" style="fill:none;stroke:#000000;stroke-linecap:square;stroke-linejoin:miter;stroke-width:0.8;"/>
   </g>
   <g id="patch_154">
    <path d="M 46.744851 305.426941 
L 443.88 305.426941 
" style="fill:none;stroke:#000000;stroke-linecap:square;stroke-linejoin:miter;stroke-width:0.8;"/>
   </g>
  </g>
 </g>
 <defs>
  <clipPath id="p5603cec09f">
   <rect height="315.222154" width="397.135149" x="46.744851" y="10.7"/>
  </clipPath>
 </defs>
</svg>
