<?xml version="1.0" encoding="UTF-8" standalone="no"?>
<!-- Created with Inkscape (http://www.inkscape.org/) -->

<svg
   xmlns:dc="http://purl.org/dc/elements/1.1/"
   xmlns:cc="http://creativecommons.org/ns#"
   xmlns:rdf="http://www.w3.org/1999/02/22-rdf-syntax-ns#"
   xmlns:svg="http://www.w3.org/2000/svg"
   xmlns="http://www.w3.org/2000/svg"
   version="1.1"
   width="141.5437"
   height="94.326172"
   id="svg3075">
  <defs
     id="defs3077">
    <clipPath
       id="clip1">
      <path
         d="m 0,0 113.38672,0 0,113.38672 L 0,113.38672 0,0 z m 0,0"
         id="path3046" />
    </clipPath>
  </defs>
  <metadata
     id="metadata3080">
    <rdf:RDF>
      <cc:Work
         rdf:about="">
        <dc:format>image/svg+xml</dc:format>
        <dc:type
           rdf:resource="http://purl.org/dc/dcmitype/StillImage" />
        <dc:title></dc:title>
      </cc:Work>
    </rdf:RDF>
  </metadata>
  <g
     transform="translate(-280.65672,-742.34196)"
     id="layer1">
    <g
       transform="matrix(1.25,0,0,1.25,280.55374,714.96891)"
       id="surface0">
      <g
         clip-path="url(#clip1)"
         id="g3049">
        <path
           d="m 26.046875,25.105469 c 0,-0.621094 -0.242187,-1.210938 -1.050781,-1.507813 -0.675782,-0.242187 -1.296875,-0.324218 -1.96875,-0.429687 -0.972656,-0.164063 -0.78125,-1.109375 0.07813,-1.109375 0.566406,0 3.265625,0.21875 6.472656,0.21875 1.859375,0 4.53125,-0.08203 5.824219,-0.164063 0.808594,-0.05469 0.890625,0.808594 0.324218,0.972657 -0.566406,0.160156 -3.238281,0.808593 -8.007812,5.175781 -4.933594,4.53125 -11.296875,11.242187 -11.296875,11.242187 0,0 14.289063,17.042969 16.796875,19.0625 2.589844,2.105469 4.367188,2.265625 6.308594,2.425782 0.484375,0.02734 0.644531,0.972656 0,0.972656 l -11.160156,0 c 0,0 -13.832032,-16.714844 -16.097657,-18.253906 -0.40625,-0.242188 -1.375,-0.566407 -1.457031,0.566406 -0.08203,1.050781 -0.160156,9.921875 0.08203,11.863281 0.242188,1.941406 1.050781,4.773437 5.660157,4.773437 0.566406,0 0.890624,1.074219 0.08203,1.050782 -2.722657,-0.136719 -4.773438,-0.136719 -8.144531,-0.136719 -2.910157,0 -6.980469,0.136719 -7.546876,0.136719 -0.9687495,0 -0.9687495,-0.890625 -0.082031,-0.972656 C 2.15625,60.914062 5.230469,60.75 5.421875,55.816406 5.636719,50.722656 5.5,29.257812 5.421875,26.914062 5.394531,25.296875 4.019531,23.109375 0.460938,23.109375 c -0.566407,0 -0.4843755,-0.96875 0.160156,-0.96875 l 15.207031,0 c 0.566406,0 0.890625,0.945313 -0.08203,1.027344 -0.96875,0.07813 -4.664063,0.1875 -4.769532,5.121093 -0.136718,4.933594 -0.136718,12.589844 -0.136718,12.914063 0,0.40625 0.160156,0.808594 0.726562,0.40625 1.753906,-1.1875 6.957032,-6.285156 10.839844,-10.652344 1.535156,-1.726562 2.589844,-3.234375 3.316406,-4.636719 0.160156,-0.296874 0.324219,-0.726562 0.324219,-1.214843 m 19.144531,13.671875 0,-13.722656 c 0,-1.699219 1.210938,-2.183594 2.503906,-2.265626 0.488282,0 0.566407,-0.648437 -0.07812,-0.648437 l -8.089844,0 c -0.566406,0 -0.648438,0.621094 -0.08203,0.648437 1.214844,0.132813 2.671876,0.726563 2.671876,2.265626 l 0,13.722656 c 0,1.535156 -0.566407,2.507812 -2.347657,2.507812 -0.699219,0 -0.539062,0.59375 0,0.59375 l 7.925781,0 c 0.40625,0 0.515626,-0.59375 -0.160156,-0.59375 -1.699218,0 -2.34375,-1.132812 -2.34375,-2.507812 M 55.625,50.640625 c 0.160156,0 0.269531,-0.08203 0.320312,-0.242187 l 1.296876,-4.125 c 0.08203,-0.246094 -0.02734,-0.40625 -0.242188,-0.40625 -0.08203,0 -0.191406,0.02734 -0.269531,0.109374 -0.246094,0.242188 -0.539063,0.484376 -0.785157,0.484376 -0.132812,0 -0.242187,-0.08203 -0.375,-0.1875 -1.160156,-1.429688 -3.019531,-1.644532 -3.910156,-1.644532 -4.125,0 -7.683594,2.695313 -9.785156,6.011719 -1.269531,1.96875 -1.917969,4.125 -1.917969,6.253906 0,3.398438 2.347657,5.3125 5.421875,5.3125 1.375,0 2.425782,-0.160156 4.285156,-0.945312 0.40625,-0.160157 0.863282,-0.347657 1.132813,-0.347657 0.457031,0 0.484375,0.671876 0.539063,1.292969 0,0.242188 0.164062,0.320313 0.324218,0.320313 0.109375,0 0.242188,-0.05078 0.324219,-0.238282 l 1.726563,-4.9375 c 0.132812,-0.402343 -0.02734,-0.5625 -0.191407,-0.5625 -0.242187,0 -0.375,0.105469 -0.566406,0.429688 -0.78125,1.214844 -1.320313,1.996094 -4.042969,3.316406 -1.132812,0.539063 -2.453125,0.863282 -3.503906,0.863282 -2.292969,0 -3.183594,-1.753907 -3.183594,-3.964844 0,-2.910156 1.375,-5.957032 3.480469,-8.492188 1.347656,-1.671875 3.398437,-3.558594 5.796875,-3.558594 2.289062,0 3.988281,1.699219 3.746094,4.851563 -0.02734,0.269531 0.160156,0.40625 0.378906,0.40625 m -5.230469,-28.5 c -0.566406,0 -0.566406,0.566406 -0.242187,0.648437 0.617187,0.132813 1.914062,0.242188 1.914062,1.941407 0.02344,4.015625 0.02344,9.273437 -0.136718,13.5625 -0.02734,1.535156 -0.484376,2.828125 -1.804688,2.992187 -0.484375,0.02734 -0.484375,0.59375 -0.164062,0.59375 l 5.824218,0 c 0.324219,0 0.429688,-0.515625 0.02734,-0.59375 -0.890625,-0.164062 -2.347656,-0.164062 -2.453125,-2.992187 -0.136719,-2.75 -0.214844,-13.160157 -0.214844,-13.160157 l 14.609375,16.257813 1.210938,0 c 0,0 0,-15.207031 0.08203,-16.363281 0.08203,-1.347656 0.539063,-2.078125 1.996094,-2.183594 0.726562,-0.05469 0.589843,-0.703125 0.105469,-0.703125 l -5.929688,0 c -0.703125,0 -0.539062,0.648437 -0.214844,0.648437 0.644532,0.08203 2.667969,0.320313 2.75,2.265626 0.07813,2.828124 0.214844,11.648437 0.214844,11.648437 l -12.992188,-14.5625 -4.582031,0 z m 12.988281,26.882813 c 2.589844,0 3.074219,2.265624 3.074219,4.367187 0,3.34375 -3.074219,8.679687 -6.789062,8.679687 -2.34375,0 -3.234375,-1.886718 -3.234375,-3.828124 0,-4.664063 3.316406,-9.21875 6.949218,-9.21875 m 0.539063,0.753906 c -2.554687,0 -6.222656,6.066406 -6.222656,9.761718 0,0.96875 0.429687,1.695313 1.457031,1.695313 2.507812,0 6.25,-6.199219 6.25,-9.460937 0,-0.972657 -0.269531,-1.996094 -1.484375,-1.996094 m 9.601563,-4.042969 c 0,0.07813 -0.02734,0.242187 -0.109376,0.402344 -2.183593,4.746093 -4.339843,9.464843 -6.445312,14.210937 -0.105469,0.242188 -0.320312,0.726563 -0.320312,1.050782 0,0.402343 0.296874,0.753906 0.726562,0.753906 0.214844,0 0.511719,-0.08203 0.671875,-0.164063 1.1875,-0.480469 2.429687,-1.777343 3.15625,-2.882812 0.164063,-0.242188 -0.132813,-0.457031 -0.324219,-0.296875 -0.292968,0.269531 -1.132812,1.402344 -2.023437,1.886718 -0.160157,0.08203 -0.320313,0.08203 -0.214844,-0.242187 l 6.742187,-14.964844 c 0.109376,-0.265625 0.164063,-0.429687 0.164063,-0.589843 0,-0.191407 -0.136719,-0.269532 -0.328125,-0.269532 -0.320312,0 -0.699219,0.07813 -1.183594,0.132813 -0.40625,0.02734 -1.105468,0.08203 -1.726562,0.136719 -0.160156,0 -0.242188,0.160156 -0.242188,0.269531 0,0.160156 0.136719,0.242187 0.296875,0.242187 0.324219,0 0.644531,0 0.996094,0.07813 0.136719,0.05469 0.164063,0.136719 0.164063,0.246094 M 91.371094,35.40625 c 0,-1.644531 1.214844,-1.804688 2.265625,-1.886719 0.402343,-0.05469 0.484375,-0.703125 -0.08203,-0.703125 l -8.171876,0 c -0.5625,0 -0.5625,0.730469 0,0.785156 1.621094,0.105469 2.914063,0.402344 2.914063,1.964844 l 0,2.941406 c 0,0.644532 -0.324219,1.105469 -0.671875,1.375 -1.429688,1.183594 -3.238281,1.265626 -4.289062,1.265626 -5.175782,0 -7.496094,-4.472657 -7.496094,-8.921876 0,-3.617187 1.832031,-9.304687 7.820312,-9.304687 5.367188,0 7.304688,3.480469 7.953125,4.800781 0.21875,0.40625 0.726563,0.324219 0.726563,0 l 0,-4.289062 c 0,-0.402344 -0.589844,-0.484375 -0.726563,0 -0.109375,0.488281 -0.429687,0.8125 -0.835937,0.8125 -0.324219,0 -0.699219,-0.246094 -0.859375,-0.351563 -1.621094,-1.023437 -3.160157,-1.835937 -6.230469,-1.835937 -4.960938,0 -11.082031,2.480468 -11.082031,10.03125 0,7.601562 5.742187,9.949218 10.757812,9.949218 4.933594,0 7.523438,-2.507812 8.007813,-2.832031 l 0,-3.800781 z M 79.535156,45.734375 c 0,0.07813 -0.02734,0.242187 -0.109375,0.402344 -2.183593,4.746093 -4.339843,9.464843 -6.441406,14.210937 -0.109375,0.242188 -0.324219,0.726563 -0.324219,1.050782 0,0.402343 0.296875,0.753906 0.726563,0.753906 0.214843,0 0.511719,-0.08203 0.675781,-0.164063 1.1875,-0.480469 2.425781,-1.777343 3.152344,-2.882812 0.164062,-0.242188 -0.132813,-0.457031 -0.324219,-0.296875 -0.296875,0.269531 -1.132813,1.402344 -2.019531,1.886718 -0.160156,0.08203 -0.324219,0.08203 -0.214844,-0.242187 l 6.738281,-14.964844 c 0.109375,-0.265625 0.164063,-0.429687 0.164063,-0.589843 0,-0.191407 -0.136719,-0.269532 -0.324219,-0.269532 -0.324219,0 -0.703125,0.07813 -1.1875,0.132813 -0.40625,0.02734 -1.105469,0.08203 -1.722656,0.136719 -0.164063,0 -0.246094,0.160156 -0.246094,0.269531 0,0.160156 0.132813,0.242187 0.296875,0.242187 0.324219,0 0.648438,0 1,0.07813 0.132812,0.05469 0.160156,0.136719 0.160156,0.246094 m 7.875,13.480469 c -1.132812,1.480468 -2.914062,2.855468 -5.125,2.855468 -1.699218,0 -2.722656,-1.210937 -2.722656,-2.773437 0,-4.828125 5.339844,-9.925781 8.898438,-9.925781 1.210937,0 2.101562,0.460937 2.101562,1.753906 0,1.886719 -1.644531,2.914062 -4.609375,3.800781 -0.835937,0.246094 -2.671875,0.648438 -3.558594,0.835938 -0.40625,0.648437 -0.917969,1.941406 -0.917969,2.964843 0,1.378907 0.675782,2.1875 1.941407,2.1875 1.457031,0 2.832031,-1.136718 3.585937,-2.023437 0.242188,-0.242187 0.621094,0.08203 0.40625,0.324219 m -1.621094,-5.01563 C 87.460938,53.660156 89,52.769531 89,51.289062 c 0,-0.785156 -0.378906,-1.105468 -1.132812,-1.105468 -0.945313,0 -1.863282,0.699218 -2.425782,1.265625 -0.945312,0.914062 -1.863281,2.023437 -2.644531,3.425781 0.621094,-0.02734 1.859375,-0.324219 2.992187,-0.675781 m 16.664068,-3.695313 c 0.32421,0 0.62109,-0.160156 0.62109,-0.726562 0,-0.484375 -0.46094,-0.648438 -0.89063,-0.648438 -0.48437,0 -1.10546,0.136719 -1.7539,0.566406 -0.16016,0.136719 -0.566409,0.324219 -0.808596,0.164063 -0.511719,-0.351563 -0.96875,-0.59375 -2.183594,-0.59375 -1.210938,0 -2.992188,0.726563 -4.125,2.261719 -0.808594,1.136718 -0.972656,1.945312 -0.972656,2.75 0,0.8125 0.328125,1.40625 0.570312,1.726562 0.05078,0.08203 0.07813,0.136719 0.07813,0.21875 0,0.1875 -0.242187,0.324219 -0.648437,0.429688 -0.726563,0.242187 -1.9375,0.945312 -1.9375,2.183594 0,0.808593 0.644531,1.589843 1.375,2.078124 0,0 -1.484375,0.402344 -2.671875,1.050782 -0.917969,0.511718 -1.941407,1.292968 -1.941407,2.425781 0,1.292969 1.105469,3.398437 5.664063,3.398437 2.667969,0 4.339844,-0.972656 4.988281,-1.699218 0.484375,-0.566406 0.5625,-1.214844 0.5625,-1.617188 0,-1.457031 -1.613281,-2.832031 -3.394531,-3.800781 -1.132813,-0.648437 -2.804687,-1.433594 -2.804687,-2.589844 0,-0.296875 0.08203,-0.621093 0.40625,-0.808593 0.214843,-0.164063 0.566406,-0.242188 0.941406,-0.242188 0.511718,0 1.160156,0.160156 1.617187,0.160156 1.457031,0 3.425781,-0.484375 4.640625,-3.074218 0.320319,-0.726563 0.457029,-1.453126 0.457029,-2.074219 0,-0.808594 -0.13671,-1 -0.13671,-1.375 0,-0.324219 0.32421,-0.511719 0.94531,-0.511719 0.89063,0 0.89063,0.347656 1.40235,0.347656 m -9.410166,16.503906 c -2.992188,0 -3.882813,-1.730468 -3.882813,-2.589843 0,-0.808594 0.324219,-1.320313 1.132813,-1.890625 0.566406,-0.402344 1.402343,-0.804688 2.046875,-1.046875 0.730468,0.320312 1.835937,0.96875 2.1875,1.292969 1.617187,1.128906 1.9375,1.777343 1.9375,2.34375 0,1.535156 -2.289063,1.890624 -3.421875,1.890624 m 5.90625,-16.019531 c 0,0.785157 -0.296875,1.835938 -0.972657,2.96875 -1.265624,2.046875 -2.265624,2.453125 -3.125,2.453125 -0.730468,0 -1.054687,-0.59375 -1.054687,-1.457031 0,-0.753906 0.324219,-1.726563 0.890625,-2.613281 0.863281,-1.375 2.078125,-2.507813 3.152344,-2.507813 0.730468,0 1.109375,0.351563 1.109375,1.15625 M 95.710938,25.214844 c -0.699219,0 -1.507813,-0.433594 -1.507813,-1.5625 0,-1.214844 0.96875,-1.59375 1.699219,-1.59375 1.023437,0 1.859375,0.730468 1.859375,1.996094 0,1.402343 -1.050781,3.074218 -2.910157,3.074218 -0.191406,0 -0.273437,-0.132812 -0.273437,-0.242187 0,-0.132813 0.08203,-0.214844 0.191406,-0.242188 1.265625,-0.242187 1.75,-1.050781 1.777344,-1.589843 -0.105469,0.07812 -0.484375,0.160156 -0.835937,0.160156 M 110.625,26.105469 c 0.13281,0 0.29297,-0.08203 0.24219,-0.269531 l -0.51563,-3.613282 c -0.0547,-0.242187 -0.16015,-0.324218 -0.29687,-0.324218 -0.0781,0 -0.1875,0.05469 -0.26563,0.214843 -0.16406,0.324219 -0.41015,0.59375 -0.86718,0.59375 -0.80469,0 -1.5625,-0.59375 -3.47657,-0.59375 -2.50781,0 -5.824216,1.078125 -5.824216,4.71875 0,3.640625 2.914066,4.828125 5.421876,5.742188 2.64062,0.972656 4.74609,1.699219 4.74609,4.449219 0,3.074218 -2.16015,4.070312 -4.20703,4.070312 -2.26562,0 -4.9375,-1.078125 -5.878905,-4.664062 -0.08203,-0.296876 -0.1875,-0.375 -0.40625,-0.375 -0.1875,0 -0.347656,0.132812 -0.347656,0.457031 l 0,4.609375 c 0,0.269531 0.160156,0.40625 0.320312,0.40625 0.109375,0 0.246094,-0.08203 0.324219,-0.214844 0.191406,-0.269531 0.40625,-0.515625 0.91797,-0.515625 1.02344,0 2.23828,1.242187 5.17578,1.242187 2.58984,0 6.95703,-0.808593 6.95703,-5.90625 0,-2.019531 -0.83594,-4.609374 -5.74219,-5.984374 -3.48046,-0.96875 -4.58203,-2.425782 -4.58203,-4.207032 0,-1.535156 0.91407,-3.019531 3.42188,-3.019531 1.23828,0 3.26172,0.351563 4.60937,2.992187 0.082,0.164063 0.16407,0.191407 0.27344,0.191407 m -1.40625,33.109375 c -1.13281,1.480468 -2.91016,2.855468 -5.14844,2.855468 -1.69922,0 -2.69531,-1.210937 -2.69531,-2.773437 0,-4.828125 5.33594,-9.925781 8.89844,-9.925781 1.21094,0 2.10156,0.460937 2.10156,1.753906 0,1.886719 -1.67187,2.914062 -4.60937,3.800781 -0.86329,0.246094 -2.67188,0.648438 -3.5586,0.835938 -0.40625,0.648437 -0.94531,1.941406 -0.94531,2.964843 0,1.378907 0.69922,2.1875 1.94141,2.1875 1.45703,0 2.83203,-1.136718 3.61328,-2.023437 0.24218,-0.242187 0.59375,0.08203 0.40234,0.324219 m -1.61719,-5.015625 c 1.64453,-0.539063 3.1836,-1.429688 3.1836,-2.910157 0,-0.785156 -0.35157,-1.105468 -1.13282,-1.105468 -0.91796,0 -1.85937,0.699218 -2.42578,1.265625 -0.91797,0.914062 -1.86328,2.023437 -2.61718,3.425781 0.59375,-0.02734 1.85937,-0.324219 2.99218,-0.675781"
           id="path3051"
           style="fill:#0f0c0c;fill-opacity:1;fill-rule:nonzero;stroke:none" />
        <path
           d="m 1.859375,68.617188 6.957031,0 c 0.351563,0 0.460938,0.5625 0.027344,0.5625 -0.671875,0 -2.046875,0.324218 -2.046875,1.78125 l 0,12.078124 c 0,1.378907 0.671875,1.863282 3.664063,1.863282 2.886718,0 5.609374,-0.351563 6.957031,-4.183594 0.109375,-0.320312 0.621093,-0.292969 0.539062,0.191406 l -0.890625,4.769532 -14.960937,0 c -0.515625,0 -0.40625,-0.617188 -0.082031,-0.617188 0.96875,0 2.15625,-0.460938 2.15625,-2.210938 l 0,-11.566406 c 0,-1.484375 -0.863282,-2.105468 -2.320313,-2.105468 -0.375,0 -0.402344,-0.5625 0,-0.5625 m 108.871095,23.105468 -108.625001,0 0,1.023438 108.625001,0 0,-1.023438 z m 0,3.289063 -108.625001,0 0,2.347656 108.625001,0 0,-2.347656 z M 26.9375,85.820312 c 4.984375,0 8.574219,-3.480468 8.574219,-8.820312 0,-4.691406 -3.480469,-8.492188 -8.574219,-8.492188 -4.960938,0 -8.519531,3.882813 -8.519531,8.492188 0,5.015625 3.367187,8.820312 8.519531,8.820312 M 21.191406,77 c 0,-4.367188 2.023438,-7.738281 5.746094,-7.738281 3.316406,0 5.820312,3.207031 5.820312,7.738281 0,5.582031 -2.261718,8.035156 -5.820312,8.035156 -3.480469,0 -5.746094,-3.34375 -5.746094,-8.035156 m 15.53125,-8.410156 c -0.324218,0 -0.402344,0.566406 0.02734,0.566406 0.484375,0 1.511719,0.132812 1.511719,1.617188 l -0.08203,11.96875 c 0,1.296874 -0.460938,2.375 -1.671876,2.375 -0.402343,0 -0.402343,0.539062 -0.08203,0.539062 l 4.988281,0 c 0.324219,0 0.324219,-0.539062 -0.05469,-0.539062 -0.726563,0 -1.992187,-0.324219 -2.019531,-2.375 l -0.109375,-12.1875 c 0,0 12.78125,15.019531 12.859375,15.101562 l 0.863281,0 0.08203,-14.398438 c 0,-1.429687 0.621094,-2.183593 2.15625,-2.183593 0.324219,0 0.324219,-0.484375 0,-0.484375 l -5.582031,0 c -0.320313,0 -0.320313,0.484375 0,0.484375 0.566406,0 2.292969,0.105469 2.320313,1.96875 L 52.0664,81.53125 41.089838,68.589844 l -4.367188,0 z m 20.085938,-0.08203 c -0.566406,0 -0.457032,0.648438 -0.132813,0.648438 0.648438,0 1.726563,0.320312 1.726563,1.617188 l 0,12.160156 c 0,1.292968 -0.296875,2.101562 -1.835938,2.101562 -0.375,0 -0.375,0.621094 -0.02734,0.621094 l 8.113282,0 c 3.558594,0 9.460937,-1.699219 9.460937,-8.734375 0,-7.121094 -4.851562,-8.414063 -9.542969,-8.414063 l -7.761718,0 z m 4.207031,2.375 c 0,-1.539062 0.886719,-1.621093 2.988281,-1.621093 3.640625,0 7.308594,1.808593 7.308594,7.578125 0,5.609375 -3.074219,8.007812 -7.144531,8.007812 l -0.863281,0 c -1.074219,0 -2.289063,-0.214844 -2.289063,-2.347656 l 0,-11.617188 z m 23.910156,14.9375 C 89.914062,85.820312 93.5,82.339844 93.5,77 c 0,-4.691406 -3.476562,-8.492188 -8.574219,-8.492188 -4.960937,0 -8.519531,3.882813 -8.519531,8.492188 0,5.015625 3.371094,8.820312 8.519531,8.820312 M 79.1875,77 c 0,-4.367188 2.019531,-7.738281 5.738281,-7.738281 3.316407,0 5.824219,3.207031 5.824219,7.738281 0,5.582031 -2.265625,8.035156 -5.824219,8.035156 -3.476562,0 -5.738281,-3.34375 -5.738281,-8.035156 m 15.417969,-8.410156 c -0.324219,0 -0.402344,0.566406 0.02734,0.566406 0.484376,0 1.511719,0.132812 1.511719,1.617188 l -0.08203,11.96875 c 0,1.296874 -0.457031,2.375 -1.671875,2.375 -0.40625,0 -0.40625,0.539062 -0.07813,0.539062 l 4.984375,0 c 0.324219,0 0.324219,-0.539062 -0.05469,-0.539062 -0.726563,0 -1.992188,-0.324219 -2.019532,-2.375 l -0.109375,-12.1875 c 0,0 12.781249,15.019531 12.863279,15.101562 l 0.85938,0 0.082,-14.398438 c 0,-1.429687 0.62109,-2.183593 2.15625,-2.183593 0.32422,0 0.32422,-0.484375 0,-0.484375 l -5.58203,0 c -0.32422,0 -0.32422,0.484375 0,0.484375 0.57031,0 2.29297,0.105469 2.32031,1.96875 l 0.13672,10.488281 -10.972658,-12.941406 -4.371093,0 z m 0,0"
           id="path3053"
           style="fill:#0f0c0c;fill-opacity:1;fill-rule:nonzero;stroke:none" />
      </g>
    </g>
  </g>
</svg>
